<svg width="169" height="45" viewBox="0 0 169 45" fill="none" xmlns="http://www.w3.org/2000/svg">
<g filter="url(#filter0_d_3352_57271)">
<path d="M88.5854 27.6371C88.254 27.453 88.0698 27.2505 88.033 27.0296C88.0146 26.8087 88.1435 26.4221 88.4197 25.8698C88.6959 25.3175 89.1286 24.4614 89.7179 23.3016C90.1598 22.4731 90.4913 21.8288 90.7123 21.3685C90.9517 20.8898 91.1082 20.5493 91.1819 20.3467C91.2739 20.1442 91.32 20.0154 91.32 19.9601C91.2831 19.7944 91.3015 19.6656 91.3752 19.5735C91.4489 19.4631 91.5686 19.371 91.7343 19.2974C91.8264 19.2053 91.9737 19.0396 92.1762 18.8003C92.3972 18.561 92.5998 18.2756 92.7839 17.9442C92.9496 17.5576 93.143 17.1618 93.364 16.7568C93.5849 16.3517 93.8796 15.8455 94.2479 15.2379C94.6161 14.612 95.0949 13.8019 95.6842 12.8078C96.0525 12.1634 96.4576 11.5099 96.8995 10.8471C97.3415 10.1659 97.8111 9.49398 98.3083 8.83122C98.5108 8.57347 98.695 8.37096 98.8607 8.22368C99.0264 8.05799 99.1921 7.98435 99.3579 8.00276C99.5788 8.00276 99.8274 8.0764 100.104 8.22368C100.398 8.37096 100.665 8.56427 100.905 8.8036C101.144 9.04293 101.319 9.30067 101.43 9.57683C101.522 9.72411 101.558 10.0371 101.54 10.5157C101.522 10.9944 101.485 11.5743 101.43 12.2555C101.374 12.9367 101.31 13.6639 101.236 14.4371C101.181 15.1919 101.098 16.0848 100.988 17.1158C100.877 18.1467 100.767 19.2237 100.656 20.3467C100.564 21.4698 100.49 22.556 100.435 23.6053C100.38 24.6363 100.38 25.5384 100.435 26.3116C100.454 26.4773 100.454 26.6338 100.435 26.7811C100.417 26.9284 100.408 27.048 100.408 27.1401C100.297 27.2505 100.113 27.2966 99.8551 27.2782C99.6157 27.2782 99.3763 27.2229 99.1369 27.1125C98.9159 27.002 98.787 26.8639 98.7502 26.6982C98.695 26.643 98.6581 26.5694 98.6397 26.4773C98.6397 26.3669 98.6489 26.1459 98.6673 25.8145C98.6857 25.4832 98.7042 24.9585 98.7226 24.2405L98.8607 19.7668L98.5016 19.7944C98.3359 19.7944 98.0228 19.8128 97.5625 19.8497C97.1021 19.8865 96.6049 19.9417 96.0709 20.0154C95.5369 20.0706 95.0397 20.135 94.5793 20.2087C94.1374 20.2639 93.8335 20.3191 93.6678 20.3744C93.5021 20.3744 93.2995 20.4848 93.0601 20.7057C92.8392 20.9267 92.6274 21.212 92.4248 21.5618C92.3512 21.8196 92.2131 22.0957 92.0105 22.3903C91.8264 22.6664 91.7343 22.8505 91.7343 22.9426C91.6054 23.0346 91.4949 23.1451 91.4028 23.274C91.3292 23.4028 91.2923 23.4673 91.2923 23.4673C91.2923 23.5777 91.2003 23.8539 91.0161 24.2957C90.8504 24.7191 90.6386 25.1978 90.3808 25.7317C90.123 26.2472 89.8652 26.6982 89.6074 27.0848L89.0274 27.9685L88.5854 27.6371ZM94.3031 18.7451C94.3031 18.7451 94.3952 18.7267 94.5793 18.6898C94.7819 18.653 95.0121 18.6162 95.2699 18.5794C95.5461 18.5241 95.7947 18.4965 96.0156 18.4965C96.7891 18.3124 97.3507 18.1928 97.7006 18.1375C98.0504 18.0639 98.2898 18.0271 98.4187 18.0271C98.5661 18.0271 98.695 18.0547 98.8054 18.1099C98.8791 18.202 98.9435 18.2572 98.9988 18.2756C99.0725 18.294 99.1093 18.3032 99.1093 18.3032C99.1277 18.2664 99.1553 18.0547 99.1921 17.6681C99.229 17.2815 99.275 16.8028 99.3303 16.2321C99.4039 15.6614 99.4684 15.0722 99.5236 14.4647C99.5973 13.8388 99.6525 13.2681 99.6893 12.7526C99.7262 12.2187 99.7538 11.8137 99.7722 11.5375C99.7906 11.1877 99.809 10.8747 99.8274 10.5986C99.8459 10.304 99.8551 10.1567 99.8551 10.1567C99.7446 10.1567 99.5052 10.3593 99.1369 10.7643C98.787 11.1693 98.3911 11.7032 97.9492 12.366C97.5072 13.0287 97.0929 13.7375 96.7062 14.4923C96.522 14.8421 96.3471 15.1551 96.1814 15.4312C96.0156 15.7074 95.8867 15.8455 95.7947 15.8455C95.7578 15.8823 95.6474 16.048 95.4632 16.3425C95.2975 16.6187 95.1133 16.9409 94.9108 17.3091C94.7082 17.6589 94.5425 17.981 94.4136 18.2756C94.2847 18.5518 94.2479 18.7082 94.3031 18.7451Z" fill="#7346F3"/>
<path d="M105.489 26.4221C104.955 26.5141 104.467 26.4865 104.025 26.3392C103.583 26.1735 103.224 25.9066 102.947 25.5384C102.69 25.1518 102.561 24.6639 102.561 24.0748C102.505 23.5225 102.57 22.8873 102.754 22.1693C102.938 21.4329 103.205 20.6965 103.555 19.9601C103.923 19.2237 104.319 18.5886 104.743 18.0547C105.111 17.6128 105.479 17.2078 105.848 16.8396C106.216 16.4714 106.547 16.2229 106.842 16.094C107.1 15.9835 107.339 15.9191 107.56 15.9007C107.8 15.8639 107.993 15.8455 108.14 15.8455C108.435 15.9191 108.748 16.0572 109.079 16.2597C109.429 16.4438 109.604 16.6463 109.604 16.8672C109.604 16.8672 109.623 16.8948 109.659 16.9501C109.715 16.9869 109.742 17.0053 109.742 17.0053C109.853 17.0053 109.945 17.125 110.019 17.3643C110.111 17.6036 110.166 17.8798 110.184 18.1928C110.203 18.4873 110.157 18.7359 110.046 18.9384C109.973 19.2882 109.844 19.5919 109.659 19.8497C109.475 20.1074 109.31 20.2363 109.162 20.2363C109.089 20.2363 109.015 20.2455 108.941 20.2639C108.886 20.2639 108.858 20.3099 108.858 20.402C108.858 20.494 108.803 20.5308 108.693 20.5124C108.601 20.494 108.499 20.4388 108.389 20.3467C108.278 20.2363 108.196 20.1074 108.14 19.9601C108.14 19.8681 108.177 19.7116 108.251 19.4907C108.324 19.2698 108.398 18.9844 108.472 18.6346C108.582 18.1191 108.573 17.7877 108.444 17.6405C108.315 17.4748 108.067 17.4656 107.698 17.6128C107.238 17.8706 106.796 18.2296 106.372 18.6898C105.967 19.1501 105.59 19.7484 105.24 20.4848C104.89 21.2028 104.577 22.1049 104.301 23.1911C104.19 23.6145 104.144 23.9827 104.163 24.2957C104.2 24.6087 104.246 24.7744 104.301 24.7928C104.559 24.8664 104.909 24.8848 105.35 24.848C105.792 24.7928 106.115 24.7099 106.317 24.5995C106.612 24.4522 106.943 24.2589 107.312 24.0196C107.68 23.7618 108.002 23.5317 108.278 23.3292C108.37 23.274 108.481 23.1819 108.61 23.053C108.739 22.9242 108.877 22.8229 109.024 22.7493C109.171 22.5283 109.3 22.3995 109.411 22.3627C109.521 22.3258 109.687 22.3074 109.908 22.3074C110.055 22.3442 110.193 22.3995 110.322 22.4731C110.451 22.5468 110.534 22.6204 110.571 22.694C110.626 22.7677 110.599 22.8321 110.488 22.8873C110.414 22.8873 110.368 22.915 110.35 22.9702C110.35 23.007 110.35 23.0254 110.35 23.0254C110.387 23.0991 110.304 23.2555 110.101 23.4949C109.917 23.7158 109.678 23.9643 109.383 24.2405C109.089 24.5166 108.803 24.756 108.527 24.9585C108.269 25.1426 108.085 25.2346 107.975 25.2346C107.79 25.2346 107.698 25.2899 107.698 25.4003C107.698 25.4371 107.56 25.5292 107.284 25.6765C107.026 25.8238 106.722 25.971 106.372 26.1183C106.041 26.2656 105.746 26.3668 105.489 26.4221Z" fill="#7346F3"/>
<path d="M111.661 25.7317C111.588 25.5844 111.495 25.474 111.385 25.4003C111.274 25.3083 111.219 25.2254 111.219 25.1518C111.219 25.0781 111.21 25.0045 111.192 24.9309C111.192 24.8388 111.155 24.756 111.081 24.6823C110.989 24.5719 110.998 24.3233 111.109 23.9367C111.219 23.5317 111.403 23.0438 111.661 22.4731C111.919 21.884 112.223 21.2672 112.573 20.6229C112.72 20.4756 112.867 20.2823 113.015 20.043C113.162 19.8036 113.272 19.6472 113.346 19.5735C113.346 19.4999 113.374 19.4354 113.429 19.3802C113.484 19.3066 113.549 19.2698 113.622 19.2698V19.1041C113.622 19.012 113.705 18.8555 113.871 18.6346C114.055 18.4137 114.276 18.1744 114.534 17.9166C114.792 17.6405 115.059 17.3827 115.335 17.1434C115.611 16.8856 115.841 16.7015 116.025 16.5911C116.412 16.3333 116.808 16.1769 117.213 16.1216C117.637 16.0664 117.996 16.1584 118.29 16.3978C118.346 16.453 118.438 16.5451 118.567 16.6739C118.696 16.8028 118.843 16.9501 119.009 17.1158C119.193 17.2631 119.377 17.4195 119.561 17.5852L120.583 18.4965L120.086 19.8773C119.846 20.6137 119.782 21.258 119.892 21.8103C120.021 22.3626 120.206 22.8413 120.445 23.2463C120.537 23.4488 120.721 23.6422 120.997 23.8263C121.292 24.0104 121.568 24.1208 121.826 24.1576C121.973 24.176 122.111 24.2313 122.24 24.3233C122.369 24.4154 122.434 24.5627 122.434 24.7652C122.434 24.9493 122.397 25.0966 122.323 25.207C122.25 25.3175 122.121 25.3911 121.936 25.4279C121.329 25.5016 120.758 25.3543 120.224 24.9861C119.708 24.6179 119.23 24.0104 118.788 23.1635C118.714 23.053 118.613 22.8505 118.484 22.556C118.373 22.243 118.309 22.0405 118.29 21.9484C118.217 22.0405 118.079 22.2154 117.876 22.4731C117.674 22.7124 117.517 22.8873 117.407 22.9978C116.099 24.3233 114.967 25.2162 114.009 25.6765C113.07 26.1183 112.287 26.1367 111.661 25.7317ZM112.656 24.1853C112.656 24.3141 112.849 24.3141 113.236 24.1853C113.641 24.038 114.073 23.7802 114.534 23.412C115.16 22.8781 115.786 22.289 116.412 21.6447C117.057 21.0003 117.572 20.402 117.959 19.8497L118.567 18.8555C118.382 18.4321 118.18 18.1467 117.959 17.9995C117.756 17.8338 117.581 17.7509 117.434 17.7509C117.195 17.7509 116.836 17.9718 116.357 18.4137C115.897 18.8555 115.399 19.4446 114.865 20.1811C114.331 20.9175 113.825 21.7275 113.346 22.6112C113.162 22.9794 112.996 23.3384 112.849 23.6882C112.72 24.0196 112.656 24.1853 112.656 24.1853Z" fill="#7346F3"/>
<path d="M129.768 26.4497C129.694 26.4497 129.584 26.4405 129.436 26.4221C129.307 26.3853 129.197 26.3024 129.105 26.1735C128.829 25.8422 128.654 25.566 128.58 25.3451C128.506 25.1242 128.497 24.802 128.553 24.3786C128.589 24.1024 128.608 23.8631 128.608 23.6606C128.626 23.4396 128.645 23.2555 128.663 23.1083C128.589 23.0346 128.451 23.0899 128.249 23.274C128.065 23.4396 127.807 23.6514 127.475 23.9091C126.849 24.6271 126.288 25.1794 125.79 25.566C125.312 25.9342 124.879 26.1828 124.492 26.3116C124.105 26.4221 123.737 26.4589 123.387 26.4221C123.074 26.3853 122.826 26.2564 122.641 26.0355C122.457 25.7961 122.338 25.4924 122.282 25.1242C122.246 24.756 122.246 24.3601 122.282 23.9367C122.356 23.3292 122.485 22.7493 122.669 22.197C122.872 21.6447 123.194 21.0279 123.636 20.3467C123.838 19.9785 124.105 19.6195 124.437 19.2698C124.787 18.9016 125.164 18.5794 125.569 18.3032C125.993 18.0087 126.398 17.7969 126.785 17.6681C127.208 17.5024 127.641 17.4103 128.083 17.3919C128.525 17.3551 128.921 17.3919 129.271 17.5024C129.492 17.6128 129.667 17.6681 129.795 17.6681C129.943 17.6681 130.053 17.576 130.127 17.3919C130.219 17.2446 130.311 17.0237 130.403 16.7292C130.495 16.4162 130.606 16.1492 130.735 15.9283L131.342 14.1333C131.545 13.6363 131.766 13.1116 132.005 12.5593C132.245 12.007 132.53 11.335 132.861 10.5434C133.175 9.95423 133.432 9.61365 133.635 9.5216C133.837 9.41114 134.068 9.48478 134.325 9.74252C134.528 9.98185 134.602 10.258 134.546 10.571C134.491 10.8655 134.325 11.3442 134.049 12.007C133.92 12.2095 133.81 12.4028 133.718 12.5869C133.626 12.7526 133.497 13.0195 133.331 13.3877C133.092 13.9584 132.871 14.4739 132.668 14.9342C132.466 15.376 132.254 15.8823 132.033 16.453C131.959 16.7476 131.858 17.0882 131.729 17.4748C131.619 17.8614 131.526 18.2112 131.453 18.5241C131.398 18.8187 131.333 19.0949 131.259 19.3526C131.204 19.5919 131.14 19.7116 131.066 19.7116C130.919 19.8773 130.781 20.1718 130.652 20.5953C130.523 21.0003 130.412 21.4237 130.32 21.8656C130.247 22.3074 130.182 22.6756 130.127 22.9702C130.09 23.1911 130.062 23.4765 130.044 23.8263C130.026 24.176 130.016 24.5166 130.016 24.848C130.016 25.161 130.016 25.3819 130.016 25.5108C130.016 25.9158 130.007 26.1735 129.989 26.284C129.97 26.3945 129.897 26.4497 129.768 26.4497ZM123.884 24.7099C124.271 24.7099 124.676 24.5443 125.1 24.2129C125.542 23.8815 125.984 23.5133 126.426 23.1083C126.702 22.8505 126.996 22.5099 127.31 22.0865C127.641 21.6631 127.954 21.2396 128.249 20.8162C128.562 20.3928 128.81 20.0246 128.994 19.7116C129.179 19.3802 129.271 19.1777 129.271 19.1041C129.271 19.012 129.188 18.9476 129.022 18.9108C128.856 18.8739 128.663 18.8555 128.442 18.8555C128.239 18.8371 128.074 18.8463 127.945 18.8831C127.54 18.9752 127.135 19.1593 126.729 19.4354C126.343 19.7116 125.919 20.1258 125.459 20.6781C124.98 21.2673 124.584 21.8748 124.271 22.5007C123.977 23.1267 123.792 23.6514 123.719 24.0748C123.645 24.4982 123.7 24.7099 123.884 24.7099Z" fill="#7346F3"/>
<path d="M135.363 26.8087C134.553 26.8087 133.89 26.5049 133.375 25.8974C132.859 25.2715 132.61 24.4982 132.629 23.5777C132.666 22.915 132.795 22.2062 133.016 21.4514C133.255 20.6781 133.568 19.9417 133.955 19.2421C134.341 18.5241 134.765 17.8982 135.225 17.3643C135.686 16.8304 136.164 16.453 136.662 16.2321C136.846 16.14 137.039 16.0664 137.242 16.0112C137.463 15.9559 137.684 15.9283 137.905 15.9283C138.107 15.9283 138.319 15.9651 138.54 16.0388C138.761 16.094 138.945 16.1584 139.092 16.2321C139.405 16.361 139.645 16.5174 139.811 16.7015C139.976 16.8856 140.124 17.171 140.252 17.5576C140.308 17.9074 140.335 18.1559 140.335 18.3032C140.335 18.4505 140.289 18.6714 140.197 18.966C139.976 19.6287 139.691 20.1995 139.341 20.6781C138.991 21.1568 138.521 21.5618 137.932 21.8932C137.785 21.9852 137.61 22.0589 137.407 22.1141C137.223 22.1509 137.03 22.1693 136.827 22.1693C136.459 22.1693 136.1 22.1049 135.75 21.976C135.419 21.8288 135.152 21.617 134.949 21.3409L134.756 21.12L134.673 21.3409C134.489 21.838 134.341 22.2982 134.231 22.7216C134.139 23.1451 134.093 23.5317 134.093 23.8815C134.093 24.1024 134.111 24.3141 134.148 24.5166C134.203 24.7191 134.277 24.894 134.369 25.0413C134.443 25.1518 134.562 25.2346 134.728 25.2899C134.912 25.3267 135.106 25.3451 135.308 25.3451C135.437 25.3451 135.566 25.3451 135.695 25.3451C135.842 25.3267 135.98 25.2899 136.109 25.2346C136.422 25.1242 136.671 25.0045 136.855 24.8756C137.058 24.7468 137.26 24.6087 137.463 24.4614L137.573 24.4062H137.546C137.767 24.2957 137.96 24.1853 138.126 24.0748C138.31 23.9643 138.402 23.9091 138.402 23.9091C138.475 23.9091 138.549 23.8631 138.623 23.771C138.77 23.6974 138.954 23.725 139.175 23.8539C139.415 23.9827 139.534 24.1484 139.534 24.3509C139.516 24.443 139.433 24.5903 139.286 24.7928C139.138 24.9769 138.973 25.1518 138.789 25.3175C138.623 25.4832 138.485 25.5752 138.374 25.5936C138.356 25.612 138.291 25.6489 138.181 25.7041C138.07 25.7409 137.997 25.7777 137.96 25.8145H137.987C137.822 26.0355 137.656 26.1459 137.49 26.1459H137.269C137.196 26.2748 136.956 26.4221 136.551 26.5878C136.146 26.7351 135.75 26.8087 135.363 26.8087ZM136.606 20.7334C136.938 20.7334 137.223 20.6413 137.463 20.4572C137.72 20.2547 137.941 20.0338 138.126 19.7944C138.494 19.2974 138.706 18.8187 138.761 18.3585C138.835 17.8798 138.779 17.5484 138.595 17.3643C138.485 17.3091 138.383 17.2815 138.291 17.2815C138.218 17.263 138.061 17.2907 137.822 17.3643C137.656 17.4011 137.426 17.5392 137.131 17.7785C136.837 18.0179 136.542 18.2848 136.247 18.5794C135.971 18.8739 135.759 19.1225 135.612 19.325L135.253 19.9049C135.4 19.8497 135.538 19.8221 135.667 19.8221C135.815 19.8036 135.897 19.8128 135.916 19.8497C135.916 20.0154 135.943 20.1718 135.999 20.3191C136.072 20.448 136.155 20.5493 136.247 20.6229C136.358 20.6965 136.477 20.7334 136.606 20.7334Z" fill="#7346F3"/>
<path d="M142.164 25.3727C141.961 25.2438 141.777 25.0781 141.611 24.8756C141.446 24.6547 141.363 24.3786 141.363 24.0472C141.363 23.8631 141.4 23.5501 141.473 23.1083C141.547 22.6664 141.648 22.1693 141.777 21.617C141.906 21.0647 142.035 20.5493 142.164 20.0706C142.348 19.7392 142.504 19.4078 142.633 19.0764C142.762 18.7451 142.827 18.5426 142.827 18.4689C142.864 18.248 142.91 17.9902 142.965 17.6957C143.038 17.4011 143.112 17.1342 143.186 16.8948C143.259 16.6555 143.315 16.5174 143.351 16.4806C143.444 16.3886 143.554 16.3333 143.683 16.3149C143.812 16.2781 143.941 16.2965 144.07 16.3702C144.217 16.4254 144.327 16.5451 144.401 16.7292C144.604 16.9501 144.705 17.217 144.705 17.53C144.705 17.8246 144.604 18.2664 144.401 18.8555C144.235 19.2237 144.07 19.6564 143.904 20.1534C143.738 20.6505 143.591 21.1108 143.462 21.5342C143.351 21.9392 143.287 22.2154 143.269 22.3627L142.716 22.5283C143.029 22.2338 143.324 21.93 143.6 21.617C143.876 21.2857 144.079 21.0279 144.208 20.8438C144.521 20.4204 144.788 20.0706 145.009 19.7944C145.248 19.4999 145.552 19.1501 145.92 18.7451C146.289 18.3216 146.648 18.0639 146.998 17.9718C147.366 17.8614 147.651 17.8061 147.854 17.8061C148.259 17.8798 148.581 18.0915 148.821 18.4413C149.078 18.7727 149.244 19.2698 149.318 19.9325C149.318 20.1903 149.29 20.494 149.235 20.8438C149.198 21.1936 149.18 21.3685 149.18 21.3685C149.18 21.3685 149.327 21.1752 149.622 20.7886C149.935 20.402 150.349 19.9785 150.865 19.5183C151.214 19.2605 151.555 19.1133 151.887 19.0764C152.218 19.0212 152.513 19.1317 152.77 19.4078C153.249 19.6656 153.562 20.0614 153.71 20.5953C153.857 21.1108 153.894 21.7735 153.82 22.5836C153.765 23.0622 153.756 23.4212 153.792 23.6606C153.829 23.8815 153.885 24.1024 153.958 24.3233C154.106 24.397 154.133 24.5535 154.041 24.7928C153.949 25.0137 153.839 25.1242 153.71 25.1242C153.525 25.1242 153.314 25.0873 153.074 25.0137C152.853 24.9401 152.651 24.8204 152.467 24.6547C152.301 24.4706 152.218 24.2221 152.218 23.9091V22.197C152.218 21.7919 152.2 21.4606 152.163 21.2028C152.144 20.9451 152.098 20.7886 152.025 20.7334C151.822 20.6229 151.528 20.7426 151.141 21.0924C150.754 21.4421 150.34 21.9116 149.898 22.5007C149.456 23.0899 149.042 23.6974 148.655 24.3233C148.305 24.894 148.084 25.2254 147.992 25.3175C147.918 25.3911 147.78 25.3635 147.578 25.2346C147.172 25.1058 146.915 24.9309 146.804 24.7099C146.712 24.4706 146.703 24.2037 146.777 23.9091C146.869 23.5961 146.979 23.1727 147.108 22.6388C147.255 22.1049 147.393 21.5894 147.522 21.0924C147.651 20.5769 147.734 20.2087 147.771 19.9877C147.697 19.8405 147.568 19.7944 147.384 19.8497C147.219 19.8865 147.044 19.9693 146.859 20.0982C146.638 20.2455 146.371 20.5216 146.058 20.9267C145.745 21.3317 145.423 21.8011 145.092 22.335C144.871 22.6848 144.64 23.0346 144.401 23.3844C144.162 23.7158 143.941 24.0104 143.738 24.2681C143.536 24.5258 143.361 24.7191 143.213 24.848C142.956 25.253 142.781 25.474 142.689 25.5108C142.596 25.5476 142.422 25.5016 142.164 25.3727Z" fill="#7346F3"/>
<path d="M154.913 32.2213C154.471 32.3501 153.983 32.3685 153.449 32.2765C152.934 32.2029 152.482 32.0464 152.096 31.807C151.691 31.5677 151.46 31.3008 151.405 31.0062C151.387 30.8957 151.424 30.7761 151.516 30.6472C151.589 30.5183 151.691 30.4263 151.819 30.3711C151.93 30.3342 152.031 30.3711 152.123 30.4815C152.271 30.5736 152.538 30.684 152.924 30.8129C153.311 30.9602 153.744 30.9878 154.223 30.8957C154.646 30.8037 155.06 30.5552 155.466 30.1501C155.889 29.7451 156.23 29.3677 156.488 29.0179C156.635 28.797 156.883 28.4012 157.233 27.8305C157.583 27.2597 157.942 26.6338 158.311 25.9526C158.697 25.253 159.02 24.6087 159.277 24.0196C159.333 23.8723 159.397 23.6974 159.471 23.4949C159.544 23.2924 159.636 23.1267 159.747 22.9978C159.857 22.7769 159.949 22.5744 160.023 22.3903C160.115 22.1878 160.17 22.0497 160.189 21.976C160.207 21.884 160.29 21.6999 160.437 21.4237C160.585 21.1476 160.723 20.8714 160.852 20.5953C160.944 20.3191 161.082 19.9141 161.266 19.3802C161.45 18.8463 161.634 18.4137 161.819 18.0823C162.04 17.6589 162.214 17.3183 162.343 17.0605C162.491 16.7844 162.647 16.6187 162.813 16.5635C162.979 16.4346 163.089 16.3702 163.144 16.3702C163.218 16.3702 163.356 16.4254 163.559 16.5358C163.78 16.7568 163.918 16.9777 163.973 17.1986C164.028 17.4011 164.001 17.6589 163.89 17.9718C163.798 18.2664 163.614 18.6714 163.338 19.1869C163.19 19.6287 163.025 20.0338 162.841 20.402C162.675 20.7518 162.546 20.9819 162.454 21.0924C162.362 21.3133 162.251 21.5618 162.122 21.838C162.012 22.0957 161.911 22.335 161.819 22.556C161.487 23.2924 161.202 23.8907 160.962 24.3509C160.723 24.8112 160.511 25.2346 160.327 25.6212C160.143 26.0079 159.949 26.4589 159.747 26.9744C159.323 27.6556 158.909 28.2999 158.504 28.9074C158.117 29.5334 157.703 30.1133 157.261 30.6472C157.077 30.8129 156.847 31.0062 156.57 31.2271C156.294 31.448 156.009 31.6506 155.714 31.8347C155.438 32.0188 155.171 32.1476 154.913 32.2213ZM158.642 25.5936C158.366 25.5568 158.09 25.3911 157.813 25.0966C157.556 24.802 157.353 24.489 157.206 24.1576C157.058 23.8263 157.003 23.5869 157.04 23.4396C157.04 23.3476 157.04 23.274 157.04 23.2187C157.04 23.1635 157.04 23.1359 157.04 23.1359C156.929 23.1359 156.828 22.9978 156.736 22.7216C156.662 22.4455 156.607 22.0865 156.57 21.6447C156.534 21.2028 156.506 20.7334 156.488 20.2363C156.488 19.7392 156.506 19.2698 156.543 18.8279C156.616 18.5149 156.653 18.1743 156.653 17.8061C156.653 17.4195 156.662 17.1158 156.681 16.8948C156.662 16.6003 156.69 16.407 156.764 16.3149C156.837 16.2045 156.911 16.1216 156.985 16.0664C157.5 15.8455 157.841 15.9835 158.007 16.4806C158.191 16.9593 158.237 17.8614 158.145 19.1869C158.108 19.9233 158.108 20.6597 158.145 21.3961C158.182 22.1325 158.283 22.7769 158.449 23.3292C158.633 23.8815 158.881 24.2589 159.194 24.4614C159.323 24.535 159.388 24.6363 159.388 24.7652C159.388 24.894 159.351 25.0321 159.277 25.1794C159.204 25.3083 159.102 25.4187 158.974 25.5108C158.863 25.5844 158.753 25.612 158.642 25.5936Z" fill="#7346F3"/>
</g>
<g filter="url(#filter1_d_3352_57271)">
<path fill-rule="evenodd" clip-rule="evenodd" d="M16 23.7614H35.9224V12.043H16V23.7614Z" fill="#5721F2"/>
</g>
<g clip-path="url(#clip0_3352_57271)">
<path fill-rule="evenodd" clip-rule="evenodd" d="M26.0139 27.7982C25.9185 27.7044 25.8711 27.5833 25.8711 27.432V8.73121C25.8711 8.58124 25.9185 8.45968 26.0139 8.36507C26.1089 8.27143 26.2326 8.22461 26.3849 8.22461H30.0949C30.2469 8.22461 30.37 8.27143 30.4659 8.36507C30.5608 8.45968 30.6082 8.58124 30.6082 8.73121V27.432C30.6082 27.5833 30.5608 27.7044 30.4659 27.7982C30.37 27.8927 30.2469 27.9391 30.0949 27.9391H26.3849C26.2326 27.9391 26.1089 27.8927 26.0139 27.7982Z" fill="#EEEFF5"/>
<path fill-rule="evenodd" clip-rule="evenodd" d="M33.6033 27.7982C33.5079 27.7044 33.4609 27.5833 33.4609 27.432V8.73121C33.4609 8.58124 33.5079 8.45968 33.6033 8.36507C33.6986 8.27143 33.8219 8.22461 33.9743 8.22461H37.4843C37.7508 8.22461 37.9503 8.33715 38.084 8.56234L44.362 19.0396C44.4 19.1147 44.4474 19.1426 44.5045 19.1237C44.5611 19.1053 44.5907 19.049 44.5907 18.9548L44.5611 8.73121C44.5611 8.58124 44.609 8.45968 44.704 8.36507C44.7997 8.27143 44.9234 8.22461 45.0749 8.22461H48.7274C48.8807 8.22461 49.0044 8.27143 49.0984 8.36507C49.1941 8.45968 49.2412 8.58124 49.2412 8.73121V27.432C49.2412 27.5833 49.1941 27.7044 49.0984 27.7982C49.0044 27.8927 48.8807 27.9391 48.7274 27.9391H45.2178C44.9703 27.9391 44.771 27.8266 44.6186 27.6014L38.3403 16.9832C38.3021 16.8895 38.2503 16.8521 38.1837 16.8706C38.1166 16.8895 38.084 16.9459 38.084 17.04L38.141 27.432C38.141 27.5833 38.093 27.7044 37.9981 27.7982C37.9028 27.8927 37.7791 27.9391 37.6271 27.9391H33.9743C33.8219 27.9391 33.6986 27.8927 33.6033 27.7982Z" fill="#EEEFF5"/>
<path fill-rule="evenodd" clip-rule="evenodd" d="M57.1179 27.5163L51.4389 8.78791C51.4197 8.73121 51.4102 8.66598 51.4102 8.59075C51.4102 8.34666 51.5626 8.22461 51.8665 8.22461H55.8908C56.1947 8.22461 56.3846 8.37494 56.4613 8.675L59.6861 21.1802C59.7235 21.2549 59.7663 21.2927 59.8141 21.2927C59.8612 21.2927 59.8951 21.2549 59.9143 21.1802L63.0817 8.675C63.1574 8.37494 63.3481 8.22461 63.6522 8.22461H67.5902C67.7809 8.22461 67.9142 8.27143 67.99 8.36507C68.0657 8.45968 68.0752 8.60014 68.0186 8.78791L62.2831 27.5163C62.2064 27.7982 62.007 27.9391 61.683 27.9391H57.6883C57.3835 27.9391 57.1936 27.7982 57.1179 27.5163Z" fill="#EEEFF5"/>
<mask id="mask0_3352_57271" style="mask-type:alpha" maskUnits="userSpaceOnUse" x="68" y="7" width="17" height="22">
<path d="M68.7891 7.99805H84.3421V28.2472H68.7891V7.99805Z" fill="white"/>
</mask>
<g mask="url(#mask0_3352_57271)">
<path fill-rule="evenodd" clip-rule="evenodd" d="M78.7632 23.3756C79.3241 22.7929 79.6045 22.0142 79.6045 21.0378V15.2079C79.6045 14.2504 79.3241 13.4756 78.7632 12.8842C78.2016 12.2929 77.4648 11.9972 76.5512 11.9972C75.6568 11.9972 74.9287 12.2929 74.3678 12.8842C73.8071 13.4756 73.5266 14.2504 73.5266 15.2079V21.0378C73.5266 22.0142 73.8071 22.7929 74.3678 23.3756C74.9287 23.9574 75.6568 24.2488 76.5512 24.2488C77.4648 24.2488 78.2016 23.9574 78.7632 23.3756ZM72.4851 27.3327C71.3146 26.7225 70.4062 25.8629 69.7592 24.7551C69.1121 23.6473 68.7891 22.3614 68.7891 20.8969V15.2642C68.7891 13.8375 69.1121 12.5744 69.7592 11.476C70.4062 10.3776 71.3146 9.52371 72.4851 8.91298C73.6546 8.30311 75.0106 7.99805 76.5512 7.99805C78.0926 7.99805 79.4521 8.30311 80.6322 8.91298C81.8112 9.52371 82.7248 10.3776 83.3719 11.476C84.0182 12.5744 84.3421 13.8375 84.3421 15.2642V20.8969C84.3421 22.3614 84.0182 23.6473 83.3719 24.7551C82.7248 25.8629 81.8112 26.7225 80.6322 27.3327C79.4521 27.9421 78.0926 28.2472 76.5512 28.2472C75.0106 28.2472 73.6546 27.9421 72.4851 27.3327Z" fill="#EEEFF5"/>
</g>
</g>
<defs>
<filter id="filter0_d_3352_57271" x="74.0148" y="0.9918" width="94.6573" height="43.0225" filterUnits="userSpaceOnUse" color-interpolation-filters="sRGB">
<feFlood flood-opacity="0" result="BackgroundImageFix"/>
<feColorMatrix in="SourceAlpha" type="matrix" values="0 0 0 0 0 0 0 0 0 0 0 0 0 0 0 0 0 0 127 0" result="hardAlpha"/>
<feOffset dx="-4.67213" dy="2.33607"/>
<feGaussianBlur stdDeviation="4.67213"/>
<feComposite in2="hardAlpha" operator="out"/>
<feColorMatrix type="matrix" values="0 0 0 0 0.341176 0 0 0 0 0.129412 0 0 0 0 0.94902 0 0 0 1 0"/>
<feBlend mode="normal" in2="BackgroundImageFix" result="effect1_dropShadow_3352_57271"/>
<feBlend mode="normal" in="SourceGraphic" in2="effect1_dropShadow_3352_57271" result="shape"/>
</filter>
<filter id="filter1_d_3352_57271" x="0.425817" y="2.3091" width="43.2831" height="35.08" filterUnits="userSpaceOnUse" color-interpolation-filters="sRGB">
<feFlood flood-opacity="0" result="BackgroundImageFix"/>
<feColorMatrix in="SourceAlpha" type="matrix" values="0 0 0 0 0 0 0 0 0 0 0 0 0 0 0 0 0 0 127 0" result="hardAlpha"/>
<feOffset dx="-3.89355" dy="1.94677"/>
<feGaussianBlur stdDeviation="5.84032"/>
<feComposite in2="hardAlpha" operator="out"/>
<feColorMatrix type="matrix" values="0 0 0 0 0.341176 0 0 0 0 0.129412 0 0 0 0 0.94902 0 0 0 0.55 0"/>
<feBlend mode="normal" in2="BackgroundImageFix" result="effect1_dropShadow_3352_57271"/>
<feBlend mode="normal" in="SourceGraphic" in2="effect1_dropShadow_3352_57271" result="shape"/>
</filter>
<clipPath id="clip0_3352_57271">
<rect width="68.4422" height="20.3617" fill="white" transform="translate(16 8)"/>
</clipPath>
</defs>
</svg>
