<svg width="122" height="22" viewBox="0 0 122 22" fill="none" xmlns="http://www.w3.org/2000/svg">
<g filter="url(#filter0_d_3352_57312)">
<path fill-rule="evenodd" clip-rule="evenodd" d="M10 13.2891H21.7413V6.38281H10V13.2891Z" fill="#5721F2"/>
</g>
<path fill-rule="evenodd" clip-rule="evenodd" d="M15.9006 15.6685C15.8444 15.6133 15.8164 15.5419 15.8164 15.4528V4.43138C15.8164 4.343 15.8444 4.27135 15.9006 4.21559C15.9566 4.16041 16.0294 4.13281 16.1192 4.13281H18.3057C18.3953 4.13281 18.4679 4.16041 18.5244 4.21559C18.5803 4.27135 18.6083 4.343 18.6083 4.43138V15.4528C18.6083 15.5419 18.5803 15.6133 18.5244 15.6685C18.4679 15.7242 18.3953 15.7516 18.3057 15.7516H16.1192C16.0294 15.7516 15.9566 15.7242 15.9006 15.6685Z" fill="#EEEFF5"/>
<path fill-rule="evenodd" clip-rule="evenodd" d="M20.3749 15.6685C20.3187 15.6133 20.291 15.5419 20.291 15.4528V4.43138C20.291 4.343 20.3187 4.27135 20.3749 4.21559C20.4311 4.16041 20.5038 4.13281 20.5935 4.13281H22.6622C22.8193 4.13281 22.9368 4.19914 23.0156 4.33186L26.7156 10.5066C26.738 10.5509 26.7659 10.5674 26.7996 10.5562C26.8329 10.5454 26.8504 10.5122 26.8504 10.4567L26.8329 4.43138C26.8329 4.343 26.8611 4.27135 26.9171 4.21559C26.9736 4.16041 27.0464 4.13281 27.1357 4.13281H29.2883C29.3787 4.13281 29.4516 4.16041 29.507 4.21559C29.5634 4.27135 29.5911 4.343 29.5911 4.43138V15.4528C29.5911 15.5419 29.5634 15.6133 29.507 15.6685C29.4516 15.7242 29.3787 15.7516 29.2883 15.7516H27.22C27.0741 15.7516 26.9566 15.6853 26.8668 15.5526L23.1667 9.29469C23.1441 9.23951 23.1136 9.21745 23.0744 9.22837C23.0349 9.23951 23.0156 9.27271 23.0156 9.32818L23.0492 15.4528C23.0492 15.5419 23.0209 15.6133 22.965 15.6685C22.9088 15.7242 22.8359 15.7516 22.7464 15.7516H20.5935C20.5038 15.7516 20.4311 15.7242 20.3749 15.6685Z" fill="#EEEFF5"/>
<path fill-rule="evenodd" clip-rule="evenodd" d="M34.233 15.5024L30.8861 4.46479C30.8747 4.43138 30.8691 4.39294 30.8691 4.3486C30.8691 4.20474 30.959 4.13281 31.1381 4.13281H33.5098C33.6889 4.13281 33.8008 4.22141 33.846 4.39825L35.7466 11.7682C35.7687 11.8122 35.7938 11.8345 35.822 11.8345C35.8498 11.8345 35.8698 11.8122 35.8811 11.7682L37.7478 4.39825C37.7924 4.22141 37.9048 4.13281 38.084 4.13281H40.4049C40.5173 4.13281 40.5959 4.16041 40.6405 4.21559C40.6851 4.27135 40.6907 4.35413 40.6574 4.46479L37.2771 15.5024C37.2319 15.6685 37.1144 15.7516 36.9235 15.7516H34.5692C34.3896 15.7516 34.2777 15.6685 34.233 15.5024Z" fill="#EEEFF5"/>
<mask id="mask0_3352_57312" style="mask-type:alpha" maskUnits="userSpaceOnUse" x="41" y="4" width="10" height="12">
<path d="M41.1113 4H50.2776V15.9339H41.1113V4Z" fill="white"/>
</mask>
<g mask="url(#mask0_3352_57312)">
<path fill-rule="evenodd" clip-rule="evenodd" d="M46.9896 13.0628C47.3202 12.7194 47.4855 12.2604 47.4855 11.685V8.24915C47.4855 7.68485 47.3202 7.2282 46.9896 6.87969C46.6586 6.53118 46.2244 6.35692 45.686 6.35692C45.1588 6.35692 44.7298 6.53118 44.3992 6.87969C44.0687 7.2282 43.9034 7.68485 43.9034 8.24915V11.685C43.9034 12.2604 44.0687 12.7194 44.3992 13.0628C44.7298 13.4057 45.1588 13.5774 45.686 13.5774C46.2244 13.5774 46.6586 13.4057 46.9896 13.0628ZM43.2896 15.3949C42.5998 15.0353 42.0644 14.5287 41.6831 13.8758C41.3017 13.2229 41.1113 12.4651 41.1113 11.6019V8.28234C41.1113 7.44147 41.3017 6.6971 41.6831 6.04973C42.0644 5.40237 42.5998 4.89915 43.2896 4.53922C43.9789 4.17979 44.778 4 45.686 4C46.5944 4 47.3956 4.17979 48.0911 4.53922C48.786 4.89915 49.3244 5.40237 49.7058 6.04973C50.0867 6.6971 50.2776 7.44147 50.2776 8.28234V11.6019C50.2776 12.4651 50.0867 13.2229 49.7058 13.8758C49.3244 14.5287 48.786 15.0353 48.0911 15.3949C47.3956 15.7541 46.5944 15.9339 45.686 15.9339C44.778 15.9339 43.9789 15.7541 43.2896 15.3949Z" fill="#EEEFF5"/>
</g>
<path d="M62.208 16L66.192 4.8H64.432L61.2 14.128H61.12L57.888 4.8H56.112L60.096 16H62.208ZM74.4729 12.32C74.5209 12.048 74.5529 11.776 74.5529 11.488C74.5529 10.8 74.4089 10.16 74.1049 9.536C73.8009 8.928 73.3689 8.432 72.7769 8.048C72.1849 7.664 71.4969 7.472 70.6969 7.472C69.9289 7.472 69.2569 7.632 68.6649 7.968C68.0729 8.304 67.6249 8.8 67.3049 9.456C66.9689 10.112 66.8089 10.896 66.8089 11.808C66.8089 12.72 66.9689 13.504 67.3049 14.16C67.6409 14.816 68.1049 15.312 68.6969 15.648C69.2889 15.984 69.9609 16.16 70.7449 16.16C71.6409 16.16 72.3929 15.936 73.0169 15.504C73.6249 15.072 74.0569 14.464 74.3289 13.696H72.7129C72.4889 14.064 72.2169 14.352 71.9129 14.528C71.5929 14.704 71.2089 14.8 70.7449 14.8C70.0569 14.8 69.4969 14.592 69.0969 14.16C68.6809 13.728 68.4409 13.12 68.3609 12.32H74.4729ZM73.0329 11.04H68.3769C68.4729 10.352 68.7129 9.824 69.1129 9.424C69.5129 9.024 70.0409 8.832 70.6969 8.832C71.3849 8.832 71.9289 9.04 72.3289 9.472C72.7289 9.904 72.9529 10.432 73.0329 11.04ZM76.1426 16H77.6626V10.96C77.6626 10.368 77.8546 9.872 78.2546 9.472C78.6386 9.072 79.1186 8.864 79.7106 8.864C80.2866 8.864 80.7506 9.04 81.1026 9.408C81.4386 9.776 81.6146 10.304 81.6146 10.96V16H83.1346V10.848C83.1346 10.16 83.0066 9.568 82.7346 9.056C82.4626 8.544 82.0786 8.144 81.6146 7.872C81.1506 7.6 80.6066 7.472 80.0146 7.472C79.5346 7.472 79.0866 7.568 78.6866 7.76C78.2706 7.968 77.9346 8.272 77.6626 8.704H77.5826L77.3906 7.632H76.1426V16ZM87.9091 16H89.2851V14.592H88.0851C87.8131 14.592 87.6051 14.512 87.4291 14.336C87.2531 14.16 87.1731 13.952 87.1731 13.68V9.04H89.2851V7.632H87.1731V5.392H85.8611L85.6531 7.632H84.3411V9.04H85.6531V13.792C85.6531 14.448 85.8611 14.992 86.2771 15.392C86.6771 15.792 87.2211 16 87.9091 16ZM92.3583 15.744C92.8223 16.032 93.3663 16.16 93.9583 16.16C94.4223 16.16 94.8703 16.064 95.2863 15.856C95.7023 15.648 96.0383 15.344 96.3103 14.928H96.3903L96.5663 16H97.8303V7.632H96.3103V12.672C96.3103 13.264 96.1183 13.76 95.7343 14.16C95.3343 14.56 94.8543 14.768 94.2623 14.768C93.6863 14.768 93.2223 14.576 92.8863 14.208C92.5343 13.84 92.3583 13.328 92.3583 12.672V7.632H90.8383V12.768C90.8383 13.456 90.9663 14.064 91.2383 14.576C91.5103 15.088 91.8783 15.472 92.3583 15.744ZM99.8189 16H101.339V11.152C101.339 10.528 101.547 10.032 101.963 9.648C102.363 9.264 102.891 9.072 103.547 9.072H104.427V7.632H103.499C103.003 7.632 102.571 7.712 102.219 7.872C101.867 8.048 101.579 8.32 101.339 8.704H101.259L101.067 7.632H99.8189V16ZM112.845 12.32C112.893 12.048 112.925 11.776 112.925 11.488C112.925 10.8 112.781 10.16 112.477 9.536C112.173 8.928 111.741 8.432 111.149 8.048C110.557 7.664 109.869 7.472 109.069 7.472C108.301 7.472 107.629 7.632 107.037 7.968C106.445 8.304 105.997 8.8 105.677 9.456C105.341 10.112 105.181 10.896 105.181 11.808C105.181 12.72 105.341 13.504 105.677 14.16C106.013 14.816 106.477 15.312 107.069 15.648C107.661 15.984 108.333 16.16 109.117 16.16C110.013 16.16 110.765 15.936 111.389 15.504C111.997 15.072 112.429 14.464 112.701 13.696H111.085C110.861 14.064 110.589 14.352 110.285 14.528C109.965 14.704 109.581 14.8 109.117 14.8C108.429 14.8 107.869 14.592 107.469 14.16C107.053 13.728 106.813 13.12 106.733 12.32H112.845ZM111.405 11.04H106.749C106.845 10.352 107.085 9.824 107.485 9.424C107.885 9.024 108.413 8.832 109.069 8.832C109.757 8.832 110.301 9.04 110.701 9.472C111.101 9.904 111.325 10.432 111.405 11.04ZM115.059 15.488C115.651 15.936 116.403 16.16 117.299 16.16C117.987 16.16 118.595 16.048 119.107 15.84C119.603 15.632 120.003 15.328 120.275 14.944C120.547 14.576 120.675 14.144 120.675 13.68C120.675 13.12 120.531 12.656 120.259 12.32C119.971 11.984 119.635 11.744 119.251 11.6C118.851 11.456 118.339 11.296 117.715 11.152C117.251 11.04 116.899 10.944 116.643 10.864C116.371 10.784 116.163 10.656 115.987 10.496C115.811 10.336 115.731 10.128 115.731 9.872C115.731 9.552 115.859 9.296 116.131 9.104C116.403 8.928 116.787 8.832 117.299 8.832C118.147 8.832 118.691 9.136 118.915 9.728H120.531C120.387 9.008 120.019 8.448 119.443 8.048C118.851 7.664 118.147 7.472 117.299 7.472C116.675 7.472 116.115 7.584 115.651 7.792C115.187 8.016 114.819 8.304 114.579 8.672C114.323 9.04 114.195 9.44 114.195 9.872C114.195 10.464 114.339 10.944 114.627 11.28C114.915 11.632 115.267 11.888 115.667 12.032C116.067 12.176 116.579 12.32 117.203 12.464C117.667 12.576 118.019 12.656 118.259 12.736C118.499 12.816 118.707 12.944 118.883 13.088C119.043 13.232 119.123 13.44 119.123 13.68C119.123 14.016 118.979 14.272 118.675 14.48C118.371 14.688 117.923 14.8 117.299 14.8C116.867 14.8 116.499 14.704 116.179 14.496C115.859 14.304 115.651 14.032 115.555 13.696H113.923C114.083 14.448 114.467 15.056 115.059 15.488Z" fill="#EEEFF5"/>
<defs>
<filter id="filter0_d_3352_57312" x="0.821314" y="0.646133" width="25.5102" height="20.6743" filterUnits="userSpaceOnUse" color-interpolation-filters="sRGB">
<feFlood flood-opacity="0" result="BackgroundImageFix"/>
<feColorMatrix in="SourceAlpha" type="matrix" values="0 0 0 0 0 0 0 0 0 0 0 0 0 0 0 0 0 0 127 0" result="hardAlpha"/>
<feOffset dx="-2.29467" dy="1.14734"/>
<feGaussianBlur stdDeviation="3.44201"/>
<feComposite in2="hardAlpha" operator="out"/>
<feColorMatrix type="matrix" values="0 0 0 0 0.341176 0 0 0 0 0.129412 0 0 0 0 0.94902 0 0 0 0.55 0"/>
<feBlend mode="normal" in2="BackgroundImageFix" result="effect1_dropShadow_3352_57312"/>
<feBlend mode="normal" in="SourceGraphic" in2="effect1_dropShadow_3352_57312" result="shape"/>
</filter>
</defs>
</svg>
