<svg width="139" height="36" viewBox="0 0 139 36" fill="none" xmlns="http://www.w3.org/2000/svg">
<g filter="url(#filter0_d_3358_50455)">
<path d="M72.6566 22.1397C72.3842 21.9883 72.2329 21.8219 72.2026 21.6403C72.1875 21.4588 72.2934 21.141 72.5204 20.6871C72.7474 20.2331 73.1031 19.5295 73.5874 18.5763C73.9507 17.8954 74.2231 17.3658 74.4047 16.9875C74.6014 16.5941 74.7301 16.3142 74.7906 16.1477C74.8663 15.9813 74.9041 15.8754 74.9041 15.83C74.8739 15.6938 74.889 15.5879 74.9495 15.5122C75.0101 15.4214 75.1085 15.3458 75.2447 15.2852C75.3203 15.2096 75.4414 15.0734 75.6079 14.8767C75.7895 14.68 75.956 14.4455 76.1074 14.1731C76.2436 13.8553 76.4025 13.53 76.5841 13.1971C76.7657 12.8643 77.0079 12.4481 77.3106 11.9488C77.6133 11.4344 78.0068 10.7686 78.4911 9.9515C78.7938 9.42191 79.1267 8.88476 79.49 8.34003C79.8532 7.78018 80.2391 7.22789 80.6478 6.68317C80.8143 6.47134 80.9656 6.30489 81.1018 6.18384C81.238 6.04766 81.3742 5.98714 81.5105 6.00227C81.6921 6.00227 81.8964 6.06279 82.1234 6.18384C82.3656 6.30489 82.585 6.46377 82.7818 6.66048C82.9785 6.85718 83.1223 7.06902 83.2131 7.29598C83.2888 7.41703 83.3191 7.67426 83.3039 8.06767C83.2888 8.46108 83.2585 8.93772 83.2131 9.49757C83.1677 10.0574 83.1147 10.6551 83.0542 11.2906C83.0088 11.911 82.9407 12.6449 82.8499 13.4922C82.7591 14.3395 82.6683 15.2247 82.5775 16.1477C82.5018 17.0707 82.4412 17.9635 82.3958 18.8259C82.3504 19.6733 82.3504 20.4147 82.3958 21.0502C82.411 21.1864 82.411 21.315 82.3958 21.4361C82.3807 21.5571 82.3731 21.6555 82.3731 21.7311C82.2823 21.8219 82.131 21.8597 81.9191 21.8446C81.7223 21.8446 81.5256 21.7992 81.3288 21.7084C81.1472 21.6176 81.0413 21.5042 81.011 21.368C80.9656 21.3226 80.9353 21.2621 80.9202 21.1864C80.9202 21.0956 80.9278 20.914 80.9429 20.6417C80.958 20.3693 80.9732 19.9381 80.9883 19.348L81.1018 15.6711L80.8067 15.6938C80.6705 15.6938 80.4132 15.7089 80.0348 15.7392C79.6565 15.7694 79.2478 15.8148 78.8089 15.8754C78.37 15.9207 77.9614 15.9737 77.583 16.0342C77.2198 16.0796 76.97 16.125 76.8338 16.1704C76.6976 16.1704 76.5311 16.2612 76.3344 16.4428C76.1528 16.6243 75.9787 16.8589 75.8122 17.1464C75.7517 17.3582 75.6382 17.5852 75.4717 17.8273C75.3203 18.0542 75.2447 18.2056 75.2447 18.2812C75.1387 18.3569 75.0479 18.4477 74.9722 18.5536C74.9117 18.6595 74.8814 18.7125 74.8814 18.7125C74.8814 18.8032 74.8058 19.0302 74.6544 19.3934C74.5182 19.7414 74.3442 20.1348 74.1323 20.5736C73.9204 20.9973 73.7085 21.368 73.4966 21.6857L73.0199 22.412L72.6566 22.1397ZM77.356 14.8313C77.356 14.8313 77.4316 14.8162 77.583 14.7859C77.7495 14.7557 77.9387 14.7254 78.1505 14.6951C78.3776 14.6497 78.5819 14.627 78.7635 14.627C79.3992 14.4757 79.8608 14.3774 80.1483 14.332C80.4359 14.2715 80.6326 14.2412 80.7386 14.2412C80.8597 14.2412 80.9656 14.2639 81.0564 14.3093C81.117 14.3849 81.1699 14.4303 81.2153 14.4455C81.2759 14.4606 81.3061 14.4682 81.3061 14.4682C81.3213 14.4379 81.344 14.2639 81.3742 13.9461C81.4045 13.6284 81.4424 13.235 81.4878 12.7659C81.5483 12.2968 81.6013 11.8126 81.6467 11.3133C81.7072 10.7989 81.7526 10.3298 81.7829 9.90611C81.8132 9.46731 81.8359 9.13442 81.851 8.90745C81.8661 8.61996 81.8813 8.36273 81.8964 8.13576C81.9115 7.89367 81.9191 7.77262 81.9191 7.77262C81.8283 7.77262 81.6315 7.93906 81.3288 8.27195C81.0413 8.60483 80.7159 9.04363 80.3527 9.58836C79.9894 10.1331 79.6489 10.7156 79.3311 11.336C79.1797 11.6235 79.0359 11.8807 78.8997 12.1077C78.7635 12.3347 78.6576 12.4481 78.5819 12.4481C78.5516 12.4784 78.4608 12.6146 78.3095 12.8567C78.1732 13.0837 78.0219 13.3485 77.8554 13.6511C77.6889 13.9386 77.5527 14.2034 77.4468 14.4455C77.3408 14.6724 77.3106 14.801 77.356 14.8313Z" fill="#7346F3"/>
<path d="M86.5493 21.141C86.1104 21.2167 85.7093 21.194 85.3461 21.0729C84.9828 20.9367 84.6877 20.7173 84.4607 20.4147C84.2488 20.097 84.1428 19.696 84.1428 19.2118C84.0974 18.7578 84.1504 18.2358 84.3018 17.6457C84.4531 17.0405 84.6726 16.4352 84.9601 15.83C85.2628 15.2247 85.5882 14.7027 85.9363 14.2639C86.239 13.9007 86.5417 13.5679 86.8444 13.2652C87.1471 12.9626 87.4195 12.7583 87.6617 12.6524C87.8736 12.5616 88.0703 12.5087 88.2519 12.4935C88.4487 12.4633 88.6076 12.4481 88.7287 12.4481C88.9708 12.5087 89.2281 12.6222 89.5005 12.7886C89.7881 12.9399 89.9319 13.1064 89.9319 13.2879C89.9319 13.2879 89.947 13.3106 89.9773 13.356C90.0227 13.3863 90.0454 13.4014 90.0454 13.4014C90.1362 13.4014 90.2119 13.4998 90.2724 13.6965C90.3481 13.8932 90.3935 14.1201 90.4086 14.3774C90.4238 14.6195 90.3859 14.8237 90.2951 14.9902C90.2346 15.2777 90.1286 15.5273 89.9773 15.7392C89.8259 15.951 89.6897 16.0569 89.5687 16.0569C89.5081 16.0569 89.4476 16.0645 89.387 16.0796C89.3416 16.0796 89.3189 16.1175 89.3189 16.1931C89.3189 16.2688 89.2735 16.299 89.1827 16.2839C89.107 16.2688 89.0238 16.2234 88.933 16.1477C88.8422 16.0569 88.7741 15.951 88.7287 15.83C88.7287 15.7543 88.7589 15.6257 88.8195 15.4441C88.88 15.2625 88.9406 15.028 89.0011 14.7405C89.0919 14.3168 89.0843 14.0445 88.9784 13.9234C88.8725 13.7873 88.6681 13.7797 88.3654 13.9007C87.9871 14.1126 87.6238 14.4076 87.2757 14.7859C86.9428 15.1642 86.6325 15.656 86.3449 16.2612C86.0574 16.8513 85.8001 17.5927 85.5731 18.4855C85.4823 18.8335 85.4444 19.1361 85.4596 19.3934C85.4898 19.6506 85.5277 19.7868 85.5731 19.8019C85.785 19.8624 86.0725 19.8776 86.4358 19.8473C86.799 19.8019 87.0639 19.7338 87.2303 19.643C87.4725 19.522 87.7449 19.3631 88.0476 19.1664C88.3503 18.9545 88.6152 18.7654 88.8422 18.599C88.9179 18.5536 89.0087 18.4779 89.1146 18.372C89.2206 18.2661 89.3341 18.1829 89.4551 18.1223C89.5762 17.9408 89.6822 17.8348 89.773 17.8046C89.8638 17.7743 90 17.7592 90.1816 17.7592C90.3027 17.7894 90.4162 17.8348 90.5221 17.8954C90.6281 17.9559 90.6962 18.0164 90.7265 18.0769C90.7719 18.1375 90.7492 18.1904 90.6584 18.2358C90.5978 18.2358 90.56 18.2585 90.5448 18.3039C90.5448 18.3342 90.5448 18.3493 90.5448 18.3493C90.5751 18.4098 90.507 18.5384 90.3405 18.7351C90.1892 18.9167 89.9924 19.121 89.7503 19.348C89.5081 19.5749 89.2735 19.7716 89.0465 19.9381C88.8346 20.0894 88.6833 20.165 88.5925 20.165C88.4411 20.165 88.3654 20.2104 88.3654 20.3012C88.3654 20.3315 88.2519 20.4071 88.0249 20.5282C87.813 20.6492 87.5633 20.7703 87.2757 20.8913C87.0033 21.0124 86.7612 21.0956 86.5493 21.141Z" fill="#7346F3"/>
<path d="M91.6225 20.5736C91.5619 20.4525 91.4863 20.3617 91.3955 20.3012C91.3047 20.2256 91.2593 20.1575 91.2593 20.097C91.2593 20.0364 91.2517 19.9759 91.2365 19.9154C91.2365 19.8397 91.2063 19.7716 91.1457 19.7111C91.0701 19.6203 91.0776 19.4161 91.1684 19.0983C91.2593 18.7654 91.4106 18.3644 91.6225 17.8954C91.8344 17.4112 92.0841 16.9043 92.3717 16.3747C92.4927 16.2536 92.6138 16.0948 92.7349 15.8981C92.856 15.7013 92.9468 15.5727 93.0073 15.5122C93.0073 15.4517 93.03 15.3987 93.0754 15.3533C93.1208 15.2928 93.1738 15.2625 93.2343 15.2625V15.1264C93.2343 15.0507 93.3024 14.9221 93.4387 14.7405C93.59 14.5589 93.7716 14.3622 93.9835 14.1504C94.1954 13.9234 94.4148 13.7116 94.6419 13.5149C94.8689 13.3031 95.0581 13.1517 95.2094 13.061C95.5272 12.8491 95.8526 12.7205 96.1856 12.6751C96.5337 12.6297 96.8288 12.7054 97.071 12.9021C97.1164 12.9475 97.1921 13.0231 97.298 13.1291C97.404 13.235 97.525 13.356 97.6612 13.4922C97.8126 13.6132 97.9639 13.7419 98.1153 13.878L98.9553 14.627L98.5466 15.7619C98.3499 16.3671 98.2969 16.8967 98.3877 17.3506C98.4937 17.8046 98.645 18.198 98.8418 18.5309C98.9174 18.6973 99.0688 18.8562 99.2958 19.0075C99.538 19.1588 99.765 19.2496 99.9769 19.2799C100.098 19.295 100.211 19.3404 100.317 19.416C100.423 19.4917 100.476 19.6128 100.476 19.7792C100.476 19.9305 100.446 20.0516 100.386 20.1423C100.325 20.2331 100.219 20.2937 100.068 20.3239C99.5682 20.3844 99.0991 20.2634 98.6601 19.9608C98.2364 19.6581 97.8429 19.1588 97.4796 18.4628C97.4191 18.372 97.3359 18.2056 97.2299 17.9635C97.1391 17.7062 97.0861 17.5398 97.071 17.4641C97.0105 17.5398 96.8969 17.6835 96.7305 17.8954C96.564 18.0921 96.4353 18.2358 96.3445 18.3266C95.27 19.4161 94.3392 20.1499 93.5522 20.5282C92.7803 20.8913 92.1371 20.9065 91.6225 20.5736ZM92.4398 19.3026C92.4398 19.4085 92.5987 19.4085 92.9165 19.3026C93.2495 19.1815 93.6051 18.9697 93.9835 18.6671C94.4981 18.2283 95.0127 17.7441 95.5272 17.2145C96.057 16.6849 96.4807 16.1931 96.7986 15.7392L97.298 14.9221C97.1467 14.5741 96.9802 14.3395 96.7986 14.2185C96.6321 14.0823 96.4883 14.0142 96.3672 14.0142C96.1705 14.0142 95.8753 14.1958 95.4818 14.5589C95.1035 14.9221 94.6948 15.4063 94.2559 16.0115C93.817 16.6168 93.4008 17.2826 93.0073 18.0089C92.856 18.3115 92.7198 18.6065 92.5987 18.894C92.4927 19.1664 92.4398 19.3026 92.4398 19.3026Z" fill="#7346F3"/>
<path d="M106.504 21.1637C106.444 21.1637 106.353 21.1561 106.232 21.141C106.126 21.1107 106.035 21.0427 105.959 20.9367C105.732 20.6644 105.589 20.4374 105.528 20.2558C105.468 20.0743 105.46 19.8095 105.505 19.4614C105.536 19.2345 105.551 19.0378 105.551 18.8713C105.566 18.6898 105.581 18.5384 105.596 18.4174C105.536 18.3569 105.422 18.4023 105.256 18.5536C105.104 18.6898 104.892 18.8638 104.62 19.0756C104.105 19.6657 103.644 20.1196 103.235 20.4374C102.842 20.74 102.486 20.9443 102.168 21.0502C101.85 21.141 101.548 21.1713 101.26 21.141C101.003 21.1107 100.798 21.0048 100.647 20.8232C100.496 20.6265 100.397 20.3769 100.352 20.0743C100.322 19.7716 100.322 19.4463 100.352 19.0983C100.413 18.599 100.518 18.1223 100.67 17.6684C100.836 17.2145 101.101 16.7076 101.464 16.1477C101.631 15.8451 101.85 15.55 102.123 15.2625C102.41 14.9599 102.721 14.6951 103.054 14.4682C103.402 14.2261 103.735 14.0521 104.052 13.9461C104.401 13.81 104.756 13.7343 105.119 13.7192C105.483 13.6889 105.808 13.7192 106.096 13.81C106.277 13.9007 106.421 13.9461 106.527 13.9461C106.648 13.9461 106.739 13.8705 106.799 13.7192C106.875 13.5981 106.951 13.4165 107.026 13.1744C107.102 12.9172 107.193 12.6978 107.299 12.5162L107.798 11.0409C107.965 10.6324 108.146 10.2012 108.343 9.74723C108.54 9.2933 108.774 8.74101 109.047 8.09037C109.304 7.60617 109.516 7.32625 109.683 7.25059C109.849 7.1598 110.038 7.22033 110.25 7.43217C110.417 7.62887 110.477 7.85584 110.432 8.11307C110.386 8.35517 110.25 8.74858 110.023 9.2933C109.917 9.45974 109.826 9.61862 109.751 9.76993C109.675 9.90611 109.569 10.1255 109.433 10.4281C109.236 10.8972 109.054 11.3209 108.888 11.6992C108.722 12.0623 108.547 12.4784 108.366 12.9475C108.305 13.1896 108.222 13.4695 108.116 13.7873C108.025 14.105 107.95 14.3925 107.889 14.6497C107.844 14.8918 107.791 15.1188 107.73 15.3306C107.685 15.5273 107.632 15.6257 107.571 15.6257C107.45 15.7619 107.337 16.004 107.231 16.352C107.125 16.6849 107.034 17.0329 106.958 17.396C106.898 17.7592 106.845 18.0618 106.799 18.3039C106.769 18.4855 106.746 18.72 106.731 19.0075C106.716 19.295 106.709 19.5749 106.709 19.8473C106.709 20.1045 106.709 20.2861 106.709 20.392C106.709 20.7249 106.701 20.9367 106.686 21.0275C106.671 21.1183 106.61 21.1637 106.504 21.1637ZM101.669 19.7338C101.987 19.7338 102.319 19.5976 102.668 19.3253C103.031 19.0529 103.394 18.7503 103.757 18.4174C103.984 18.2056 104.226 17.9256 104.484 17.5776C104.756 17.2296 105.013 16.8816 105.256 16.5336C105.513 16.1855 105.717 15.8829 105.869 15.6257C106.02 15.3533 106.096 15.1869 106.096 15.1264C106.096 15.0507 106.028 14.9977 105.891 14.9675C105.755 14.9372 105.596 14.9221 105.415 14.9221C105.248 14.907 105.112 14.9145 105.006 14.9448C104.673 15.0204 104.34 15.1718 104.007 15.3987C103.689 15.6257 103.341 15.9661 102.963 16.4201C102.569 16.9043 102.244 17.4036 101.987 17.9181C101.744 18.4325 101.593 18.8638 101.532 19.2118C101.472 19.5598 101.517 19.7338 101.669 19.7338Z" fill="#7346F3"/>
<path d="M111.103 21.4588C110.437 21.4588 109.892 21.2091 109.469 20.7098C109.045 20.1953 108.841 19.5598 108.856 18.8032C108.886 18.2585 108.992 17.676 109.174 17.0556C109.37 16.4201 109.628 15.8148 109.945 15.2398C110.263 14.6497 110.611 14.1353 110.99 13.6965C111.368 13.2577 111.762 12.9475 112.17 12.7659C112.322 12.6902 112.48 12.6297 112.647 12.5843C112.829 12.5389 113.01 12.5162 113.192 12.5162C113.358 12.5162 113.532 12.5465 113.714 12.607C113.896 12.6524 114.047 12.7054 114.168 12.7659C114.425 12.8718 114.622 13.0004 114.758 13.1517C114.894 13.3031 115.016 13.5376 115.121 13.8553C115.167 14.1428 115.19 14.3471 115.19 14.4682C115.19 14.5892 115.152 14.7708 115.076 15.0129C114.894 15.5576 114.66 16.0267 114.372 16.4201C114.085 16.8135 113.699 17.1464 113.215 17.4187C113.093 17.4944 112.95 17.5549 112.783 17.6003C112.632 17.6306 112.473 17.6457 112.306 17.6457C112.004 17.6457 111.709 17.5927 111.421 17.4868C111.149 17.3658 110.929 17.1918 110.763 16.9648L110.604 16.7832L110.536 16.9648C110.384 17.3733 110.263 17.7516 110.172 18.0996C110.097 18.4477 110.059 18.7654 110.059 19.0529C110.059 19.2345 110.074 19.4085 110.104 19.5749C110.15 19.7414 110.21 19.8851 110.286 20.0062C110.346 20.097 110.445 20.165 110.581 20.2104C110.732 20.2407 110.891 20.2558 111.058 20.2558C111.164 20.2558 111.27 20.2558 111.376 20.2558C111.497 20.2407 111.61 20.2104 111.716 20.165C111.973 20.0743 112.178 19.9759 112.329 19.87C112.496 19.7641 112.662 19.6506 112.829 19.5295L112.919 19.4841H112.897C113.078 19.3934 113.237 19.3026 113.373 19.2118C113.525 19.121 113.6 19.0756 113.6 19.0756C113.661 19.0756 113.722 19.0378 113.782 18.9621C113.903 18.9016 114.054 18.9243 114.236 19.0302C114.433 19.1361 114.531 19.2723 114.531 19.4387C114.516 19.5144 114.448 19.6355 114.327 19.8019C114.206 19.9532 114.07 20.097 113.918 20.2331C113.782 20.3693 113.669 20.445 113.578 20.4601C113.563 20.4752 113.51 20.5055 113.419 20.5509C113.328 20.5812 113.267 20.6114 113.237 20.6417H113.26C113.124 20.8232 112.987 20.914 112.851 20.914H112.67C112.609 21.02 112.412 21.141 112.079 21.2772C111.746 21.3982 111.421 21.4588 111.103 21.4588ZM112.125 16.4655C112.397 16.4655 112.632 16.3898 112.829 16.2385C113.04 16.0721 113.222 15.8905 113.373 15.6938C113.676 15.2852 113.85 14.8918 113.896 14.5136C113.956 14.1201 113.911 13.8478 113.759 13.6965C113.669 13.6511 113.585 13.6284 113.51 13.6284C113.449 13.6132 113.32 13.6359 113.124 13.6965C112.987 13.7267 112.798 13.8402 112.556 14.0369C112.314 14.2336 112.072 14.453 111.83 14.6951C111.603 14.9372 111.429 15.1415 111.308 15.3079L111.012 15.7846C111.133 15.7392 111.247 15.7165 111.353 15.7165C111.474 15.7013 111.542 15.7089 111.557 15.7392C111.557 15.8754 111.58 16.004 111.625 16.125C111.686 16.2309 111.754 16.3142 111.83 16.3747C111.92 16.4352 112.019 16.4655 112.125 16.4655Z" fill="#7346F3"/>
<path d="M116.692 20.2785C116.526 20.1726 116.375 20.0364 116.238 19.87C116.102 19.6884 116.034 19.4614 116.034 19.1891C116.034 19.0378 116.064 18.7805 116.125 18.4174C116.185 18.0542 116.269 17.6457 116.375 17.1918C116.48 16.7378 116.586 16.3142 116.692 15.9208C116.844 15.6484 116.972 15.376 117.078 15.1037C117.184 14.8313 117.237 14.6649 117.237 14.6043C117.267 14.4228 117.305 14.2109 117.351 13.9688C117.411 13.7267 117.472 13.5073 117.532 13.3106C117.593 13.1139 117.638 13.0004 117.669 12.9702C117.744 12.8945 117.835 12.8491 117.941 12.834C118.047 12.8037 118.153 12.8189 118.259 12.8794C118.38 12.9248 118.471 13.0231 118.531 13.1744C118.698 13.356 118.781 13.5754 118.781 13.8327C118.781 14.0747 118.698 14.4379 118.531 14.9221C118.395 15.2247 118.259 15.5803 118.123 15.9888C117.986 16.3974 117.865 16.7757 117.759 17.1237C117.669 17.4566 117.616 17.6835 117.6 17.8046L117.146 17.9408C117.404 17.6987 117.646 17.449 117.873 17.1918C118.1 16.9194 118.266 16.7076 118.372 16.5563C118.63 16.2082 118.849 15.9208 119.031 15.6938C119.227 15.4517 119.477 15.1642 119.78 14.8313C120.083 14.4833 120.378 14.2715 120.665 14.1958C120.968 14.105 121.203 14.0596 121.369 14.0596C121.702 14.1201 121.967 14.2941 122.164 14.5816C122.375 14.854 122.512 15.2625 122.572 15.8073C122.572 16.0191 122.55 16.2688 122.504 16.5563C122.474 16.8438 122.459 16.9875 122.459 16.9875C122.459 16.9875 122.58 16.8286 122.822 16.5109C123.079 16.1931 123.42 15.8451 123.844 15.4668C124.131 15.255 124.411 15.1339 124.684 15.1037C124.956 15.0583 125.198 15.1491 125.41 15.376C125.803 15.5879 126.061 15.9132 126.182 16.352C126.303 16.7757 126.333 17.3204 126.273 17.9862C126.227 18.3796 126.22 18.6746 126.25 18.8713C126.28 19.0529 126.326 19.2345 126.386 19.416C126.507 19.4766 126.53 19.6052 126.454 19.8019C126.379 19.9835 126.288 20.0743 126.182 20.0743C126.031 20.0743 125.856 20.044 125.66 19.9835C125.478 19.9229 125.312 19.8246 125.16 19.6884C125.024 19.5371 124.956 19.3328 124.956 19.0756V17.6684C124.956 17.3355 124.941 17.0632 124.911 16.8513C124.895 16.6395 124.858 16.5109 124.797 16.4655C124.631 16.3747 124.388 16.473 124.071 16.7605C123.753 17.048 123.412 17.4339 123.049 17.9181C122.686 18.4023 122.345 18.9016 122.027 19.416C121.74 19.8851 121.558 20.1575 121.483 20.2331C121.422 20.2937 121.308 20.271 121.142 20.165C120.809 20.0591 120.597 19.9154 120.506 19.7338C120.431 19.5371 120.423 19.3177 120.484 19.0756C120.559 18.8184 120.65 18.4704 120.756 18.0315C120.877 17.5927 120.991 17.1691 121.097 16.7605C121.203 16.3369 121.271 16.0342 121.301 15.8527C121.24 15.7316 121.134 15.6938 120.983 15.7392C120.847 15.7694 120.703 15.8375 120.552 15.9434C120.37 16.0645 120.151 16.2915 119.893 16.6243C119.636 16.9572 119.371 17.3431 119.099 17.7819C118.917 18.0694 118.728 18.3569 118.531 18.6444C118.334 18.9167 118.153 19.1588 117.986 19.3707C117.82 19.5825 117.676 19.7414 117.555 19.8473C117.343 20.1802 117.199 20.3617 117.124 20.392C117.048 20.4223 116.904 20.3844 116.692 20.2785Z" fill="#7346F3"/>
<path d="M127.171 25.9073C126.808 26.0132 126.407 26.0284 125.968 25.9527C125.544 25.8922 125.173 25.7636 124.855 25.5669C124.522 25.3702 124.333 25.1508 124.288 24.9087C124.273 24.8179 124.303 24.7195 124.379 24.6136C124.439 24.5077 124.522 24.432 124.628 24.3866C124.719 24.3564 124.802 24.3866 124.878 24.4774C124.999 24.5531 125.219 24.6439 125.536 24.7498C125.854 24.8708 126.21 24.8935 126.603 24.8179C126.952 24.7422 127.292 24.538 127.625 24.2051C127.973 23.8722 128.253 23.562 128.465 23.2745C128.586 23.0929 128.79 22.7676 129.078 22.2985C129.366 21.8295 129.661 21.315 129.963 20.7552C130.281 20.1802 130.546 19.6506 130.758 19.1664C130.803 19.0453 130.856 18.9016 130.917 18.7351C130.977 18.5687 131.053 18.4325 131.144 18.3266C131.235 18.145 131.31 17.9786 131.371 17.8273C131.447 17.6608 131.492 17.5474 131.507 17.4868C131.522 17.4112 131.59 17.2599 131.711 17.0329C131.832 16.8059 131.946 16.579 132.052 16.352C132.128 16.125 132.241 15.7921 132.392 15.3533C132.544 14.9145 132.695 14.5589 132.847 14.2866C133.028 13.9386 133.172 13.6586 133.278 13.4468C133.399 13.2198 133.528 13.0837 133.664 13.0383C133.8 12.9323 133.891 12.8794 133.936 12.8794C133.997 12.8794 134.11 12.9248 134.277 13.0156C134.458 13.1971 134.572 13.3787 134.617 13.5603C134.663 13.7267 134.64 13.9386 134.549 14.1958C134.474 14.4379 134.322 14.7708 134.095 15.1945C133.974 15.5576 133.838 15.8905 133.687 16.1931C133.55 16.4806 133.444 16.6697 133.369 16.7605C133.293 16.9421 133.202 17.1464 133.096 17.3733C133.005 17.5852 132.922 17.7819 132.847 17.9635C132.574 18.5687 132.34 19.0605 132.143 19.4387C131.946 19.817 131.772 20.165 131.621 20.4828C131.469 20.8006 131.31 21.1713 131.144 21.5949C130.796 22.1548 130.455 22.6844 130.122 23.1837C129.804 23.6982 129.464 24.1748 129.101 24.6136C128.949 24.7498 128.76 24.9087 128.533 25.0902C128.306 25.2718 128.072 25.4383 127.829 25.5896C127.602 25.7409 127.383 25.8468 127.171 25.9073ZM130.236 20.4601C130.009 20.4298 129.782 20.2937 129.555 20.0516C129.343 19.8095 129.176 19.5522 129.055 19.2799C128.934 19.0075 128.889 18.8108 128.919 18.6898C128.919 18.6141 128.919 18.5536 128.919 18.5082C128.919 18.4628 128.919 18.4401 128.919 18.4401C128.828 18.4401 128.745 18.3266 128.669 18.0996C128.609 17.8727 128.563 17.5776 128.533 17.2145C128.503 16.8513 128.48 16.4655 128.465 16.0569C128.465 15.6484 128.48 15.2625 128.51 14.8994C128.571 14.6422 128.601 14.3622 128.601 14.0596C128.601 13.7419 128.609 13.4922 128.624 13.3106C128.609 13.0685 128.632 12.9096 128.692 12.834C128.753 12.7432 128.813 12.6751 128.874 12.6297C129.297 12.4481 129.577 12.5616 129.714 12.9702C129.865 13.3636 129.903 14.105 129.827 15.1945C129.797 15.7997 129.797 16.4049 129.827 17.0102C129.857 17.6154 129.941 18.145 130.077 18.599C130.228 19.0529 130.433 19.3631 130.69 19.5295C130.796 19.5901 130.849 19.6733 130.849 19.7792C130.849 19.8851 130.818 19.9986 130.758 20.1196C130.697 20.2256 130.614 20.3164 130.508 20.392C130.417 20.4525 130.327 20.4752 130.236 20.4601Z" fill="#7346F3"/>
</g>
<g filter="url(#filter1_d_3358_50455)">
<path fill-rule="evenodd" clip-rule="evenodd" d="M13 19.1345H29.3691V9.36914H13V19.1345Z" fill="#5721F2"/>
</g>
<g clip-path="url(#clip0_3358_50455)">
<path fill-rule="evenodd" clip-rule="evenodd" d="M21.2287 22.271C21.1503 22.1939 21.1113 22.0944 21.1113 21.9701V6.59997C21.1113 6.47671 21.1503 6.3768 21.2287 6.29904C21.3068 6.22207 21.4084 6.18359 21.5336 6.18359H24.5829C24.7078 6.18359 24.809 6.22207 24.8878 6.29904C24.9658 6.3768 25.0048 6.47671 25.0048 6.59997V21.9701C25.0048 22.0944 24.9658 22.1939 24.8878 22.271C24.809 22.3487 24.7078 22.3868 24.5829 22.3868H21.5336C21.4084 22.3868 21.3068 22.3487 21.2287 22.271Z" fill="#EEEFF5"/>
<path fill-rule="evenodd" clip-rule="evenodd" d="M27.4666 22.271C27.3882 22.1939 27.3496 22.0944 27.3496 21.9701V6.59997C27.3496 6.47671 27.3882 6.3768 27.4666 6.29904C27.545 6.22207 27.6463 6.18359 27.7715 6.18359H30.6564C30.8754 6.18359 31.0394 6.27609 31.1493 6.46118L36.3092 15.0724C36.3403 15.1341 36.3793 15.157 36.4262 15.1415C36.4727 15.1264 36.4971 15.0801 36.4971 15.0027L36.4727 6.59997C36.4727 6.47671 36.5121 6.3768 36.5902 6.29904C36.6689 6.22207 36.7705 6.18359 36.895 6.18359H39.897C40.023 6.18359 40.1247 6.22207 40.2019 6.29904C40.2806 6.3768 40.3193 6.47671 40.3193 6.59997V21.9701C40.3193 22.0944 40.2806 22.1939 40.2019 22.271C40.1247 22.3487 40.023 22.3868 39.897 22.3868H37.0125C36.8091 22.3868 36.6452 22.2943 36.52 22.1093L31.36 13.3822C31.3285 13.3052 31.2859 13.2745 31.2312 13.2897C31.1761 13.3052 31.1493 13.3515 31.1493 13.4289L31.1961 21.9701C31.1961 22.0944 31.1567 22.1939 31.0787 22.271C31.0003 22.3487 30.8987 22.3868 30.7738 22.3868H27.7715C27.6463 22.3868 27.545 22.3487 27.4666 22.271Z" fill="#EEEFF5"/>
<path fill-rule="evenodd" clip-rule="evenodd" d="M46.7947 22.0393L42.1272 6.64657C42.1113 6.59997 42.1035 6.54636 42.1035 6.48453C42.1035 6.2839 42.2288 6.18359 42.4786 6.18359H45.7861C46.0359 6.18359 46.192 6.30715 46.255 6.55377L48.9055 16.8317C48.9362 16.8931 48.9714 16.9242 49.0107 16.9242C49.0493 16.9242 49.0773 16.8931 49.093 16.8317L51.6963 6.55377C51.7585 6.30715 51.9153 6.18359 52.1652 6.18359H55.4018C55.5586 6.18359 55.6681 6.22207 55.7304 6.29904C55.7926 6.3768 55.8004 6.49224 55.7539 6.64657L51.0399 22.0393C50.9769 22.271 50.813 22.3868 50.5467 22.3868H47.2635C47.013 22.3868 46.8569 22.271 46.7947 22.0393Z" fill="#EEEFF5"/>
<mask id="mask0_3358_50455" style="mask-type:alpha" maskUnits="userSpaceOnUse" x="56" y="6" width="14" height="17">
<path d="M56.3867 6H69.1697V22.6426H56.3867V6Z" fill="white"/>
</mask>
<g mask="url(#mask0_3358_50455)">
<path fill-rule="evenodd" clip-rule="evenodd" d="M64.5844 18.6387C65.0454 18.1598 65.2759 17.5198 65.2759 16.7173V11.9257C65.2759 11.1388 65.0454 10.5019 64.5844 10.0159C64.1228 9.52991 63.5173 9.2869 62.7664 9.2869C62.0312 9.2869 61.4329 9.52991 60.9719 10.0159C60.511 10.5019 60.2805 11.1388 60.2805 11.9257V16.7173C60.2805 17.5198 60.511 18.1598 60.9719 18.6387C61.4329 19.1169 62.0312 19.3564 62.7664 19.3564C63.5173 19.3564 64.1228 19.1169 64.5844 18.6387ZM59.4244 21.8911C58.4625 21.3895 57.7159 20.683 57.1841 19.7725C56.6522 18.862 56.3867 17.8052 56.3867 16.6015V11.972C56.3867 10.7994 56.6522 9.7613 57.1841 8.8585C57.7159 7.95571 58.4625 7.25393 59.4244 6.75198C60.3857 6.25073 61.5002 6 62.7664 6C64.0333 6 65.1506 6.25073 66.1205 6.75198C67.0896 7.25393 67.8404 7.95571 68.3723 8.8585C68.9035 9.7613 69.1697 10.7994 69.1697 11.972V16.6015C69.1697 17.8052 68.9035 18.862 68.3723 19.7725C67.8404 20.683 67.0896 21.3895 66.1205 21.8911C65.1506 22.3919 64.0333 22.6426 62.7664 22.6426C61.5002 22.6426 60.3857 22.3919 59.4244 21.8911Z" fill="#EEEFF5"/>
</g>
</g>
<defs>
<filter id="filter0_d_3358_50455" x="60.6812" y="0.24" width="77.7995" height="35.36" filterUnits="userSpaceOnUse" color-interpolation-filters="sRGB">
<feFlood flood-opacity="0" result="BackgroundImageFix"/>
<feColorMatrix in="SourceAlpha" type="matrix" values="0 0 0 0 0 0 0 0 0 0 0 0 0 0 0 0 0 0 127 0" result="hardAlpha"/>
<feOffset dx="-3.84" dy="1.92"/>
<feGaussianBlur stdDeviation="3.84"/>
<feComposite in2="hardAlpha" operator="out"/>
<feColorMatrix type="matrix" values="0 0 0 0 0.341176 0 0 0 0 0.129412 0 0 0 0 0.94902 0 0 0 1 0"/>
<feBlend mode="normal" in2="BackgroundImageFix" result="effect1_dropShadow_3358_50455"/>
<feBlend mode="normal" in="SourceGraphic" in2="effect1_dropShadow_3358_50455" result="shape"/>
</filter>
<filter id="filter1_d_3358_50455" x="0.199667" y="1.36893" width="35.5696" height="28.9661" filterUnits="userSpaceOnUse" color-interpolation-filters="sRGB">
<feFlood flood-opacity="0" result="BackgroundImageFix"/>
<feColorMatrix in="SourceAlpha" type="matrix" values="0 0 0 0 0 0 0 0 0 0 0 0 0 0 0 0 0 0 127 0" result="hardAlpha"/>
<feOffset dx="-3.20008" dy="1.60004"/>
<feGaussianBlur stdDeviation="4.80013"/>
<feComposite in2="hardAlpha" operator="out"/>
<feColorMatrix type="matrix" values="0 0 0 0 0.341176 0 0 0 0 0.129412 0 0 0 0 0.94902 0 0 0 0.55 0"/>
<feBlend mode="normal" in2="BackgroundImageFix" result="effect1_dropShadow_3358_50455"/>
<feBlend mode="normal" in="SourceGraphic" in2="effect1_dropShadow_3358_50455" result="shape"/>
</filter>
<clipPath id="clip0_3358_50455">
<rect width="56.2523" height="16.7351" fill="white" transform="translate(13 6)"/>
</clipPath>
</defs>
</svg>
