<svg width="32" height="32" viewBox="0 0 32 32" fill="none" xmlns="http://www.w3.org/2000/svg">
<path d="M13.3339 22.6667H18.6672C21.3472 22.6667 21.8272 21.5933 21.9672 20.2867L22.4672 14.9533C22.6472 13.3267 22.1805 12 19.3339 12H12.6672C9.82054 12 9.35387 13.3267 9.53387 14.9533L10.0339 20.2867C10.1739 21.5933 10.6539 22.6667 13.3339 22.6667Z" stroke="#9621F2" stroke-miterlimit="10" stroke-linecap="round" stroke-linejoin="round"/>
<path d="M13.333 11.9997V11.4663C13.333 10.2863 13.333 9.33301 15.4663 9.33301H16.533C18.6663 9.33301 18.6663 10.2863 18.6663 11.4663V11.9997" stroke="#9621F2" stroke-miterlimit="10" stroke-linecap="round" stroke-linejoin="round"/>
<path d="M17.3337 16.6667V17.3333C17.3337 17.34 17.3337 17.34 17.3337 17.3467C17.3337 18.0733 17.327 18.6667 16.0003 18.6667C14.6803 18.6667 14.667 18.08 14.667 17.3533V16.6667C14.667 16 14.667 16 15.3337 16H16.667C17.3337 16 17.3337 16 17.3337 16.6667Z" stroke="#9621F2" stroke-miterlimit="10" stroke-linecap="round" stroke-linejoin="round"/>
<path d="M22.433 15.333C20.893 16.453 19.133 17.1197 17.333 17.3463" stroke="#9621F2" stroke-miterlimit="10" stroke-linecap="round" stroke-linejoin="round"/>
<path d="M9.74609 15.5127C11.2461 16.5394 12.9394 17.1594 14.6661 17.3527" stroke="#9621F2" stroke-miterlimit="10" stroke-linecap="round" stroke-linejoin="round"/>
<rect x="0.5" y="0.5" width="31" height="31" rx="7.5" stroke="#2F3337"/>
</svg>
