<svg width="32" height="32" viewBox="0 0 32 32" fill="none" xmlns="http://www.w3.org/2000/svg">
<rect width="32" height="32" rx="8" fill="#F27E21"/>
<g clip-path="url(#clip0_3300_53005)">
<path d="M9.33301 13.9141C9.33301 14.3807 9.57968 14.8141 9.97968 15.0541L14.973 18.0474C15.6063 18.4274 16.3997 18.4274 17.033 18.0474L22.0263 15.0541C22.4263 14.8141 22.673 14.3807 22.673 13.9141" stroke="#EEEFF5" stroke-miterlimit="10" stroke-linecap="round" stroke-linejoin="round"/>
<path d="M19.9997 10.667H11.9997C10.533 10.667 9.33301 11.867 9.33301 13.3337V18.667C9.33301 20.1337 10.533 21.3337 11.9997 21.3337H19.9997C21.4663 21.3337 22.6663 20.1337 22.6663 18.667V13.3337C22.6663 11.867 21.4663 10.667 19.9997 10.667Z" stroke="#EEEFF5" stroke-miterlimit="10" stroke-linecap="round" stroke-linejoin="round"/>
</g>
<defs>
<clipPath id="clip0_3300_53005">
<rect width="16" height="16" fill="white" transform="translate(8 8)"/>
</clipPath>
</defs>
</svg>
