<svg width="88" height="16" viewBox="0 0 88 16" fill="none" xmlns="http://www.w3.org/2000/svg">
<path d="M9.15327 2.34074L10.3266 4.68741C10.4866 5.01408 10.9133 5.32741 11.2733 5.38741L13.3999 5.74074C14.7599 5.96741 15.0799 6.95408 14.0999 7.92741L12.4466 9.58074C12.1666 9.86074 12.0133 10.4007 12.0999 10.7874L12.5733 12.8341C12.9466 14.4541 12.0866 15.0807 10.6533 14.2341L8.65994 13.0541C8.29994 12.8407 7.70661 12.8407 7.33994 13.0541L5.34661 14.2341C3.91994 15.0807 3.05327 14.4474 3.42661 12.8341L3.89994 10.7874C3.98661 10.4007 3.83327 9.86074 3.55327 9.58074L1.89994 7.92741C0.926606 6.95408 1.23994 5.96741 2.59994 5.74074L4.72661 5.38741C5.07994 5.32741 5.50661 5.01408 5.66661 4.68741L6.83994 2.34074C7.47994 1.06741 8.51994 1.06741 9.15327 2.34074Z" fill="#E6BE31"/>
<path d="M27.1533 2.34074L28.3266 4.68741C28.4866 5.01408 28.9133 5.32741 29.2733 5.38741L31.3999 5.74074C32.7599 5.96741 33.0799 6.95408 32.0999 7.92741L30.4466 9.58074C30.1666 9.86074 30.0133 10.4007 30.0999 10.7874L30.5733 12.8341C30.9466 14.4541 30.0866 15.0807 28.6533 14.2341L26.6599 13.0541C26.2999 12.8407 25.7066 12.8407 25.3399 13.0541L23.3466 14.2341C21.9199 15.0807 21.0533 14.4474 21.4266 12.8341L21.8999 10.7874C21.9866 10.4007 21.8333 9.86074 21.5533 9.58074L19.8999 7.92741C18.9266 6.95408 19.2399 5.96741 20.5999 5.74074L22.7266 5.38741C23.0799 5.32741 23.5066 5.01408 23.6666 4.68741L24.8399 2.34074C25.4799 1.06741 26.5199 1.06741 27.1533 2.34074Z" fill="#E6BE31"/>
<path d="M45.1533 2.34074L46.3266 4.68741C46.4866 5.01408 46.9133 5.32741 47.2733 5.38741L49.3999 5.74074C50.7599 5.96741 51.0799 6.95408 50.0999 7.92741L48.4466 9.58074C48.1666 9.86074 48.0133 10.4007 48.0999 10.7874L48.5733 12.8341C48.9466 14.4541 48.0866 15.0807 46.6533 14.2341L44.6599 13.0541C44.2999 12.8407 43.7066 12.8407 43.3399 13.0541L41.3466 14.2341C39.9199 15.0807 39.0533 14.4474 39.4266 12.8341L39.8999 10.7874C39.9866 10.4007 39.8333 9.86074 39.5533 9.58074L37.8999 7.92741C36.9266 6.95408 37.2399 5.96741 38.5999 5.74074L40.7266 5.38741C41.0799 5.32741 41.5066 5.01408 41.6666 4.68741L42.8399 2.34074C43.4799 1.06741 44.5199 1.06741 45.1533 2.34074Z" fill="#E6BE31"/>
<path d="M63.1533 2.34074L64.3266 4.68741C64.4866 5.01408 64.9133 5.32741 65.2733 5.38741L67.3999 5.74074C68.7599 5.96741 69.0799 6.95408 68.0999 7.92741L66.4466 9.58074C66.1666 9.86074 66.0133 10.4007 66.0999 10.7874L66.5733 12.8341C66.9466 14.4541 66.0866 15.0807 64.6533 14.2341L62.6599 13.0541C62.2999 12.8407 61.7066 12.8407 61.3399 13.0541L59.3466 14.2341C57.9199 15.0807 57.0533 14.4474 57.4266 12.8341L57.8999 10.7874C57.9866 10.4007 57.8333 9.86074 57.5533 9.58074L55.8999 7.92741C54.9266 6.95408 55.2399 5.96741 56.5999 5.74074L58.7266 5.38741C59.0799 5.32741 59.5066 5.01408 59.6666 4.68741L60.8399 2.34074C61.4799 1.06741 62.5199 1.06741 63.1533 2.34074Z" fill="#E6BE31"/>
<path d="M81.1533 2.34074L82.3266 4.68741C82.4866 5.01408 82.9133 5.32741 83.2733 5.38741L85.3999 5.74074C86.7599 5.96741 87.0799 6.95408 86.0999 7.92741L84.4466 9.58074C84.1666 9.86074 84.0133 10.4007 84.0999 10.7874L84.5733 12.8341C84.9466 14.4541 84.0866 15.0807 82.6533 14.2341L80.6599 13.0541C80.2999 12.8407 79.7066 12.8407 79.3399 13.0541L77.3466 14.2341C75.9199 15.0807 75.0533 14.4474 75.4266 12.8341L75.8999 10.7874C75.9866 10.4007 75.8333 9.86074 75.5533 9.58074L73.8999 7.92741C72.9266 6.95408 73.2399 5.96741 74.5999 5.74074L76.7266 5.38741C77.0799 5.32741 77.5066 5.01408 77.6666 4.68741L78.8399 2.34074C79.4799 1.06741 80.5199 1.06741 81.1533 2.34074Z" fill="#E6BE31"/>
</svg>
