<svg width="38" height="38" viewBox="0 0 38 38" fill="none" xmlns="http://www.w3.org/2000/svg">
<rect width="38" height="38" rx="10" fill="url(#paint0_linear_4214_75195)"/>
<path d="M13 25.667H25" stroke="white" stroke-width="1.25" stroke-linecap="round" stroke-linejoin="round"/>
<path d="M14.7333 16.5859H13.6667C13.3 16.5859 13 16.8859 13 17.2526V22.9993C13 23.3659 13.3 23.6659 13.6667 23.6659H14.7333C15.1 23.6659 15.4 23.3659 15.4 22.9993V17.2526C15.4 16.8859 15.1 16.5859 14.7333 16.5859Z" stroke="white" stroke-width="1.25" stroke-linecap="round" stroke-linejoin="round"/>
<path d="M19.5331 14.46H18.4665C18.0998 14.46 17.7998 14.76 17.7998 15.1266V23C17.7998 23.3666 18.0998 23.6666 18.4665 23.6666H19.5331C19.8998 23.6666 20.1998 23.3666 20.1998 23V15.1266C20.1998 14.76 19.8998 14.46 19.5331 14.46Z" stroke="white" stroke-width="1.25" stroke-linecap="round" stroke-linejoin="round"/>
<path d="M24.3334 12.333H23.2668C22.9001 12.333 22.6001 12.633 22.6001 12.9997V22.9997C22.6001 23.3663 22.9001 23.6663 23.2668 23.6663H24.3334C24.7001 23.6663 25.0001 23.3663 25.0001 22.9997V12.9997C25.0001 12.633 24.7001 12.333 24.3334 12.333Z" stroke="white" stroke-width="1.25" stroke-linecap="round" stroke-linejoin="round"/>
<defs>
<linearGradient id="paint0_linear_4214_75195" x1="0" y1="0" x2="38" y2="38" gradientUnits="userSpaceOnUse">
<stop stop-color="#292A2E"/>
<stop offset="1" stop-color="#41444A"/>
</linearGradient>
</defs>
</svg>
