<svg width="38" height="38" viewBox="0 0 38 38" fill="none" xmlns="http://www.w3.org/2000/svg">
<rect width="38" height="38" rx="10" fill="url(#paint0_linear_4214_75164)"/>
<path d="M18.9801 25.6663C22.662 25.6663 25.6468 22.6816 25.6468 18.9997C25.6468 15.3178 22.662 12.333 18.9801 12.333C15.2982 12.333 12.3135 15.3178 12.3135 18.9997C12.3135 22.6816 15.2982 25.6663 18.9801 25.6663Z" stroke="white" stroke-width="1.25" stroke-linecap="round" stroke-linejoin="round"/>
<path d="M19 22C20.6569 22 22 20.6569 22 19C22 17.3431 20.6569 16 19 16C17.3431 16 16 17.3431 16 19C16 20.6569 17.3431 22 19 22Z" stroke="white" stroke-width="1.25" stroke-linecap="round" stroke-linejoin="round"/>
<path d="M14.2666 14.2871L16.6266 16.6404" stroke="white" stroke-width="1.25" stroke-linecap="round" stroke-linejoin="round"/>
<path d="M14.2666 23.7137L16.6266 21.3604" stroke="white" stroke-width="1.25" stroke-linecap="round" stroke-linejoin="round"/>
<path d="M23.6998 23.7137L21.3398 21.3604" stroke="white" stroke-width="1.25" stroke-linecap="round" stroke-linejoin="round"/>
<path d="M23.6998 14.2871L21.3398 16.6404" stroke="white" stroke-width="1.25" stroke-linecap="round" stroke-linejoin="round"/>
<defs>
<linearGradient id="paint0_linear_4214_75164" x1="0" y1="0" x2="38" y2="38" gradientUnits="userSpaceOnUse">
<stop stop-color="#292A2E"/>
<stop offset="1" stop-color="#41444A"/>
</linearGradient>
</defs>
</svg>
