<svg width="64" height="64" viewBox="0 0 64 64" fill="none" xmlns="http://www.w3.org/2000/svg">
<rect width="64" height="64" rx="16" fill="#6921F2"/>
<path d="M44.8796 29.9197L43.5729 35.493C42.4529 40.3064 40.2396 42.253 36.0796 41.853C35.4129 41.7997 34.6929 41.6797 33.9196 41.493L31.6796 40.9597C26.1196 39.6397 24.3996 36.893 25.7063 31.3197L27.0129 25.733C27.2796 24.5997 27.5996 23.613 27.9996 22.7997C29.5596 19.573 32.2129 18.7064 36.6663 19.7597L38.8929 20.2797C44.4796 21.5864 46.1863 24.3464 44.8796 29.9197Z" stroke="#EEEFF5" stroke-width="2" stroke-linecap="round" stroke-linejoin="round"/>
<path d="M32.8538 27.3731L39.3205 29.0131M31.5471 32.5331L35.4138 33.5198M36.0805 41.8531C35.2538 42.4131 34.2138 42.8798 32.9471 43.2931L30.8405 43.9865C25.5471 45.6931 22.7605 44.2665 21.0405 38.9731L19.3338 33.7065C17.6271 28.4131 19.0405 25.6131 24.3338 23.9065L26.4405 23.2131C26.9871 23.0398 27.5071 22.8931 28.0005 22.7998C27.6005 23.6131 27.2805 24.5998 27.0138 25.7331L25.7071 31.3198C24.4005 36.8931 26.1205 39.6398 31.6805 40.9598L33.9205 41.4931C34.6938 41.6798 35.4138 41.7998 36.0805 41.8531Z" stroke="#EEEFF5" stroke-width="2" stroke-linecap="round" stroke-linejoin="round"/>
</svg>
