<svg width="18" height="18" viewBox="0 0 18 18" fill="none" xmlns="http://www.w3.org/2000/svg">
<g clip-path="url(#clip0_92_18931)">
<path d="M7.85656 15.6565C12.4758 16.414 16.4133 12.4773 15.6558 7.85729C15.1968 5.05979 12.9408 2.80304 10.1433 2.34404C5.52331 1.58579 1.58581 5.52404 2.34406 10.1433C2.80231 12.9415 5.05906 15.1975 7.85656 15.6565Z" stroke="#75777B" stroke-width="1.25" stroke-linecap="round" stroke-linejoin="round"/>
<path d="M8.88641 6.015H8.87891C8.77391 6.015 8.69141 6.0975 8.69141 6.2025C8.69141 6.3 8.77391 6.39 8.87891 6.3825C8.97641 6.375 9.06641 6.2925 9.05891 6.1875C9.05891 6.0825 8.96891 6 8.87141 6" stroke="#75777B" stroke-width="1.25" stroke-linecap="round" stroke-linejoin="round"/>
<path d="M8.25781 8.45312H9.12031V11.6406" stroke="#75777B" stroke-width="1.25" stroke-linecap="round" stroke-linejoin="round"/>
<path d="M8.25 11.6406H9.9825" stroke="#75777B" stroke-width="1.25" stroke-linecap="round" stroke-linejoin="round"/>
</g>
<defs>
<clipPath id="clip0_92_18931">
<rect width="18" height="18" fill="white"/>
</clipPath>
</defs>
</svg>
