<svg width="18" height="18" viewBox="0 0 18 18" fill="none" xmlns="http://www.w3.org/2000/svg">
<path d="M10.4427 1.92373L11.9094 4.85706C12.1094 5.2654 12.6427 5.65706 13.0927 5.73206L15.751 6.17373C17.451 6.45706 17.851 7.6904 16.626 8.90706L14.5594 10.9737C14.2094 11.3237 14.0177 11.9987 14.126 12.4821L14.7177 15.0404C15.1844 17.0654 14.1094 17.8487 12.3177 16.7904L9.82602 15.3154C9.37602 15.0487 8.63436 15.0487 8.17602 15.3154L5.68436 16.7904C3.90102 17.8487 2.81769 17.0571 3.28436 15.0404L3.87602 12.4821C3.98436 11.9987 3.79269 11.3237 3.44269 10.9737L1.37602 8.90706C0.159356 7.6904 0.551023 6.45706 2.25102 6.17373L4.90936 5.73206C5.35102 5.65706 5.88436 5.2654 6.08436 4.85706L7.55102 1.92373C8.35102 0.332064 9.65102 0.332064 10.4427 1.92373Z" fill="#EEEFF5"/>
</svg>
