<svg width="15" height="16" viewBox="0 0 15 16" fill="none" xmlns="http://www.w3.org/2000/svg">
<path d="M11.6143 10.5223C12.1164 10.1925 12.7759 10.5522 12.7759 11.1518V12.1185C12.7759 13.0703 12.034 14.0895 11.1422 14.3892L8.75156 15.1836C8.33189 15.326 7.64992 15.326 7.23774 15.1836L4.84711 14.3892C3.94781 14.0895 3.21338 13.0703 3.21338 12.1185V11.1443C3.21338 10.5522 3.87287 10.1925 4.36748 10.5148L5.91128 11.519C6.50332 11.9162 7.25273 12.111 8.00215 12.111C8.75156 12.111 9.50098 11.9162 10.093 11.519L11.6143 10.5223Z" fill="#EEEFF5"/>
<path d="M13.838 4.14432L9.34901 1.19911C8.53964 0.667027 7.20568 0.667027 6.39631 1.19911L1.88483 4.14432C0.438456 5.08109 0.438456 7.20194 1.88483 8.1462L3.08389 8.92559L6.39631 11.0839C7.20568 11.616 8.53964 11.616 9.34901 11.0839L12.639 8.92559L13.6657 8.25112V10.5443C13.6657 10.8516 13.9205 11.1064 14.2277 11.1064C14.535 11.1064 14.7898 10.8516 14.7898 10.5443V6.8572C15.0895 5.89046 14.7823 4.76633 13.838 4.14432Z" fill="#EEEFF5"/>
</svg>
