<svg width="111" height="27" viewBox="0 0 111 27" fill="none" xmlns="http://www.w3.org/2000/svg">
<g opacity="0.5" clip-path="url(#clip0_92_28682)">
<path fill-rule="evenodd" clip-rule="evenodd" d="M0.855469 19.8624L4.78692 16.8511C6.87464 19.5768 9.09172 20.8328 11.5622 20.8328C14.0191 20.8328 16.1752 19.5912 18.1694 16.8871L22.155 19.8264C19.2798 23.7252 15.7026 25.785 11.5622 25.785C7.43555 25.785 3.82525 23.7396 0.855469 19.8624Z" fill="#EEEFF5"/>
<path fill-rule="evenodd" clip-rule="evenodd" d="M11.5503 6.77488L4.55295 12.8044L1.32031 9.05285L11.5642 0.22583L21.7285 9.05973L18.4799 12.7975L11.5503 6.77488Z" fill="#EEEFF5"/>
<path d="M48.992 5.31616H45.0303V21.8234H48.992V5.31616Z" fill="#EEEFF5"/>
<path fill-rule="evenodd" clip-rule="evenodd" d="M37.023 21.896C34.6876 21.896 32.7414 21.1392 31.1627 19.6254C29.5842 18.0901 28.8057 16.1223 28.8057 13.7219C28.8057 11.3 29.6058 9.31051 31.1844 7.75357C32.7846 6.17496 34.7308 5.39648 37.0446 5.39648C39.899 5.39648 42.4292 6.62907 43.8995 8.55367L41.3262 11.2567C40.0935 9.93764 38.753 9.26729 37.3041 9.26729C36.0715 9.26729 35.0552 9.67813 34.2118 10.5215C33.3901 11.3649 32.9792 12.4245 32.9792 13.7003C32.9792 14.9329 33.3901 15.9709 34.2118 16.8142C35.0552 17.636 36.0715 18.0468 37.2825 18.0468C38.8611 18.0468 40.245 17.3548 41.3911 15.9925L44.0727 18.5658C43.3375 19.5389 42.3426 20.339 41.1099 20.9661C39.8776 21.5933 38.5151 21.896 37.023 21.896Z" fill="#EEEFF5"/>
<path fill-rule="evenodd" clip-rule="evenodd" d="M54.9344 6.63665C54.9344 7.82186 53.9739 8.78262 52.7887 8.78262C51.6034 8.78262 50.6426 7.82186 50.6426 6.63665C50.6426 5.45149 51.6034 4.49072 52.7887 4.49072C53.9739 4.49072 54.9344 5.45149 54.9344 6.63665ZM54.7693 9.77303H50.8076V21.8233H54.7693V9.77303Z" fill="#EEEFF5"/>
<path fill-rule="evenodd" clip-rule="evenodd" d="M62.4269 21.9177C60.5457 21.9177 59.0319 21.3338 57.8427 20.1661C56.6749 18.9983 56.0908 17.5063 56.0908 15.6682C56.0908 13.8301 56.6749 12.338 57.8641 11.1703C59.0536 10.0026 60.5888 9.4187 62.4918 9.4187C64.9789 9.4187 67.1626 10.6297 68.179 12.9002L65.1299 14.5005C64.5245 13.4841 63.6814 12.9651 62.5784 12.9651C61.7784 12.9651 61.1294 13.2246 60.6106 13.7436C60.1131 14.2626 59.8537 14.9113 59.8537 15.6682C59.8537 17.2468 60.9997 18.4145 62.5353 18.4145C63.6379 18.4145 64.6542 17.809 65.0868 16.8791L68.1359 18.6956C67.0978 20.6851 64.9571 21.9177 62.4269 21.9177Z" fill="#EEEFF5"/>
<path fill-rule="evenodd" clip-rule="evenodd" d="M73.0925 5.31616H69.1309V21.8234H73.0925V17.6211L73.5566 17.1882L77.1781 21.8234H81.7868L76.2227 14.702L81.5083 9.77308H76.6674L73.0925 13.1069V5.31616Z" fill="#EEEFF5"/>
<path fill-rule="evenodd" clip-rule="evenodd" d="M82.502 15.5854V5.31592H86.6291V15.3555C86.6291 17.1503 87.6749 18.0153 89.1876 18.0153C90.6781 18.0153 91.7461 17.107 91.7461 15.3555V5.31592H95.8729V15.5854C95.8729 20.2995 92.5632 22.0728 89.1876 22.0728C85.8337 22.0728 82.502 20.2995 82.502 15.5854Z" fill="#EEEFF5"/>
<path fill-rule="evenodd" clip-rule="evenodd" d="M104.787 22.1534C107.977 22.1534 110.564 19.345 110.564 15.8807C110.564 12.4163 107.977 9.60791 104.787 9.60791C103.486 9.60791 102.286 10.0745 101.32 10.8619V9.773H97.5234V26.7755H101.32V20.8994C102.286 21.6868 103.486 22.1534 104.787 22.1534ZM101.32 15.8871V15.8742C101.324 14.3273 102.541 13.0744 104.044 13.0744C105.548 13.0744 106.768 14.3308 106.768 15.8807C106.768 17.4305 105.548 18.6869 104.044 18.6869C102.541 18.6869 101.324 17.434 101.32 15.8871Z" fill="#EEEFF5"/>
</g>
<defs>
<clipPath id="clip0_92_28682">
<rect width="110.295" height="26.797" fill="white" transform="translate(0.546875 0.101562)"/>
</clipPath>
</defs>
</svg>
