<svg width="86" height="29" viewBox="0 0 86 29" fill="none" xmlns="http://www.w3.org/2000/svg">
<g opacity="0.5" clip-path="url(#clip0_92_28660)">
<path d="M36.4862 14.8719C36.4862 18.8972 33.3371 21.8634 29.4726 21.8634C25.608 21.8634 22.459 18.8972 22.459 14.8719C22.459 10.8182 25.608 7.88037 29.4726 7.88037C33.3371 7.88037 36.4862 10.8182 36.4862 14.8719ZM33.4159 14.8719C33.4159 12.3565 31.5908 10.6354 29.4726 10.6354C27.3543 10.6354 25.5292 12.3565 25.5292 14.8719C25.5292 17.3621 27.3543 19.1084 29.4726 19.1084C31.5908 19.1084 33.4159 17.359 33.4159 14.8719Z" fill="white"/>
<path d="M51.617 14.8719C51.617 18.8972 48.468 21.8634 44.6034 21.8634C40.7389 21.8634 37.5898 18.8972 37.5898 14.8719C37.5898 10.8213 40.7389 7.88037 44.6034 7.88037C48.468 7.88037 51.617 10.8182 51.617 14.8719ZM48.5468 14.8719C48.5468 12.3565 46.7217 10.6354 44.6034 10.6354C42.4852 10.6354 40.6601 12.3565 40.6601 14.8719C40.6601 17.3621 42.4852 19.1084 44.6034 19.1084C46.7217 19.1084 48.5468 17.359 48.5468 14.8719Z" fill="white"/>
<path d="M66.1179 8.30276V20.8547C66.1179 26.018 63.0729 28.1268 59.4731 28.1268C56.0845 28.1268 54.0451 25.8604 53.2759 24.0069L55.949 22.8942C56.425 24.0321 57.5913 25.3749 59.47 25.3749C61.7742 25.3749 63.2021 23.9533 63.2021 21.2771V20.2716H63.095C62.4078 21.1195 61.0839 21.8603 59.4132 21.8603C55.9175 21.8603 52.7148 18.8153 52.7148 14.8971C52.7148 10.9506 55.9175 7.88037 59.4132 7.88037C61.0807 7.88037 62.4046 8.62113 63.095 9.44385H63.2021V8.30591H66.1179V8.30276ZM63.4196 14.8971C63.4196 12.4353 61.7773 10.6354 59.6875 10.6354C57.5692 10.6354 55.7945 12.4353 55.7945 14.8971C55.7945 17.3337 57.5692 19.1084 59.6875 19.1084C61.7773 19.1084 63.4196 17.3337 63.4196 14.8971Z" fill="white"/>
<path d="M70.9243 0.945801V21.4349H67.9297V0.945801H70.9243Z" fill="white"/>
<path d="M82.594 17.1732L84.977 18.7619C84.2079 19.8998 82.3544 21.8605 79.1518 21.8605C75.1801 21.8605 72.2139 18.7903 72.2139 14.869C72.2139 10.7112 75.2053 7.87744 78.8082 7.87744C82.4364 7.87744 84.211 10.7648 84.791 12.3252L85.1094 13.1195L75.7632 16.9904C76.4788 18.3931 77.5915 19.1086 79.1518 19.1086C80.7153 19.1086 81.7996 18.3395 82.594 17.1732ZM75.2589 14.6578L81.5065 12.0635C81.1629 11.1904 80.129 10.582 78.9122 10.582C77.3519 10.582 75.1801 11.9595 75.2589 14.6578Z" fill="white"/>
<path d="M11.1238 13.0532V10.087H21.1194C21.2171 10.604 21.2675 11.2155 21.2675 11.8774C21.2675 14.1029 20.6591 16.8547 18.6985 18.8154C16.7914 20.8012 14.3548 21.8604 11.127 21.8604C5.14415 21.8604 0.113281 16.9871 0.113281 11.0043C0.113281 5.02145 5.14415 0.148193 11.127 0.148193C14.4368 0.148193 16.7946 1.44689 18.5661 3.13961L16.4731 5.23265C15.2027 4.04113 13.4817 3.11439 11.1238 3.11439C6.75491 3.11439 3.33796 6.63537 3.33796 11.0043C3.33796 15.3732 6.75491 18.8942 11.1238 18.8942C13.9576 18.8942 15.5715 17.7562 16.6055 16.7223C17.4439 15.8838 17.9956 14.686 18.2131 13.05L11.1238 13.0532Z" fill="white"/>
</g>
<defs>
<clipPath id="clip0_92_28660">
<rect width="85.7391" height="29" fill="white"/>
</clipPath>
</defs>
</svg>
