<svg width="86" height="25" viewBox="0 0 86 25" fill="none" xmlns="http://www.w3.org/2000/svg">
<g opacity="0.5" clip-path="url(#clip0_92_28669)">
<path d="M11.9273 22.5682C10.6406 22.7941 9.33127 22.8618 7.97683 23.0423L3.8456 10.9424V23.5616C2.5589 23.697 1.38505 23.8776 0.166016 24.0582V0.941895H3.59743L8.29282 14.0579V0.941895H11.9273V22.5682ZM19.0383 9.40733C20.438 9.40733 22.5826 9.33959 23.8692 9.33959V12.9514C22.2664 12.9514 20.3928 12.9514 19.0383 13.0192V18.392C21.1604 18.2566 23.2824 18.0758 25.4268 18.0081V21.4844L15.4263 22.2746V0.941895H25.4268V4.55382H19.0383V9.40733ZM38.8586 4.5539H35.1113V21.1687C33.8923 21.1687 32.6732 21.1687 31.4995 21.2137V4.5539H27.7522V0.941895H38.8588L38.8586 4.5539ZM44.728 9.15908H49.6718V12.7709H44.728V20.9655H41.1835V0.941895H51.2746V4.55382H44.728V9.15908ZM57.1439 17.805C59.1983 17.85 61.275 18.0083 63.2842 18.121V21.6878C60.0561 21.4845 56.8279 21.2816 53.5321 21.2137V0.941895H57.1439V17.805ZM66.3317 21.9362C67.483 22.004 68.7021 22.0717 69.8759 22.207V0.941895H66.3317V21.9362ZM85.7008 0.941895L81.1181 11.9357L85.7008 24.0582C84.3462 23.8776 82.9917 23.6292 81.6372 23.4035L79.0413 16.7216L76.4003 22.8618C75.0907 22.6359 73.8266 22.5682 72.5175 22.3876L77.1678 11.8001L72.9688 0.941895H76.8514L79.2218 7.01444L81.7502 0.941895L85.7008 0.941895Z" fill="#EEEFF5"/>
</g>
<defs>
<clipPath id="clip0_92_28669">
<rect width="85.5348" height="23.1163" fill="white" transform="translate(0.166016 0.941895)"/>
</clipPath>
</defs>
</svg>
