<svg width="57" height="19" viewBox="0 0 57 19" fill="none" xmlns="http://www.w3.org/2000/svg">
<g opacity="0.5" clip-path="url(#clip0_92_28671)">
<path d="M46.9695 6.14723C48.109 6.14723 49.0327 5.22348 49.0327 4.08399C49.0327 2.94449 48.109 2.02075 46.9695 2.02075C45.83 2.02075 44.9062 2.94449 44.9062 4.08399C44.9062 5.22348 45.83 6.14723 46.9695 6.14723Z" fill="#EEEFF5"/>
<path d="M17.6267 12.8531C18.6311 12.8531 19.2158 12.102 19.1724 11.3629C19.1614 11.0832 19.1268 10.805 19.0689 10.5312C18.453 7.86234 16.2822 5.8894 13.6985 5.8894C10.6367 5.8894 8.15332 8.66054 8.15332 12.0793C8.15332 15.4981 10.6361 18.2686 13.6985 18.2686C15.617 18.2686 16.987 17.57 17.9843 16.475C18.099 16.3497 18.1856 16.2015 18.2383 16.0401C18.2911 15.8787 18.3088 15.7079 18.2902 15.5391C18.2717 15.3703 18.2173 15.2074 18.1307 15.0614C18.0441 14.9153 17.9273 14.7894 17.7882 14.6921C17.3066 14.3575 16.6969 14.4702 16.2489 14.8485C15.8212 15.2095 15.0042 15.9484 13.6985 15.9484C12.1389 15.9484 10.838 14.6193 10.5398 12.8535L17.6267 12.8531ZM13.6985 8.21115C15.1021 8.21115 16.2952 9.28783 16.7384 10.7902H10.6588C11.1014 9.28725 12.2943 8.21115 13.6985 8.21115Z" fill="#EEEFF5"/>
<path d="M8.28299 7.08914C8.2828 6.81475 8.18535 6.54932 8.00795 6.33999C7.83056 6.13066 7.5847 5.991 7.31406 5.9458C5.62406 5.69097 4.04432 6.32194 3.12538 7.4643V7.30928C3.12547 7.15678 3.09552 7.00575 3.03725 6.86483C2.97897 6.7239 2.89351 6.59584 2.78574 6.48794C2.67797 6.38005 2.55 6.29443 2.40914 6.23599C2.26829 6.17755 2.1173 6.14743 1.9648 6.14734C1.8123 6.14725 1.66128 6.1772 1.52035 6.23547C1.37943 6.29375 1.25136 6.37921 1.14347 6.48698C1.03557 6.59475 0.949957 6.72272 0.891516 6.86358C0.833075 7.00443 0.80295 7.15542 0.802861 7.30792V16.8054C0.798474 17.1065 0.908372 17.3982 1.11042 17.6215C1.31247 17.8449 1.59165 17.9834 1.89174 18.0092C2.0499 18.019 2.20838 17.9962 2.35743 17.9425C2.50647 17.8887 2.64293 17.8049 2.75838 17.6964C2.87383 17.5879 2.96583 17.4568 3.02872 17.3114C3.0916 17.1659 3.12404 17.0092 3.12403 16.8507V11.9512C3.12403 9.78315 4.75454 8.00303 6.99199 8.24487C7.06818 8.25331 7.14506 8.25331 7.22124 8.24487C7.51081 8.22022 7.78057 8.08778 7.97718 7.87377C8.17379 7.65976 8.28293 7.37975 8.28299 7.08914Z" fill="#EEEFF5"/>
<path d="M48.1298 8.33954C48.1298 8.03173 48.0075 7.73653 47.7898 7.51888C47.5722 7.30123 47.277 7.17896 46.9692 7.17896C46.6614 7.17896 46.3662 7.30123 46.1485 7.51888C45.9309 7.73653 45.8086 8.03173 45.8086 8.33954V16.8508C45.8086 17.1586 45.9309 17.4538 46.1485 17.6715C46.3662 17.8891 46.6614 18.0114 46.9692 18.0114C47.277 18.0114 47.5722 17.8891 47.7898 17.6715C48.0075 17.4538 48.1298 17.1586 48.1298 16.8508V8.33954Z" fill="#EEEFF5"/>
<path d="M30.849 1.89154C30.849 1.58373 30.7268 1.28854 30.5091 1.07088C30.2915 0.853232 29.9963 0.730957 29.6884 0.730957C29.3806 0.730957 29.0854 0.853232 28.8678 1.07088C28.6501 1.28854 28.5279 1.58373 28.5279 1.89154V7.07454C28.1397 6.68616 27.6766 6.38082 27.1666 6.17707C26.6567 5.97332 26.1107 5.87542 25.5618 5.88934C22.5 5.88934 20.0166 8.66048 20.0166 12.0792C20.0166 15.498 22.4992 18.2686 25.5618 18.2686C26.1149 18.2805 26.6647 18.1803 27.1781 17.974C27.6915 17.7678 28.1578 17.4597 28.549 17.0685C28.6033 17.3521 28.7615 17.6052 28.9925 17.7785C29.2235 17.9517 29.5109 18.0326 29.7983 18.0053C30.0858 17.978 30.3528 17.8445 30.5471 17.6308C30.7414 17.4172 30.849 17.1388 30.849 16.8501V1.89154ZM25.5618 15.948C23.7813 15.948 22.3378 14.2157 22.3378 12.0792C22.3378 9.94276 23.7813 8.21109 25.5618 8.21109C27.3423 8.21109 28.7856 9.94315 28.7856 12.0798C28.7856 14.2165 27.3423 15.948 25.5618 15.948Z" fill="#EEEFF5"/>
<path d="M42.9729 1.89154C42.9729 1.58373 42.8506 1.28854 42.6329 1.07088C42.4153 0.853232 42.1201 0.730957 41.8123 0.730957C41.5045 0.730957 41.2093 0.853232 40.9916 1.07088C40.774 1.28854 40.6517 1.58373 40.6517 1.89154V7.07454C40.2635 6.68614 39.8004 6.38077 39.2905 6.17702C38.7806 5.97327 38.2346 5.87539 37.6856 5.88934C34.6238 5.88934 32.1406 8.66048 32.1406 12.0792C32.1406 15.498 34.6232 18.2686 37.6856 18.2686C38.2388 18.2805 38.7886 18.1803 39.302 17.974C39.8155 17.7678 40.2818 17.4597 40.673 17.0685C40.7271 17.3522 40.8852 17.6056 41.1162 17.779C41.3473 17.9524 41.6347 18.0334 41.9223 18.0061C42.21 17.9788 42.477 17.8452 42.6713 17.6314C42.8656 17.4176 42.9731 17.139 42.9729 16.8501V1.89154ZM37.6856 15.948C35.9051 15.948 34.4618 14.2157 34.4618 12.0792C34.4618 9.94276 35.9051 8.21109 37.6856 8.21109C39.4661 8.21109 40.9096 9.94315 40.9096 12.0798C40.9096 14.2165 39.4663 15.948 37.6856 15.948Z" fill="#EEEFF5"/>
<path d="M54.027 16.8507V8.21118H55.0587C55.3249 8.2146 55.5826 8.11726 55.7801 7.93867C55.9775 7.76009 56.1001 7.51347 56.1234 7.24826C56.1328 7.10731 56.1131 6.96592 56.0657 6.83286C56.0182 6.69981 55.9439 6.57792 55.8474 6.47475C55.7509 6.37158 55.6342 6.28932 55.5046 6.23307C55.375 6.17683 55.2353 6.14779 55.094 6.14775H54.027V4.50988C54.0309 4.21033 53.9214 3.92039 53.7204 3.69821C53.5195 3.47603 53.242 3.33803 52.9436 3.31189C52.785 3.30133 52.626 3.32345 52.4763 3.37686C52.3266 3.43028 52.1895 3.51387 52.0735 3.62244C51.9575 3.73101 51.865 3.86226 51.8017 4.00804C51.7385 4.15383 51.7058 4.31105 51.7059 4.46996V6.1464H50.7449C50.4786 6.14294 50.2209 6.24029 50.0234 6.41891C49.8259 6.59754 49.7032 6.84423 49.68 7.10951C49.6706 7.25046 49.6903 7.39184 49.7378 7.52488C49.7852 7.65793 49.8595 7.7798 49.956 7.88296C50.0525 7.98612 50.1692 8.06836 50.2988 8.12458C50.4284 8.18081 50.5681 8.20982 50.7094 8.20983H51.7059V16.8507C51.7059 17.1585 51.8281 17.4537 52.0458 17.6714C52.2634 17.889 52.5586 18.0113 52.8664 18.0113C53.1742 18.0113 53.4694 17.889 53.6871 17.6714C53.9047 17.4537 54.027 17.1585 54.027 16.8507Z" fill="#EEEFF5"/>
</g>
<defs>
<clipPath id="clip0_92_28671">
<rect width="55.3228" height="17.5382" fill="white" transform="translate(0.802734 0.730957)"/>
</clipPath>
</defs>
</svg>
