<svg width="88" height="29" viewBox="0 0 88 29" fill="none" xmlns="http://www.w3.org/2000/svg">
<g opacity="0.5" clip-path="url(#clip0_92_28679)">
<path d="M10.6263 1.21579L10.9341 2.45998C9.72313 2.75782 8.56417 3.23714 7.49657 3.88167L6.83802 2.78295C8.01455 2.07257 9.29175 1.54421 10.6263 1.21579ZM17.1937 1.21579L16.8859 2.45998C18.0969 2.75782 19.2559 3.23714 20.3235 3.88167L20.9863 2.78295C19.8084 2.07218 18.5298 1.5438 17.1937 1.21579ZM2.19444 7.42636C1.48406 8.60289 0.955693 9.8801 0.627272 11.2146L1.87164 11.5225C2.16948 10.3115 2.6488 9.15251 3.29333 8.08491L2.19444 7.42636ZM1.51034 14.4984C1.50994 13.8765 1.5564 13.2555 1.64934 12.6406L0.381466 12.4481C0.17623 13.8072 0.17623 15.1895 0.381466 16.5486L1.64934 16.3561C1.5564 15.7412 1.50994 15.1202 1.51034 14.4984ZM20.9824 26.2138L20.3238 25.1151C19.2575 25.7591 18.0999 26.2384 16.8904 26.5366L17.1983 27.7808C18.5314 27.452 19.8071 26.9237 20.9824 26.2138ZM26.3099 14.4984C26.3103 15.1202 26.2638 15.7412 26.1709 16.3561L27.4386 16.5486C27.6438 15.1895 27.6438 13.8072 27.4386 12.4481L26.1709 12.6406C26.2638 13.2555 26.3103 13.8765 26.3099 14.4984ZM27.1928 17.7821L25.9486 17.4743C25.6507 18.6853 25.1714 19.8442 24.5269 20.9118L25.6256 21.5746C26.3364 20.3968 26.8648 19.1181 27.1928 17.7821ZM15.768 26.7611C14.5364 26.9464 13.284 26.9464 12.0524 26.7611L11.8599 28.0288C13.2191 28.234 14.6013 28.234 15.9605 28.0288L15.768 26.7611ZM23.8918 21.8547C23.1523 22.8563 22.2666 23.7413 21.2645 24.48L22.0256 25.5126C23.1311 24.6998 24.1083 23.7254 24.9245 22.6222L23.8918 21.8547ZM21.2645 4.51705C22.2668 5.25643 23.1525 6.1421 23.8918 7.14444L24.9245 6.37483C24.1109 5.27227 23.1366 4.29797 22.0341 3.48443L21.2645 4.51705ZM3.92854 7.14444C4.66792 6.1421 5.55358 5.25643 6.55593 4.51705L5.78631 3.48443C4.68382 4.29799 3.70958 5.27229 2.89608 6.37483L3.92854 7.14444ZM25.6253 7.4267L24.5265 8.08508C25.1706 9.15142 25.6499 10.309 25.9481 11.5185L27.1924 11.2107C26.8636 9.87765 26.3352 8.60191 25.6253 7.4267ZM12.0521 2.23802C13.2837 2.05273 14.536 2.05273 15.7676 2.23802L15.9601 0.97032C14.601 0.765102 13.2188 0.765102 11.8598 0.97032L12.0521 2.23802ZM4.58658 25.8528L1.93773 26.4708L2.55557 23.822L1.30694 23.529L0.689277 26.1778C0.639493 26.3904 0.644763 26.6121 0.704589 26.822C0.764415 27.0319 0.876818 27.2231 1.03116 27.3774C1.1855 27.5317 1.37667 27.6441 1.58658 27.704C1.7965 27.7638 2.0182 27.7691 2.23072 27.7193L4.87736 27.1122L4.58658 25.8528ZM1.57421 22.3855L2.82284 22.6761L3.2504 20.8398C2.62716 19.7923 2.16248 18.6582 1.87147 17.4746L0.627102 17.7824C0.905993 18.916 1.3299 20.0089 1.88833 21.0341L1.57421 22.3855ZM7.56028 25.1646L5.72397 25.5922L6.01457 26.8408L7.36574 26.5264C8.39091 27.0848 9.48383 27.5088 10.6174 27.7878L10.9253 26.5436C9.74415 26.2491 8.6131 25.7815 7.56879 25.1561L7.56028 25.1646ZM13.9097 3.38273C11.9234 3.38377 9.97368 3.91697 8.2633 4.92687C6.55292 5.93677 5.14435 7.38648 4.1841 9.12523C3.22386 10.864 2.747 12.8282 2.80313 14.8137C2.85926 16.7992 3.44633 18.7334 4.50328 20.4151L3.4342 24.9752L7.99431 23.9061C9.45275 24.8248 11.1048 25.3918 12.8201 25.5622C14.5353 25.7327 16.2666 25.5019 17.8774 24.8883C19.4881 24.2746 20.934 23.2947 22.101 22.0262C23.268 20.7576 24.1239 19.2351 24.6013 17.5788C25.0787 15.9226 25.1644 14.178 24.8517 12.483C24.539 10.7879 23.8364 9.18879 22.7994 7.81193C21.7624 6.43508 20.4195 5.31822 18.8767 4.54958C17.3339 3.78095 15.6335 3.38159 13.9099 3.38307L13.9097 3.38273Z" fill="#EEEFF5"/>
<path d="M40.8951 11.5659C40.8425 11.0359 40.6147 10.6242 40.2118 10.3307C39.8132 10.0373 39.2745 9.89055 38.5956 9.89055C37.8991 9.89055 37.3647 10.0329 36.9925 10.3176C36.6201 10.6023 36.4339 10.9614 36.4339 11.395C36.4252 11.8769 36.6311 12.2426 37.0516 12.4922C37.4764 12.7375 37.9801 12.9281 38.5625 13.0639L39.7716 13.353C40.5512 13.5282 41.2433 13.7822 41.8478 14.1151C42.4565 14.4479 42.9339 14.8772 43.28 15.4029C43.6304 15.9241 43.8055 16.5592 43.8055 17.3082C43.8012 18.539 43.3391 19.5201 42.4193 20.2516C41.504 20.9786 40.225 21.3421 38.5823 21.3421C36.9486 21.3421 35.6455 20.9698 34.6731 20.2252C33.7007 19.4806 33.1971 18.3812 33.1621 16.927H35.9149C35.963 17.6015 36.228 18.1096 36.7099 18.4512C37.196 18.7885 37.8093 18.9571 38.5496 18.9571C39.2722 18.9571 39.8481 18.8038 40.2774 18.4972C40.711 18.1906 40.93 17.792 40.9344 17.3014C40.9301 16.846 40.7308 16.4956 40.3365 16.2503C39.9422 16.0051 39.3794 15.7948 38.648 15.6196L37.1829 15.2516C36.0484 14.9801 35.1527 14.5487 34.4957 13.9573C33.8387 13.366 33.5123 12.5754 33.5168 11.5855C33.5123 10.7708 33.7291 10.059 34.1671 9.45021C34.6096 8.83697 35.2162 8.36171 35.9871 8.02443C36.7581 7.68284 37.6341 7.51204 38.6152 7.51204C39.6138 7.51204 40.4855 7.68284 41.2301 8.02443C41.9792 8.36614 42.5618 8.8414 42.9778 9.45021C43.3939 10.059 43.6086 10.7642 43.6217 11.5657L40.8951 11.5659ZM45.658 21.1517V11.06H48.457V21.1517H45.658ZM47.0641 9.75905C46.6523 9.75905 46.2975 9.62107 45.9998 9.34511C45.7019 9.06484 45.5529 8.72977 45.5529 8.33991C45.5529 7.95005 45.7019 7.61714 45.9998 7.34118C46.2975 7.06522 46.6523 6.92725 47.0641 6.92725C47.4802 6.92725 47.8371 7.06522 48.135 7.34118C48.4328 7.61714 48.5817 7.95005 48.5817 8.33991C48.5817 8.72977 48.4328 9.06484 48.135 9.34511C47.8371 9.62107 47.4802 9.75905 47.0641 9.75905ZM55.2382 25.1464C53.8803 25.1464 52.8138 24.8748 52.0386 24.3316C51.2633 23.7929 50.7924 23.1271 50.626 22.3344L53.2145 21.9862C53.3284 22.2928 53.5496 22.56 53.8782 22.7878C54.211 23.0199 54.6863 23.136 55.3039 23.136C55.9126 23.136 56.4141 22.9871 56.8084 22.6892C57.207 22.3957 57.4063 21.903 57.4063 21.2109V19.3647H57.2881C57.1041 19.7808 56.78 20.1597 56.3156 20.5013C55.8514 20.8386 55.2163 21.0072 54.4103 21.0072C53.6526 21.0072 52.9628 20.8298 52.3408 20.475C51.7233 20.1203 51.2305 19.5794 50.8626 18.8524C50.4991 18.1252 50.3173 17.2032 50.3173 16.0863C50.3173 14.9388 50.5034 13.9839 50.8757 13.2218C51.2524 12.4596 51.7495 11.8879 52.367 11.5069C52.989 11.1214 53.668 10.9286 54.4038 10.9286C54.9689 10.9286 55.442 11.025 55.823 11.2179C56.2041 11.4062 56.5129 11.6404 56.7495 11.9207C56.986 12.2011 57.1656 12.4793 57.2881 12.7552H57.3934V11.0601H60.1725V21.2501C60.1725 22.1087 59.9601 22.827 59.5351 23.4053C59.1147 23.9835 58.5344 24.4171 57.7942 24.7062C57.0539 24.9997 56.2019 25.1464 55.2382 25.1464ZM55.2973 18.9048C55.9719 18.9048 56.4931 18.6552 56.8611 18.1558C57.2333 17.6565 57.4194 16.9622 57.4194 16.073C57.4194 15.1883 57.2355 14.4809 56.8675 13.9509C56.4996 13.4209 55.9762 13.1559 55.2973 13.1559C54.6053 13.1559 54.0775 13.4275 53.714 13.9706C53.3548 14.5137 53.1752 15.2145 53.1752 16.073C53.1752 16.9446 53.357 17.6344 53.7206 18.1425C54.084 18.6506 54.6096 18.9046 55.2973 18.9046V18.9048ZM65.205 15.3175V21.1518H62.4061V11.0601H65.0735V12.8406H65.1917C65.4195 12.2537 65.7941 11.7894 66.3153 11.4477C66.8409 11.1016 67.4782 10.9286 68.2273 10.9286C69.2784 10.9286 70.1216 11.2681 70.7567 11.9469C71.3918 12.6215 71.7093 13.548 71.7093 14.7263V21.1517H68.9105V15.2254C68.9148 14.6078 68.7571 14.126 68.4373 13.78C68.1176 13.4297 67.6775 13.2545 67.1168 13.2545C66.5517 13.2545 66.0918 13.4362 65.737 13.7996C65.3867 14.1589 65.2093 14.6648 65.2049 15.3174L65.205 15.3175ZM76.7867 21.3423C75.8231 21.3423 75.0238 21.0904 74.3886 20.5866C73.7535 20.083 73.4359 19.3318 73.4359 18.3331C73.4359 17.5798 73.6133 16.9884 73.9682 16.5592C74.323 16.1299 74.7872 15.8168 75.3609 15.6197C75.9392 15.4183 76.5612 15.2869 77.2269 15.2256C78.1029 15.1379 78.7293 15.0459 79.106 14.9496C79.4826 14.8532 79.671 14.6429 79.671 14.3188V14.2795C79.671 13.8634 79.5396 13.5414 79.2768 13.3136C79.0185 13.0858 78.6505 12.9719 78.173 12.9719C77.6693 12.9719 77.2686 13.0814 76.9707 13.3005C76.6729 13.5194 76.4758 13.7976 76.3794 14.1348L73.7909 13.9246C73.9836 13.0048 74.461 12.2755 75.2231 11.7367C75.9897 11.198 76.9774 10.9286 78.1863 10.9286C78.9353 10.9286 79.6361 11.0469 80.2887 11.2835C80.9413 11.52 81.4669 11.8901 81.8655 12.3938C82.2684 12.8931 82.4699 13.5435 82.4699 14.345V21.1517H79.8156V19.7523H79.7367C79.4914 20.221 79.1235 20.6042 78.6329 20.9021C78.1469 21.1955 77.5315 21.3423 76.7869 21.3423H76.7867ZM77.5882 19.4107C78.2014 19.4107 78.7051 19.2334 79.0993 18.8786C79.4936 18.5194 79.6907 18.0748 79.6907 17.5448V16.4738C79.5813 16.5483 79.4104 16.6141 79.1782 16.6711C78.9505 16.728 78.7052 16.7784 78.4423 16.8222C78.1839 16.8616 77.9518 16.8966 77.7459 16.9273C77.2553 16.9974 76.859 17.1353 76.5569 17.3412C76.2589 17.5471 76.1099 17.8472 76.1099 18.2413C76.1099 18.6268 76.2479 18.918 76.5239 19.1152C76.8043 19.3122 77.1589 19.4107 77.5882 19.4107ZM87.4434 7.69618V21.1517H84.6445V7.69618H87.4434Z" fill="#EEEFF5"/>
</g>
<defs>
<clipPath id="clip0_92_28679">
<rect width="87.2162" height="27.3675" fill="white" transform="translate(0.228516 0.816162)"/>
</clipPath>
</defs>
</svg>
