<svg width="96" height="29" viewBox="0 0 96 29" fill="none" xmlns="http://www.w3.org/2000/svg">
<g opacity="0.5" clip-path="url(#clip0_92_28667)">
<path d="M15.0009 0.388184C7.2055 0.388184 0.885742 6.70777 0.885742 14.5032C0.885742 22.299 7.2055 28.6181 15.0009 28.6181C22.7972 28.6181 29.1163 22.299 29.1163 14.5032C29.1163 6.70828 22.7972 0.388858 15.0008 0.388858L15.0009 0.388184ZM21.4741 20.7461C21.2212 21.1608 20.6785 21.2922 20.2639 21.0377C16.9498 19.0134 12.7777 18.5549 7.86437 19.6775C7.39091 19.7854 6.91896 19.4887 6.81108 19.0151C6.7027 18.5414 6.99818 18.0695 7.47282 17.9616C12.8497 16.7332 17.4618 17.2621 21.1825 19.5359C21.5971 19.7904 21.7286 20.3315 21.4741 20.7461ZM23.2018 16.9027C22.8832 17.4205 22.2056 17.584 21.6881 17.2655C17.894 14.9334 12.1104 14.258 7.62267 15.6202C7.04065 15.796 6.42594 15.468 6.24929 14.887C6.074 14.305 6.40217 13.6915 6.98318 13.5145C12.1094 11.9591 18.4822 12.7125 22.8394 15.39C23.3568 15.7085 23.5203 16.386 23.2018 16.9027ZM23.3501 12.9006C18.8008 10.1985 11.2951 9.95007 6.95166 11.2683C6.25418 11.4799 5.51659 11.0861 5.30522 10.3886C5.09386 9.69084 5.48726 8.95375 6.18524 8.74171C11.1712 7.2281 19.4599 7.52054 24.6975 10.6298C25.3262 11.0022 25.5318 11.8124 25.1593 12.4389C24.7885 13.0663 23.9761 13.2731 23.3508 12.9006H23.3501ZM39.2885 13.4184C36.8512 12.8372 36.4181 12.4293 36.4181 11.5722C36.4181 10.7625 37.1799 10.2176 38.3143 10.2176C39.4133 10.2176 40.5021 10.6314 41.6449 11.4832C41.6786 11.509 41.7224 11.5193 41.7646 11.5126C41.8084 11.5062 41.8455 11.4827 41.8708 11.4475L43.0608 9.77006C43.1096 9.70095 43.0962 9.60572 43.0304 9.55296C41.6702 8.46191 40.1397 7.93147 38.3497 7.93147C35.7186 7.93147 33.8796 9.51065 33.8796 11.7701C33.8796 14.1931 35.4657 15.051 38.2064 15.7133C40.5375 16.2504 40.9319 16.7005 40.9319 17.5048C40.9319 18.3965 40.1364 18.951 38.8553 18.951C37.4328 18.951 36.2714 18.4706 34.9736 17.3481C34.9415 17.3194 34.8977 17.3076 34.8572 17.3093C34.8134 17.3127 34.7747 17.3329 34.7477 17.3649L33.4127 18.9527C33.3571 19.0201 33.3639 19.1179 33.4279 19.1752C34.9382 20.5236 36.7956 21.2349 38.8014 21.2349C41.6365 21.2349 43.4687 19.6859 43.4687 17.2874C43.4737 15.2636 42.2618 14.1427 39.2936 13.4206L39.2885 13.4184ZM49.8838 11.0148C48.6551 11.0148 47.6471 11.4989 46.8145 12.4909V11.3744C46.8145 11.2862 46.7437 11.2144 46.656 11.2144H44.4732C44.3856 11.2144 44.3148 11.2862 44.3148 11.3744V23.7801C44.3148 23.8677 44.3856 23.9402 44.4732 23.9402H46.656C46.7437 23.9402 46.8145 23.8677 46.8145 23.7801V19.8646C47.6471 20.7967 48.6551 21.2535 49.8838 21.2535C52.1677 21.2535 54.4803 19.4954 54.4803 16.1346C54.4837 12.7732 52.1711 11.0147 49.8855 11.0147L49.8838 11.0148ZM51.9419 16.1346C51.9419 17.8453 50.8884 19.0403 49.3782 19.0403C47.8865 19.0403 46.7605 17.7914 46.7605 16.1346C46.7605 14.4778 47.8865 13.2291 49.3782 13.2291C50.8631 13.2289 51.9419 14.4508 51.9419 16.1346ZM60.4049 11.0148C57.4637 11.0148 55.1596 13.2795 55.1596 16.1712C55.1596 19.0319 57.4485 21.272 60.3695 21.272C63.3209 21.272 65.6318 19.0151 65.6318 16.1346C65.6318 13.264 63.3361 11.0152 60.4049 11.0152V11.0148ZM60.4049 19.0572C58.8408 19.0572 57.6609 17.7998 57.6609 16.1338C57.6609 14.4602 58.8003 13.2458 60.3695 13.2458C61.9438 13.2458 63.1305 14.5027 63.1305 16.1704C63.1305 17.8436 61.9843 19.0572 60.4049 19.0572ZM71.9121 11.2144H69.5102V8.75924C69.5102 8.67125 69.4394 8.59945 69.3518 8.59945H67.169C67.0814 8.59945 67.0089 8.67125 67.0089 8.75924V11.2144H65.9605C65.8728 11.2144 65.802 11.2862 65.802 11.3744V13.2498C65.802 13.3378 65.8728 13.4098 65.9605 13.4098H67.0089V18.2633C67.0089 20.2236 67.9848 21.2181 69.9114 21.2181C70.6935 21.2181 71.3424 21.0562 71.9543 20.709C72.0048 20.6821 72.0352 20.6281 72.0352 20.5708V18.7841C72.0352 18.7302 72.0065 18.678 71.9593 18.6493C71.9121 18.619 71.8531 18.6173 71.8042 18.6426C71.3845 18.8533 70.9783 18.951 70.5232 18.951C69.8237 18.951 69.5102 18.6324 69.5102 17.9211V13.4106H71.9121C71.9998 13.4106 72.0705 13.3388 72.0705 13.2507V11.3754C72.0739 11.2872 72.0031 11.2154 71.9138 11.2154L71.9121 11.2144ZM80.2791 11.224V10.9225C80.2791 10.0354 80.6196 9.63976 81.3815 9.63976C81.8366 9.63976 82.2023 9.73011 82.6119 9.86664C82.6625 9.88248 82.7147 9.87456 82.7552 9.84439C82.7973 9.81422 82.8209 9.76584 82.8209 9.7146V7.87568C82.8209 7.80539 82.7771 7.7432 82.708 7.72246C82.2765 7.59386 81.7236 7.46188 80.8943 7.46188C78.8801 7.46188 77.8132 8.59692 77.8132 10.7431V11.205H76.7648C76.6771 11.205 76.6046 11.2768 76.6046 11.3647V13.2498C76.6046 13.3378 76.6771 13.4098 76.7648 13.4098H77.8132V20.8944C77.8132 20.9838 77.8857 21.0546 77.9733 21.0546H80.1544C80.2437 21.0546 80.3145 20.9838 80.3145 20.8944V13.4103H82.3523L85.4739 20.8944C85.12 21.6799 84.7711 21.8367 84.2958 21.8367C83.9115 21.8367 83.5052 21.722 83.0923 21.4945C83.0535 21.4743 83.0063 21.4709 82.9659 21.4827C82.9237 21.4979 82.8883 21.5282 82.8715 21.5687L82.1315 23.1918C82.0961 23.2694 82.1265 23.3587 82.2006 23.3991C82.9726 23.8172 83.6687 23.9958 84.53 23.9958C86.1414 23.9958 87.0331 23.2441 87.8168 21.2248L91.6026 11.4424C91.6228 11.3932 91.616 11.3376 91.5857 11.2939C91.5571 11.2506 91.5082 11.2245 91.4559 11.2245H89.1838C89.1147 11.2245 89.054 11.2678 89.0321 11.3317L86.7044 17.9785L84.1559 11.3273C84.1323 11.2655 84.0733 11.2245 84.0075 11.2245H80.2791V11.224ZM75.4281 11.2144H73.2454C73.1577 11.2144 73.0852 11.2862 73.0852 11.3744V20.8944C73.0852 20.9838 73.1577 21.0546 73.2454 21.0546H75.4281C75.5158 21.0546 75.5883 20.9838 75.5883 20.8944V11.375C75.5883 11.2869 75.5175 11.2151 75.4281 11.2151V11.2144ZM74.3494 6.87936C73.4847 6.87936 72.7835 7.57919 72.7835 8.44371C72.7835 9.30872 73.4847 10.0094 74.3494 10.0094C75.2141 10.0094 75.9136 9.30872 75.9136 8.44371C75.9136 7.57936 75.2124 6.87936 74.3494 6.87936ZM93.4668 14.2755C92.6038 14.2755 91.9312 13.5819 91.9312 12.7396C91.9312 11.8974 92.6122 11.1959 93.4752 11.1959C94.3382 11.1959 95.0107 11.8893 95.0107 12.7309C95.0107 13.5731 94.3298 14.2755 93.4668 14.2755ZM93.4752 11.3486C92.688 11.3486 92.0931 11.9739 92.0931 12.7396C92.0931 13.505 92.6847 14.1219 93.4668 14.1219C94.2539 14.1219 94.8489 13.4971 94.8489 12.7309C94.8489 11.9655 94.2573 11.3486 93.4752 11.3486ZM93.8157 12.8888L94.2505 13.4969H93.8831L93.492 12.939H93.1566V13.4969H92.8499V11.8849H93.5679C93.9438 11.8849 94.1899 12.0765 94.1899 12.3992C94.1915 12.6635 94.0382 12.8249 93.8174 12.8888H93.8157ZM93.5561 12.1615H93.1566V12.6714H93.5561C93.755 12.6714 93.8747 12.5738 93.8747 12.4162C93.8747 12.2503 93.755 12.1615 93.5561 12.1615Z" fill="#EEEFF5"/>
</g>
<defs>
<clipPath id="clip0_92_28667">
<rect width="94.2216" height="28.317" fill="white" transform="translate(0.841797 0.341553)"/>
</clipPath>
</defs>
</svg>
