<svg width="18" height="18" viewBox="0 0 18 18" fill="none" xmlns="http://www.w3.org/2000/svg">
<path d="M10.4431 1.92373L11.9097 4.85706C12.1097 5.2654 12.6431 5.65706 13.0931 5.73206L15.7514 6.17373C17.4514 6.45706 17.8514 7.6904 16.6264 8.90706L14.5597 10.9737C14.2097 11.3237 14.0181 11.9987 14.1264 12.4821L14.7181 15.0404C15.1847 17.0654 14.1097 17.8487 12.3181 16.7904L9.82639 15.3154C9.37639 15.0487 8.63472 15.0487 8.17639 15.3154L5.68472 16.7904C3.90139 17.8487 2.81806 17.0571 3.28472 15.0404L3.87639 12.4821C3.98472 11.9987 3.79306 11.3237 3.44306 10.9737L1.37639 8.90706C0.159722 7.6904 0.551389 6.45706 2.25139 6.17373L4.90972 5.73206C5.35139 5.65706 5.88472 5.2654 6.08472 4.85706L7.55139 1.92373C8.35139 0.332064 9.65139 0.332064 10.4431 1.92373Z" fill="#EEEFF5"/>
</svg>
