<svg width="120" height="29" viewBox="0 0 120 29" fill="none" xmlns="http://www.w3.org/2000/svg">
<g opacity="0.35" clip-path="url(#clip0_92_28692)">
<path d="M52.8276 17.3183C52.8276 17.7547 52.9004 18.1911 53.0458 18.6093C53.3368 19.4275 53.955 20.1003 54.7368 20.4639C55.1369 20.6458 55.6096 20.7549 56.1187 20.7549C56.6279 20.7549 57.1006 20.6639 57.5006 20.4639C57.9007 20.2821 58.2461 20.0275 58.5371 19.7002C58.828 19.3911 59.0462 19.0093 59.1917 18.5911C59.3371 18.1729 59.4099 17.7547 59.4099 17.3001C59.4099 16.8637 59.3371 16.4273 59.1917 16.0091C59.0462 15.6091 58.828 15.2272 58.5371 14.9181C58.2461 14.5908 57.8825 14.3363 57.5006 14.1545C57.0643 13.9544 56.5915 13.8635 56.1187 13.8635C55.6096 13.8635 55.1369 13.9544 54.7368 14.1545C53.9368 14.5181 53.3368 15.1909 53.0276 16.0091C52.9004 16.4455 52.8276 16.8819 52.8276 17.3183ZM50.0638 17.4637C50.0638 16.5546 50.2275 15.7182 50.5548 14.9727C50.8639 14.2454 51.3003 13.609 51.8639 13.0635C52.4276 12.518 53.1004 12.118 53.8277 11.8452C54.6096 11.5543 55.4278 11.4088 56.246 11.4088C57.1006 11.4088 57.9007 11.5543 58.6644 11.8452C59.3917 12.118 60.0644 12.5362 60.6281 13.0635C61.1918 13.609 61.6464 14.2636 61.9373 14.9727C62.2646 15.7182 62.4282 16.5546 62.4282 17.4637C62.4282 18.3729 62.2646 19.2093 61.9373 19.9548C61.6282 20.6821 61.1736 21.3185 60.6281 21.864C60.0644 22.4095 59.3917 22.8095 58.6644 23.0823C57.8825 23.3732 57.0643 23.5187 56.246 23.5187C55.4096 23.5187 54.5914 23.3732 53.8277 23.0823C53.1004 22.8095 52.4276 22.3913 51.8639 21.864C51.3003 21.3185 50.8457 20.6821 50.5548 19.9548C50.2275 19.2093 50.0638 18.3729 50.0638 17.4637ZM66.6103 17.3183C66.6103 17.7547 66.683 18.1911 66.8285 18.6093C67.1194 19.4275 67.7376 20.1003 68.5195 20.4639C68.9195 20.6458 69.3923 20.7549 69.9014 20.7549C70.4105 20.7549 70.8833 20.6639 71.2833 20.4639C71.6833 20.2821 72.0288 20.0275 72.3197 19.7002C72.6107 19.3911 72.8288 19.0093 72.9743 18.5911C73.1198 18.1729 73.1925 17.7547 73.1925 17.3001C73.1925 16.8637 73.1198 16.4273 72.9743 16.0091C72.8288 15.6091 72.6107 15.2272 72.3197 14.9181C72.0288 14.5908 71.6651 14.3363 71.2833 14.1545C70.8469 13.9544 70.3742 13.8635 69.9014 13.8635C69.3923 13.8635 68.9195 13.9544 68.5195 14.1545C67.7194 14.5181 67.1194 15.1909 66.8285 16.0091C66.683 16.4455 66.6103 16.8819 66.6103 17.3183ZM73.5198 21.2458H73.4652C73.047 21.9367 72.5016 22.4459 71.7924 22.755C71.0833 23.0641 70.3014 23.2277 69.5196 23.2277C68.6286 23.2277 67.8285 23.0823 67.1376 22.7732C66.4648 22.4822 65.8466 22.0458 65.3557 21.5004C64.8465 20.9549 64.4647 20.3185 64.2283 19.6093C63.9738 18.8638 63.8465 18.0638 63.8465 17.2637C63.8465 16.4273 63.9738 15.6455 64.2465 14.9181C64.5011 14.2272 64.8829 13.5726 65.3738 13.0271C65.8648 12.4816 66.4648 12.0634 67.1376 11.7543C67.8467 11.4452 68.6104 11.2816 69.3923 11.2997C69.9378 11.2997 70.4105 11.3543 70.8287 11.4634C71.2469 11.5725 71.6106 11.7179 71.9379 11.8998C72.2652 12.0816 72.5197 12.2634 72.7561 12.4634C72.9743 12.6635 73.1561 12.8453 73.3016 13.0453H73.3743V6.79038C73.3743 6.49945 73.5925 6.17216 73.9925 6.17216H75.6108C75.9927 6.17216 76.2291 6.48127 76.2291 6.79038V22.3368C76.2291 22.7368 75.8836 22.955 75.6108 22.955H74.138C73.7925 22.955 73.5198 22.6822 73.5016 22.3368V21.2458H73.5198ZM80.9384 17.3183C80.9384 17.7547 81.0112 18.1911 81.1566 18.6093C81.4475 19.4275 82.0658 20.1003 82.8658 20.4639C83.2658 20.6458 83.7386 20.7549 84.2477 20.7549C84.7568 20.7549 85.2296 20.6639 85.6296 20.4639C86.0296 20.2821 86.3751 20.0275 86.666 19.7002C86.957 19.3911 87.1752 19.0093 87.3206 18.5911C87.4661 18.1729 87.5388 17.7547 87.5388 17.3001C87.5388 16.8637 87.4661 16.4273 87.3206 16.0091C87.1752 15.6091 86.957 15.2272 86.666 14.9181C86.3751 14.5908 86.0115 14.3363 85.6296 14.1545C85.1932 13.9544 84.7205 13.8635 84.2477 13.8635C83.7386 13.8635 83.2658 13.9544 82.8658 14.1545C82.0658 14.5181 81.4657 15.1909 81.1566 16.0091C81.0112 16.4455 80.9384 16.8819 80.9384 17.3183ZM78.1746 17.4637C78.1746 16.5546 78.3383 15.7182 78.6656 14.9727C78.9747 14.2454 79.4111 13.609 79.9747 13.0635C80.5384 12.518 81.2112 12.118 81.9385 11.8452C82.7204 11.5543 83.5386 11.4088 84.3568 11.4088C85.2114 11.4088 86.0115 11.5543 86.7751 11.8452C87.5025 12.118 88.1752 12.5362 88.7389 13.0635C89.3026 13.609 89.7571 14.2636 90.0481 14.9727C90.3754 15.7182 90.539 16.5546 90.539 17.4637C90.539 18.3729 90.3754 19.2093 90.0481 19.9548C89.739 20.6821 89.2844 21.3185 88.7389 21.864C88.1752 22.4095 87.5025 22.8095 86.7751 23.0823C85.9933 23.3732 85.175 23.5187 84.3568 23.5187C83.5204 23.5187 82.7022 23.3732 81.9385 23.0823C81.2112 22.8095 80.5384 22.3913 79.9747 21.864C79.4111 21.3185 78.9565 20.6821 78.6656 19.9548C78.3383 19.2093 78.1746 18.3729 78.1746 17.4637ZM91.9573 7.55406C91.9573 7.11767 92.1209 6.71764 92.4482 6.39035C92.7755 6.06306 93.2119 5.89941 93.721 5.89941C94.2301 5.89941 94.6665 6.06306 95.012 6.37217C95.3575 6.68128 95.5393 7.0813 95.5393 7.55406C95.5393 8.02681 95.3575 8.42684 95.012 8.73594C94.6665 9.04505 94.2301 9.2087 93.721 9.2087C93.2119 9.2087 92.7937 9.04506 92.4482 8.71777C92.1209 8.37229 91.9573 7.99045 91.9573 7.55406ZM103.776 14.8818C103.485 14.8818 103.285 14.6636 103.249 14.5727C103.012 13.9363 102.267 13.6999 101.649 13.6999C100.685 13.6999 99.9396 14.1545 99.9396 14.9181C99.9396 15.6636 100.667 15.8273 101.121 15.9546C101.612 16.1 102.558 16.3182 103.067 16.4455C103.576 16.5728 104.085 16.7546 104.54 16.991C106.049 17.791 106.267 19.0275 106.267 19.7912C106.267 22.5731 103.558 23.4823 101.685 23.4823C100.231 23.4823 97.5031 23.2641 96.9212 20.4457C96.8667 20.173 97.1031 19.7548 97.5394 19.7548H99.1032C99.4123 19.7548 99.6123 19.9912 99.685 20.1548C99.885 20.7185 100.521 21.1367 101.612 21.1367C102.776 21.1367 103.449 20.6639 103.449 20.0457C103.449 19.6457 103.231 19.282 102.94 19.082C102.067 18.482 99.885 18.4093 98.7213 17.7729C98.2668 17.5365 97.1394 16.9728 97.1394 15.0636C97.1394 12.4453 99.485 11.3361 101.54 11.3361C104.576 11.3361 105.685 13.2817 105.813 14.009C105.885 14.409 105.667 14.8272 105.213 14.8272H103.776V14.8818ZM106.558 13.318V12.1362C106.558 11.8452 106.776 11.5179 107.176 11.5179H108.722V8.60867C108.722 8.29956 108.94 8.11773 109.104 8.045L110.758 7.33586C111.249 7.13585 111.631 7.53587 111.631 7.91771V11.5361H114.195C114.595 11.5361 114.831 11.8816 114.831 12.1543V13.3362C114.831 13.6817 114.522 13.9544 114.195 13.9544H111.631V18.9547C111.631 19.5184 111.613 19.973 111.831 20.3003C112.031 20.6094 112.34 20.7185 112.922 20.7185C113.086 20.7185 113.249 20.6821 113.377 20.6458C113.759 20.5185 114.031 20.7367 114.14 20.9185C114.322 21.2822 114.54 21.6822 114.704 21.9549C114.868 22.264 114.74 22.6459 114.431 22.8095C113.94 23.0459 113.268 23.2277 112.322 23.2277C111.54 23.2277 111.104 23.1368 110.631 22.9732C110.158 22.7913 109.722 22.5004 109.395 22.1186C109.104 21.7731 108.976 21.3185 108.867 20.8094C108.758 20.3003 108.74 19.6821 108.74 19.0093V13.9363H107.195C106.776 13.9363 106.558 13.5908 106.558 13.318ZM41.2451 13.318V12.1362C41.2451 11.8452 41.4633 11.5179 41.8633 11.5179H43.5907V8.60867C43.5907 8.29956 43.7907 8.11773 43.9544 8.045L45.5545 7.33586C46.0272 7.13585 46.4091 7.53587 46.4091 7.91771V11.5361H48.9001C49.282 11.5361 49.5183 11.8816 49.5183 12.1543V13.3362C49.5183 13.6817 49.2456 13.9544 48.9001 13.9544H46.4091V18.9547C46.4091 19.5184 46.3909 19.973 46.6091 20.3003C46.8091 20.6094 47.1 20.7185 47.6819 20.7185C47.8455 20.7185 47.991 20.6821 48.1183 20.6458C48.4819 20.5185 48.7547 20.7367 48.8638 20.9185C49.0456 21.2822 49.2638 21.6822 49.4092 21.9549C49.5729 22.264 49.4456 22.6641 49.1365 22.8095C48.6637 23.0459 47.991 23.2277 47.0818 23.2277C46.3363 23.2277 45.8999 23.1368 45.4272 22.9732C44.9544 22.7913 44.5362 22.5004 44.2271 22.1186C43.9544 21.7731 43.8089 21.3185 43.718 20.8094C43.6089 20.3003 43.5907 19.6821 43.5907 19.0093V13.9363H41.8815C41.4815 13.9363 41.2451 13.5908 41.2451 13.318ZM93.1028 22.955H94.6665C94.9938 22.955 95.2666 22.6822 95.2666 22.3368V12.2816C95.2666 11.9543 94.9938 11.6816 94.6665 11.6634H93.1028C92.7755 11.6634 92.5028 11.9361 92.5028 12.2816V22.3368C92.5028 22.6822 92.7755 22.955 93.1028 22.955Z" fill="white"/>
<path d="M9.17095 0.735352C7.27992 0.735352 5.73438 2.2809 5.73438 4.17193V24.8095C5.73438 26.7006 7.27992 28.2461 9.17095 28.2461H29.8267C31.7178 28.2461 33.2633 26.7006 33.2633 24.8095V4.1901C33.2633 2.29908 31.7178 0.753533 29.8267 0.753533H9.17095V0.735352Z" fill="white"/>
<path d="M11.5703 13.7727L22.6256 7.33591C22.8619 7.19045 22.8801 6.77224 22.6074 6.62678C22.3346 6.48132 21.8437 6.19039 21.6437 6.08129C21.3709 5.93583 21.0618 5.93582 20.7891 6.09947C20.6618 6.1722 11.8249 11.318 11.5158 11.4816C11.1703 11.6816 10.7158 11.6816 10.3703 11.4816L5.69727 8.73599V11.0634C6.82461 11.7362 9.66114 13.3908 10.3521 13.7908C10.7703 14.009 11.1703 14.009 11.5703 13.7727ZM11.5703 18.1729L22.6256 11.7362C22.8619 11.5907 22.8801 11.1725 22.6074 11.027C22.3346 10.8816 21.8437 10.5907 21.6437 10.4816C21.3709 10.3361 21.0618 10.3361 20.7891 10.4997C20.6618 10.5725 11.8249 15.7182 11.5158 15.8819C11.1703 16.0819 10.7158 16.0819 10.3703 15.8819L5.69727 13.1363V15.4637C6.82461 16.1364 9.66114 17.7911 10.3521 18.1911C10.7703 18.4093 11.1703 18.4093 11.5703 18.1729ZM11.5703 22.8641L22.6256 16.4274C22.8619 16.2819 22.8801 15.8637 22.6074 15.7182C22.3346 15.5728 21.8437 15.2818 21.6437 15.1728C21.3709 15.0273 21.0618 15.0273 20.7891 15.1909C20.6618 15.2637 11.8249 20.4094 11.5158 20.5731C11.1703 20.7731 10.7158 20.7731 10.3703 20.5731L5.69727 17.8275V20.1367C6.82461 20.8095 9.66114 22.4641 10.3521 22.8641C10.7703 23.0823 11.1703 23.0823 11.5703 22.8641Z" fill="black"/>
</g>
<defs>
<clipPath id="clip0_92_28692">
<rect width="118.553" height="27.638" fill="white" transform="translate(0.944336 0.680908)"/>
</clipPath>
</defs>
</svg>
