<svg width="64" height="64" viewBox="0 0 64 64" fill="none" xmlns="http://www.w3.org/2000/svg">
<rect width="64" height="64" rx="16" fill="#EEEFF5" fill-opacity="0.1"/>
<path d="M25.9727 40.4673L30.106 43.6673C30.6393 44.2006 31.8393 44.4673 32.6393 44.4673H37.706C39.306 44.4673 41.0393 43.2673 41.4393 41.6673L44.6393 31.9339C45.306 30.0673 44.106 28.4673 42.106 28.4673H36.7727C35.9727 28.4673 35.306 27.8006 35.4393 26.8673L36.106 22.6006C36.3727 21.4006 35.5727 20.0673 34.3727 19.6673C33.306 19.2673 31.9727 19.8006 31.4393 20.6006L25.9727 28.7339" stroke="#EEEFF5" stroke-width="2" stroke-miterlimit="10"/>
<path d="M19.1738 40.4652V27.3986C19.1738 25.5319 19.9738 24.8652 21.8405 24.8652H23.1738C25.0405 24.8652 25.8405 25.5319 25.8405 27.3986V40.4652C25.8405 42.3319 25.0405 42.9986 23.1738 42.9986H21.8405C19.9738 42.9986 19.1738 42.3319 19.1738 40.4652Z" stroke="#EEEFF5" stroke-width="2" stroke-linecap="round" stroke-linejoin="round"/>
</svg>
