<svg width="100" height="74" viewBox="0 0 100 74" fill="none" xmlns="http://www.w3.org/2000/svg">
<path d="M70.7833 11.1236L85.7257 6.14275C92.4313 3.90755 96.0745 7.56835 93.8569 14.274L88.8761 29.2164C85.5321 39.266 80.0409 39.266 76.6969 29.2164L75.2185 24.7812L70.7833 23.3028C60.7337 19.9588 60.7337 14.4852 70.7833 11.1236Z" stroke="#2FB5AA" stroke-width="3.3" stroke-linecap="round" stroke-linejoin="round"/>
<path d="M75.5527 24.0254L81.8535 17.707" stroke="#2FB5AA" stroke-width="3.3" stroke-linecap="round" stroke-linejoin="round"/>
<path d="M69.4353 33.9279C62.248 36.5453 53.7253 58.5319 43.3794 52.1954C35.855 47.587 41.6606 39.3197 47.5273 40.3317C54.3476 41.5083 57.8845 49.697 50.66 57.7116C39.5894 69.9931 29.4354 50.3148 1.00105 58.5077" stroke="url(#paint0_linear_3358_54032)" stroke-width="3.3"/>
<defs>
<linearGradient id="paint0_linear_3358_54032" x1="68.9544" y1="32.965" x2="-1.89059" y2="59.4716" gradientUnits="userSpaceOnUse">
<stop stop-color="#2FB5AA"/>
<stop offset="1" stop-color="#2FB5AA" stop-opacity="0"/>
</linearGradient>
</defs>
</svg>
