<svg width="64" height="64" viewBox="0 0 64 64" fill="none" xmlns="http://www.w3.org/2000/svg">
<g filter="url(#filter0_b_4197_85209)">
<rect width="64" height="64" rx="16" fill="url(#paint0_linear_4197_85209)"/>
</g>
<path d="M26.6668 45.3333H37.3334C42.6934 45.3333 43.6534 43.1867 43.9334 40.5733L44.9334 29.9067C45.2934 26.6533 44.3601 24 38.6668 24H25.3334C19.6401 24 18.7068 26.6533 19.0668 29.9067L20.0668 40.5733C20.3468 43.1867 21.3068 45.3333 26.6668 45.3333Z" stroke="#4076F5" stroke-width="2" stroke-miterlimit="10" stroke-linecap="round" stroke-linejoin="round"/>
<path d="M26.667 24.0003V22.9337C26.667 20.5737 26.667 18.667 30.9337 18.667H33.067C37.3337 18.667 37.3337 20.5737 37.3337 22.9337V24.0003" stroke="#4076F5" stroke-width="2" stroke-miterlimit="10" stroke-linecap="round" stroke-linejoin="round"/>
<path d="M34.6663 33.3333V34.6667C34.6663 34.68 34.6663 34.68 34.6663 34.6933C34.6663 36.1467 34.653 37.3333 31.9997 37.3333C29.3597 37.3333 29.333 36.16 29.333 34.7067V33.3333C29.333 32 29.333 32 30.6663 32H33.333C34.6663 32 34.6663 32 34.6663 33.3333Z" stroke="#4076F5" stroke-width="2" stroke-miterlimit="10" stroke-linecap="round" stroke-linejoin="round"/>
<path d="M44.867 30.667C41.787 32.907 38.267 34.2403 34.667 34.6937" stroke="#4076F5" stroke-width="2" stroke-miterlimit="10" stroke-linecap="round" stroke-linejoin="round"/>
<path d="M19.4932 31.0264C22.4932 33.0797 25.8798 34.3197 29.3332 34.7064" stroke="#4076F5" stroke-width="2" stroke-miterlimit="10" stroke-linecap="round" stroke-linejoin="round"/>
<defs>
<filter id="filter0_b_4197_85209" x="-4" y="-4" width="72" height="72" filterUnits="userSpaceOnUse" color-interpolation-filters="sRGB">
<feFlood flood-opacity="0" result="BackgroundImageFix"/>
<feGaussianBlur in="BackgroundImageFix" stdDeviation="2"/>
<feComposite in2="SourceAlpha" operator="in" result="effect1_backgroundBlur_4197_85209"/>
<feBlend mode="normal" in="SourceGraphic" in2="effect1_backgroundBlur_4197_85209" result="shape"/>
</filter>
<linearGradient id="paint0_linear_4197_85209" x1="0" y1="0" x2="64" y2="64" gradientUnits="userSpaceOnUse">
<stop stop-color="#F0F2F8"/>
<stop offset="1" stop-color="#BFC5D5"/>
</linearGradient>
</defs>
</svg>
