<svg width="64" height="64" viewBox="0 0 64 64" fill="none" xmlns="http://www.w3.org/2000/svg">
<g filter="url(#filter0_b_3358_49812)">
<rect width="64" height="64" rx="16" fill="url(#paint0_linear_3358_49812)"/>
</g>
<path d="M26.6658 45.3333H37.3325C42.6925 45.3333 43.6525 43.1867 43.9325 40.5733L44.9325 29.9067C45.2925 26.6533 44.3591 24 38.6658 24H25.3325C19.6391 24 18.7058 26.6533 19.0658 29.9067L20.0658 40.5733C20.3458 43.1867 21.3058 45.3333 26.6658 45.3333Z" stroke="#2FB8A4" stroke-width="2" stroke-miterlimit="10" stroke-linecap="round" stroke-linejoin="round"/>
<path d="M26.666 24.0003V22.9337C26.666 20.5737 26.666 18.667 30.9327 18.667H33.066C37.3327 18.667 37.3327 20.5737 37.3327 22.9337V24.0003" stroke="#2FB8A4" stroke-width="2" stroke-miterlimit="10" stroke-linecap="round" stroke-linejoin="round"/>
<path d="M34.6673 33.3333V34.6667C34.6673 34.68 34.6673 34.68 34.6673 34.6933C34.6673 36.1467 34.654 37.3333 32.0007 37.3333C29.3607 37.3333 29.334 36.16 29.334 34.7067V33.3333C29.334 32 29.334 32 30.6673 32H33.334C34.6673 32 34.6673 32 34.6673 33.3333Z" stroke="#2FB8A4" stroke-width="2" stroke-miterlimit="10" stroke-linecap="round" stroke-linejoin="round"/>
<path d="M44.866 30.667C41.786 32.907 38.266 34.2403 34.666 34.6937" stroke="#2FB8A4" stroke-width="2" stroke-miterlimit="10" stroke-linecap="round" stroke-linejoin="round"/>
<path d="M19.4941 31.0264C22.4941 33.0797 25.8808 34.3197 29.3341 34.7064" stroke="#2FB8A4" stroke-width="2" stroke-miterlimit="10" stroke-linecap="round" stroke-linejoin="round"/>
<defs>
<filter id="filter0_b_3358_49812" x="-4" y="-4" width="72" height="72" filterUnits="userSpaceOnUse" color-interpolation-filters="sRGB">
<feFlood flood-opacity="0" result="BackgroundImageFix"/>
<feGaussianBlur in="BackgroundImageFix" stdDeviation="2"/>
<feComposite in2="SourceAlpha" operator="in" result="effect1_backgroundBlur_3358_49812"/>
<feBlend mode="normal" in="SourceGraphic" in2="effect1_backgroundBlur_3358_49812" result="shape"/>
</filter>
<linearGradient id="paint0_linear_3358_49812" x1="0" y1="0" x2="64" y2="64" gradientUnits="userSpaceOnUse">
<stop stop-color="#F0F2F8"/>
<stop offset="1" stop-color="#BFC5D5"/>
</linearGradient>
</defs>
</svg>
