<svg width="38" height="38" viewBox="0 0 38 38" fill="none" xmlns="http://www.w3.org/2000/svg">
<rect width="38" height="38" rx="10" fill="#5721F2"/>
<path d="M16.334 12.334V14.334" stroke="#EEEFF5" stroke-width="1.25" stroke-miterlimit="10" stroke-linecap="round" stroke-linejoin="round"/>
<path d="M21.666 12.334V14.334" stroke="#EEEFF5" stroke-width="1.25" stroke-miterlimit="10" stroke-linecap="round" stroke-linejoin="round"/>
<path d="M13.334 17.0605H24.6673" stroke="#EEEFF5" stroke-width="1.25" stroke-miterlimit="10" stroke-linecap="round" stroke-linejoin="round"/>
<path d="M25 16.6673V22.334C25 24.334 24 25.6673 21.6667 25.6673H16.3333C14 25.6673 13 24.334 13 22.334V16.6673C13 14.6673 14 13.334 16.3333 13.334H21.6667C24 13.334 25 14.6673 25 16.6673Z" stroke="#EEEFF5" stroke-width="1.25" stroke-miterlimit="10" stroke-linecap="round" stroke-linejoin="round"/>
<path d="M21.4625 20.1341H21.4685" stroke="#EEEFF5" stroke-width="1.25" stroke-linecap="round" stroke-linejoin="round"/>
<path d="M21.4625 22.1341H21.4685" stroke="#EEEFF5" stroke-width="1.25" stroke-linecap="round" stroke-linejoin="round"/>
<path d="M18.9957 20.1341H19.0017" stroke="#EEEFF5" stroke-width="1.25" stroke-linecap="round" stroke-linejoin="round"/>
<path d="M18.9957 22.1341H19.0017" stroke="#EEEFF5" stroke-width="1.25" stroke-linecap="round" stroke-linejoin="round"/>
<path d="M16.5289 20.1341H16.5349" stroke="#EEEFF5" stroke-width="1.25" stroke-linecap="round" stroke-linejoin="round"/>
<path d="M16.5289 22.1341H16.5349" stroke="#EEEFF5" stroke-width="1.25" stroke-linecap="round" stroke-linejoin="round"/>
</svg>
