<svg width="38" height="38" viewBox="0 0 38 38" fill="none" xmlns="http://www.w3.org/2000/svg">
<rect width="38" height="38" rx="10" fill="url(#paint0_linear_3358_50298)"/>
<path d="M21.3866 18.9999C21.3866 20.3199 20.3199 21.3866 18.9999 21.3866C17.6799 21.3866 16.6133 20.3199 16.6133 18.9999C16.6133 17.6799 17.6799 16.6133 18.9999 16.6133C20.3199 16.6133 21.3866 17.6799 21.3866 18.9999Z" stroke="#EEEFF5" stroke-width="1.25" stroke-linecap="round" stroke-linejoin="round"/>
<path d="M18.9999 24.5118C21.3532 24.5118 23.5466 23.1252 25.0732 20.7252C25.6732 19.7852 25.6732 18.2052 25.0732 17.2652C23.5466 14.8652 21.3532 13.4785 18.9999 13.4785C16.6466 13.4785 14.4532 14.8652 12.9266 17.2652C12.3266 18.2052 12.3266 19.7852 12.9266 20.7252C14.4532 23.1252 16.6466 24.5118 18.9999 24.5118Z" stroke="#EEEFF5" stroke-width="1.25" stroke-linecap="round" stroke-linejoin="round"/>
<defs>
<linearGradient id="paint0_linear_3358_50298" x1="0" y1="0" x2="38" y2="38" gradientUnits="userSpaceOnUse">
<stop stop-color="#292A2E"/>
<stop offset="1" stop-color="#41444A"/>
</linearGradient>
</defs>
</svg>
