<svg width="38" height="38" viewBox="0 0 38 38" fill="none" xmlns="http://www.w3.org/2000/svg">
<rect width="38" height="38" rx="10" fill="url(#paint0_linear_5311_79524)"/>
<path d="M13.334 23.0007V15.6673C13.334 13.0007 14.0007 12.334 16.6673 12.334H21.334C24.0007 12.334 24.6673 13.0007 24.6673 15.6673V22.334C24.6673 22.4273 24.6673 22.5207 24.6607 22.614" stroke="#EEEFF5" stroke-width="1.25" stroke-linecap="round" stroke-linejoin="round"/>
<path d="M15.234 21H24.6673V23.3333C24.6673 24.62 23.6207 25.6667 22.334 25.6667H15.6673C14.3807 25.6667 13.334 24.62 13.334 23.3333V22.9C13.334 21.8533 14.1873 21 15.234 21Z" stroke="#EEEFF5" stroke-width="1.25" stroke-linecap="round" stroke-linejoin="round"/>
<path d="M16.334 15.666H21.6673" stroke="#EEEFF5" stroke-width="1.25" stroke-linecap="round" stroke-linejoin="round"/>
<path d="M16.334 18H19.6673" stroke="#EEEFF5" stroke-width="1.25" stroke-linecap="round" stroke-linejoin="round"/>
<defs>
<linearGradient id="paint0_linear_5311_79524" x1="0" y1="0" x2="38" y2="38" gradientUnits="userSpaceOnUse">
<stop stop-color="#292A2E"/>
<stop offset="1" stop-color="#41444A"/>
</linearGradient>
</defs>
</svg>
