<svg width="64" height="64" viewBox="0 0 64 64" fill="none" xmlns="http://www.w3.org/2000/svg">
<rect width="64" height="64" rx="16" fill="url(#paint0_linear_3358_48223)"/>
<path d="M45.3333 27.3594V21.306C45.3333 19.426 44.48 18.666 42.36 18.666H36.9733C34.8533 18.666 34 19.426 34 21.306V27.346C34 29.2394 34.8533 29.986 36.9733 29.986H42.36C44.48 29.9994 45.3333 29.2394 45.3333 27.3594Z" stroke="#F27E21" stroke-width="2" stroke-linecap="round" stroke-linejoin="round"/>
<path d="M45.3333 42.36V36.9733C45.3333 34.8533 44.48 34 42.36 34H36.9733C34.8533 34 34 34.8533 34 36.9733V42.36C34 44.48 34.8533 45.3333 36.9733 45.3333H42.36C44.48 45.3333 45.3333 44.48 45.3333 42.36Z" stroke="#F27E21" stroke-width="2" stroke-linecap="round" stroke-linejoin="round"/>
<path d="M29.9974 27.3594V21.306C29.9974 19.426 29.1441 18.666 27.0241 18.666H21.6374C19.5174 18.666 18.6641 19.426 18.6641 21.306V27.346C18.6641 29.2394 19.5174 29.986 21.6374 29.986H27.0241C29.1441 29.9994 29.9974 29.2394 29.9974 27.3594Z" stroke="#F27E21" stroke-width="2" stroke-linecap="round" stroke-linejoin="round"/>
<path d="M29.9974 42.36V36.9733C29.9974 34.8533 29.1441 34 27.0241 34H21.6374C19.5174 34 18.6641 34.8533 18.6641 36.9733V42.36C18.6641 44.48 19.5174 45.3333 21.6374 45.3333H27.0241C29.1441 45.3333 29.9974 44.48 29.9974 42.36Z" stroke="#F27E21" stroke-width="2" stroke-linecap="round" stroke-linejoin="round"/>
<defs>
<linearGradient id="paint0_linear_3358_48223" x1="0" y1="0" x2="64" y2="64" gradientUnits="userSpaceOnUse">
<stop stop-color="#F0F2F8"/>
<stop offset="1" stop-color="#BFC5D5"/>
</linearGradient>
</defs>
</svg>
