<svg width="38" height="38" viewBox="0 0 38 38" fill="none" xmlns="http://www.w3.org/2000/svg">
<rect width="38" height="38" rx="10" fill="#EEEFF5" fill-opacity="0.2"/>
<path d="M22.1335 23.6523H15.8668C15.5868 23.6523 15.2735 23.4323 15.1801 23.1656L12.4201 15.4456C12.0268 14.3389 12.4868 13.9989 13.4335 14.6789L16.0335 16.5389C16.4668 16.8389 16.9601 16.6856 17.1468 16.1989L18.3201 13.0723C18.6935 12.0723 19.3135 12.0723 19.6868 13.0723L20.8601 16.1989C21.0468 16.6856 21.5401 16.8389 21.9668 16.5389L24.4068 14.7989C25.4468 14.0523 25.9468 14.4323 25.5201 15.6389L22.8268 23.1789C22.7268 23.4323 22.4135 23.6523 22.1335 23.6523Z" stroke="#EEEFF5" stroke-width="1.25" stroke-linecap="round" stroke-linejoin="round"/>
<path d="M15.334 25.666H22.6673" stroke="#EEEFF5" stroke-width="1.25" stroke-linecap="round" stroke-linejoin="round"/>
<path d="M17.334 20.334H20.6673" stroke="#EEEFF5" stroke-width="1.25" stroke-linecap="round" stroke-linejoin="round"/>
</svg>
