<svg width="64" height="64" viewBox="0 0 64 64" fill="none" xmlns="http://www.w3.org/2000/svg">
<rect width="64" height="64" rx="16" fill="url(#paint0_linear_3358_55382)"/>
<path d="M29.4 19.3734L21.3734 24.6134C18.8 26.2934 18.8 30.0534 21.3734 31.7334L29.4 36.9734C30.84 37.92 33.2134 37.92 34.6534 36.9734L42.64 31.7334C45.2 30.0534 45.2 26.3067 42.64 24.6267L34.6534 19.3867C33.2134 18.4267 30.84 18.4267 29.4 19.3734Z" stroke="#4076F5" stroke-width="2" stroke-linecap="round" stroke-linejoin="round"/>
<path d="M23.5075 33.4404L23.4941 39.6938C23.4941 41.3871 24.8008 43.2004 26.4008 43.7338L30.6541 45.1471C31.3875 45.3871 32.6008 45.3871 33.3475 45.1471L37.6008 43.7338C39.2008 43.2004 40.5075 41.3871 40.5075 39.6938V33.5071" stroke="#4076F5" stroke-width="2" stroke-linecap="round" stroke-linejoin="round"/>
<path d="M44.5332 36V28" stroke="#4076F5" stroke-width="2" stroke-linecap="round" stroke-linejoin="round"/>
<defs>
<linearGradient id="paint0_linear_3358_55382" x1="0" y1="0" x2="64" y2="64" gradientUnits="userSpaceOnUse">
<stop stop-color="#F0F2F8"/>
<stop offset="1" stop-color="#BFC5D5"/>
</linearGradient>
</defs>
</svg>
