<svg width="222" height="58" viewBox="0 0 222 58" fill="none" xmlns="http://www.w3.org/2000/svg">
<g filter="url(#filter0_d_1166_29155)">
<path d="M116.45 35.8235C116.015 35.5814 115.772 35.315 115.724 35.0245C115.7 34.734 115.869 34.2256 116.232 33.4993C116.596 32.773 117.165 31.6473 117.94 30.122C118.521 29.0326 118.957 28.1852 119.247 27.58C119.562 26.9505 119.768 26.5027 119.865 26.2363C119.986 25.97 120.046 25.8006 120.046 25.7279C119.998 25.5101 120.022 25.3406 120.119 25.2195C120.216 25.0743 120.373 24.9532 120.591 24.8564C120.712 24.7353 120.906 24.5174 121.172 24.2027C121.463 23.888 121.729 23.5127 121.972 23.077C122.19 22.5686 122.444 22.048 122.734 21.5154C123.025 20.9828 123.412 20.317 123.897 19.5181C124.381 18.695 125.011 17.6297 125.786 16.3224C126.27 15.4751 126.803 14.6156 127.384 13.7441C127.965 12.8483 128.582 11.9646 129.236 11.0931C129.503 10.7541 129.745 10.4878 129.963 10.2942C130.181 10.0763 130.399 9.97942 130.617 10.0036C130.907 10.0036 131.234 10.1005 131.597 10.2942C131.985 10.4878 132.336 10.742 132.651 11.0568C132.965 11.3715 133.196 11.7104 133.341 12.0736C133.462 12.2673 133.51 12.6788 133.486 13.3083C133.462 13.9377 133.413 14.7003 133.341 15.5961C133.268 16.4919 133.183 17.4482 133.087 18.465C133.014 19.4576 132.905 20.6318 132.76 21.9875C132.614 23.3433 132.469 24.7595 132.324 26.2363C132.203 27.7132 132.106 29.1415 132.033 30.5215C131.961 31.8772 131.961 33.0635 132.033 34.0803C132.057 34.2982 132.057 34.504 132.033 34.6977C132.009 34.8914 131.997 35.0487 131.997 35.1698C131.852 35.3151 131.609 35.3756 131.27 35.3514C130.956 35.3514 130.641 35.2787 130.326 35.1335C130.035 34.9882 129.866 34.8066 129.817 34.5888C129.745 34.5161 129.696 34.4193 129.672 34.2982C129.672 34.153 129.684 33.8625 129.708 33.4267C129.733 32.9909 129.757 32.3009 129.781 31.3567L129.963 25.4737L129.491 25.5101C129.273 25.5101 128.861 25.5343 128.256 25.5827C127.65 25.6311 126.996 25.7037 126.294 25.8006C125.592 25.8732 124.938 25.9579 124.333 26.0548C123.751 26.1274 123.352 26.2 123.134 26.2727C122.916 26.2727 122.65 26.4179 122.335 26.7084C122.044 26.999 121.766 27.3742 121.499 27.8342C121.403 28.1731 121.221 28.5363 120.955 28.9236C120.712 29.2868 120.591 29.5289 120.591 29.6499C120.422 29.771 120.276 29.9162 120.155 30.0857C120.059 30.2552 120.01 30.3399 120.01 30.3399C120.01 30.4852 119.889 30.8483 119.647 31.4294C119.429 31.9862 119.15 32.6157 118.811 33.3177C118.472 33.9956 118.133 34.5888 117.794 35.0972L117.032 36.2592L116.45 35.8235ZM123.969 24.1301C123.969 24.1301 124.09 24.1059 124.333 24.0575C124.599 24.009 124.902 23.9606 125.241 23.9122C125.604 23.8396 125.931 23.8033 126.221 23.8033C127.238 23.5612 127.977 23.4038 128.437 23.3312C128.897 23.2343 129.212 23.1859 129.382 23.1859C129.575 23.1859 129.745 23.2222 129.89 23.2948C129.987 23.4159 130.072 23.4885 130.144 23.5127C130.241 23.5369 130.29 23.5491 130.29 23.5491C130.314 23.5006 130.35 23.2222 130.399 22.7138C130.447 22.2054 130.508 21.5759 130.58 20.8254C130.677 20.0749 130.762 19.3002 130.834 18.5013C130.931 17.6782 131.004 16.9277 131.052 16.2498C131.101 15.5477 131.137 15.0151 131.161 14.6519C131.186 14.1919 131.21 13.7804 131.234 13.4172C131.258 13.0299 131.27 12.8362 131.27 12.8362C131.125 12.8362 130.81 13.1025 130.326 13.6351C129.866 14.1677 129.345 14.8698 128.764 15.7414C128.183 16.6129 127.638 17.545 127.129 18.5376C126.887 18.9976 126.657 19.4092 126.439 19.7723C126.221 20.1355 126.052 20.317 125.931 20.317C125.882 20.3655 125.737 20.5833 125.495 20.9707C125.277 21.3338 125.035 21.7575 124.768 22.2417C124.502 22.7017 124.284 23.1254 124.115 23.5127C123.945 23.8759 123.897 24.0817 123.969 24.1301Z" fill="#7346F3"/>
<path d="M138.679 34.2256C137.976 34.3467 137.335 34.3103 136.753 34.1167C136.172 33.8988 135.7 33.5477 135.337 33.0635C134.998 32.5551 134.828 31.9136 134.828 31.1388C134.756 30.4125 134.84 29.5773 135.083 28.6331C135.325 27.6647 135.676 26.6963 136.136 25.7279C136.62 24.7595 137.141 23.9243 137.698 23.2222C138.182 22.6412 138.667 22.1086 139.151 21.6244C139.635 21.1402 140.071 20.8133 140.458 20.6439C140.798 20.4986 141.112 20.4139 141.403 20.3897C141.718 20.3412 141.972 20.317 142.166 20.317C142.553 20.4139 142.965 20.5954 143.401 20.8618C143.861 21.1039 144.091 21.3702 144.091 21.6607C144.091 21.6607 144.115 21.697 144.163 21.7696C144.236 21.818 144.272 21.8423 144.272 21.8423C144.418 21.8423 144.539 21.9996 144.636 22.3143C144.757 22.6291 144.829 22.9922 144.854 23.4038C144.878 23.7912 144.817 24.118 144.672 24.3843C144.575 24.8443 144.406 25.2437 144.163 25.5827C143.921 25.9216 143.703 26.0911 143.51 26.0911C143.413 26.0911 143.316 26.1032 143.219 26.1274C143.146 26.1274 143.11 26.1879 143.11 26.309C143.11 26.43 143.037 26.4784 142.892 26.4542C142.771 26.43 142.638 26.3574 142.493 26.2363C142.347 26.0911 142.238 25.9216 142.166 25.7279C142.166 25.6069 142.214 25.4011 142.311 25.1106C142.408 24.8201 142.505 24.4448 142.602 23.9848C142.747 23.307 142.735 22.8712 142.565 22.6775C142.396 22.4596 142.069 22.4475 141.585 22.6412C140.979 22.9801 140.398 23.4522 139.841 24.0575C139.308 24.6627 138.812 25.4495 138.352 26.4179C137.892 27.3621 137.48 28.5484 137.117 29.9768C136.971 30.5336 136.911 31.0178 136.935 31.4294C136.984 31.8409 137.044 32.0588 137.117 32.083C137.456 32.1799 137.916 32.2041 138.497 32.1557C139.078 32.083 139.502 31.9741 139.768 31.8288C140.156 31.6351 140.592 31.3809 141.076 31.0662C141.56 30.7273 141.984 30.4247 142.347 30.1583C142.468 30.0857 142.614 29.9647 142.783 29.7952C142.953 29.6257 143.134 29.4926 143.328 29.3957C143.522 29.1052 143.691 28.9357 143.837 28.8873C143.982 28.8389 144.2 28.8147 144.49 28.8147C144.684 28.8631 144.866 28.9357 145.035 29.0326C145.205 29.1294 145.314 29.2263 145.362 29.3231C145.435 29.4199 145.398 29.5047 145.253 29.5773C145.156 29.5773 145.096 29.6136 145.072 29.6863C145.072 29.7347 145.072 29.7589 145.072 29.7589C145.12 29.8557 145.011 30.0615 144.745 30.3762C144.502 30.6668 144.188 30.9936 143.8 31.3567C143.413 31.7199 143.037 32.0346 142.674 32.3009C142.335 32.543 142.093 32.6641 141.948 32.6641C141.706 32.6641 141.585 32.7367 141.585 32.882C141.585 32.9304 141.403 33.0514 141.04 33.2451C140.701 33.4388 140.301 33.6325 139.841 33.8261C139.405 34.0198 139.018 34.153 138.679 34.2256Z" fill="#7346F3"/>
<path d="M146.796 33.3177C146.699 33.1241 146.578 32.9788 146.433 32.882C146.287 32.7609 146.215 32.652 146.215 32.5551C146.215 32.4583 146.202 32.3614 146.178 32.2646C146.178 32.1436 146.13 32.0346 146.033 31.9378C145.912 31.7925 145.924 31.4657 146.069 30.9573C146.215 30.4247 146.457 29.7831 146.796 29.0326C147.135 28.2579 147.534 27.4468 147.994 26.5995C148.188 26.4058 148.382 26.1516 148.576 25.8369C148.769 25.5222 148.915 25.3164 149.012 25.2195C149.012 25.1227 149.048 25.038 149.12 24.9653C149.193 24.8685 149.278 24.8201 149.375 24.8201V24.6022C149.375 24.4811 149.484 24.2753 149.702 23.9848C149.944 23.6943 150.234 23.3796 150.573 23.0406C150.912 22.6775 151.264 22.3386 151.627 22.0238C151.99 21.6849 152.293 21.4428 152.535 21.2975C153.043 20.9586 153.564 20.7528 154.097 20.6802C154.654 20.6076 155.126 20.7286 155.513 21.0433C155.586 21.116 155.707 21.237 155.877 21.4065C156.046 21.5759 156.24 21.7696 156.458 21.9875C156.7 22.1812 156.942 22.387 157.184 22.6049L158.528 23.8033L157.874 25.619C157.56 26.5874 157.475 27.4347 157.62 28.161C157.79 28.8873 158.032 29.5168 158.347 30.0494C158.468 30.3157 158.71 30.5699 159.073 30.812C159.461 31.0541 159.824 31.1994 160.163 31.2478C160.357 31.272 160.538 31.3446 160.708 31.4657C160.877 31.5867 160.962 31.7804 160.962 32.0467C160.962 32.2888 160.913 32.4825 160.817 32.6278C160.72 32.773 160.55 32.8699 160.308 32.9183C159.509 33.0151 158.758 32.8214 158.056 32.3372C157.378 31.853 156.748 31.0541 156.167 29.9405C156.07 29.7952 155.937 29.5289 155.768 29.1415C155.622 28.73 155.538 28.4637 155.513 28.3426C155.417 28.4637 155.235 28.6936 154.969 29.0326C154.702 29.3473 154.496 29.5773 154.351 29.7226C152.632 31.4657 151.142 32.6399 149.883 33.2451C148.648 33.8261 147.619 33.8504 146.796 33.3177ZM148.103 31.2841C148.103 31.4536 148.358 31.4536 148.866 31.2841C149.399 31.0904 149.968 30.7515 150.573 30.2673C151.397 29.5652 152.22 28.7905 153.043 27.9431C153.891 27.0958 154.569 26.309 155.078 25.5827L155.877 24.2753C155.634 23.7185 155.368 23.3433 155.078 23.1496C154.811 22.9317 154.581 22.8228 154.387 22.8228C154.073 22.8228 153.6 23.1133 152.971 23.6943C152.365 24.2753 151.712 25.0501 151.009 26.0185C150.307 26.9869 149.641 28.0521 149.012 29.2142C148.769 29.6984 148.551 30.1705 148.358 30.6304C148.188 31.0662 148.103 31.2841 148.103 31.2841Z" fill="#7346F3"/>
<path d="M170.607 34.2619C170.51 34.2619 170.364 34.2498 170.171 34.2256C170.001 34.1772 169.856 34.0682 169.735 33.8988C169.372 33.463 169.142 33.0998 169.045 32.8093C168.948 32.5188 168.936 32.0951 169.008 31.5383C169.057 31.1752 169.081 30.8604 169.081 30.5941C169.105 30.3036 169.129 30.0615 169.154 29.8678C169.057 29.771 168.875 29.8436 168.609 30.0857C168.367 30.3036 168.028 30.582 167.592 30.921C166.768 31.8651 166.03 32.5914 165.376 33.0998C164.746 33.584 164.177 33.9109 163.669 34.0803C163.16 34.2256 162.676 34.274 162.216 34.2256C161.804 34.1772 161.477 34.0077 161.235 33.7172C160.993 33.4025 160.836 33.003 160.763 32.5188C160.715 32.0346 160.715 31.5141 160.763 30.9573C160.86 30.1583 161.029 29.3957 161.272 28.6694C161.538 27.9431 161.962 27.1321 162.543 26.2363C162.809 25.7522 163.16 25.2801 163.596 24.8201C164.056 24.3359 164.553 23.9122 165.085 23.5491C165.642 23.1617 166.175 22.8833 166.684 22.7138C167.241 22.4959 167.81 22.3749 168.391 22.3507C168.972 22.3022 169.493 22.3507 169.953 22.4959C170.243 22.6412 170.473 22.7138 170.643 22.7138C170.837 22.7138 170.982 22.5928 171.079 22.3507C171.2 22.157 171.321 21.8665 171.442 21.4791C171.563 21.0675 171.708 20.7165 171.878 20.426L172.677 18.0655C172.943 17.4119 173.234 16.7219 173.549 15.9956C173.864 15.2693 174.239 14.3856 174.675 13.3446C175.087 12.5699 175.426 12.122 175.692 12.0009C175.958 11.8557 176.261 11.9525 176.6 12.2915C176.866 12.6062 176.963 12.9693 176.891 13.3809C176.818 13.7683 176.6 14.3977 176.237 15.2693C176.067 15.5356 175.922 15.7898 175.801 16.0319C175.68 16.2498 175.51 16.6008 175.292 17.085C174.978 17.8355 174.687 18.5134 174.421 19.1186C174.154 19.6997 173.876 20.3655 173.585 21.116C173.488 21.5033 173.355 21.9512 173.186 22.4596C173.04 22.968 172.919 23.428 172.822 23.8396C172.75 24.2269 172.665 24.5901 172.568 24.929C172.495 25.2437 172.411 25.4011 172.314 25.4011C172.12 25.619 171.938 26.0064 171.769 26.5632C171.599 27.0958 171.454 27.6526 171.333 28.2337C171.236 28.8147 171.151 29.2989 171.079 29.6863C171.03 29.9768 170.994 30.352 170.97 30.812C170.946 31.272 170.934 31.7199 170.934 32.1557C170.934 32.5672 170.934 32.8577 170.934 33.0272C170.934 33.5598 170.921 33.8988 170.897 34.044C170.873 34.1893 170.776 34.2619 170.607 34.2619ZM162.87 31.9741C163.378 31.9741 163.911 31.7562 164.468 31.3204C165.049 30.8846 165.63 30.4004 166.211 29.8678C166.575 29.5289 166.962 29.081 167.374 28.5242C167.81 27.9674 168.221 27.4105 168.609 26.8537C169.021 26.2969 169.347 25.8127 169.59 25.4011C169.832 24.9653 169.953 24.699 169.953 24.6022C169.953 24.4811 169.844 24.3964 169.626 24.348C169.408 24.2996 169.154 24.2753 168.863 24.2753C168.597 24.2511 168.379 24.2632 168.209 24.3117C167.677 24.4327 167.144 24.6748 166.611 25.038C166.103 25.4011 165.546 25.9458 164.94 26.6721C164.311 27.4468 163.79 28.2458 163.378 29.0689C162.991 29.892 162.749 30.582 162.652 31.1388C162.555 31.6957 162.628 31.9741 162.87 31.9741Z" fill="#7346F3"/>
<path d="M177.965 34.734C176.899 34.734 176.028 34.3346 175.35 33.5356C174.672 32.7125 174.345 31.6957 174.369 30.4852C174.417 29.6136 174.587 28.6815 174.877 27.6889C175.192 26.6721 175.604 25.7037 176.112 24.7838C176.621 23.8396 177.178 23.0164 177.783 22.3143C178.389 21.6123 179.018 21.116 179.672 20.8254C179.914 20.7044 180.169 20.6076 180.435 20.5349C180.726 20.4623 181.016 20.426 181.307 20.426C181.573 20.426 181.852 20.4744 182.142 20.5712C182.433 20.6439 182.675 20.7286 182.869 20.8254C183.28 20.9949 183.595 21.2007 183.813 21.4428C184.031 21.6849 184.225 22.0601 184.394 22.5686C184.467 23.0285 184.503 23.3554 184.503 23.5491C184.503 23.7427 184.443 24.0333 184.322 24.4206C184.031 25.2922 183.656 26.0427 183.196 26.6721C182.735 27.3016 182.118 27.8342 181.343 28.27C181.149 28.391 180.919 28.4879 180.653 28.5605C180.411 28.6089 180.156 28.6331 179.89 28.6331C179.406 28.6331 178.934 28.5484 178.473 28.3789C178.038 28.1852 177.686 27.9068 177.42 27.5437L177.166 27.2532L177.057 27.5437C176.815 28.1973 176.621 28.8026 176.476 29.3594C176.355 29.9162 176.294 30.4247 176.294 30.8846C176.294 31.1752 176.318 31.4536 176.367 31.7199C176.439 31.9862 176.536 32.2162 176.657 32.4099C176.754 32.5551 176.912 32.6641 177.13 32.7367C177.372 32.7851 177.626 32.8093 177.892 32.8093C178.062 32.8093 178.231 32.8093 178.401 32.8093C178.595 32.7851 178.776 32.7367 178.946 32.6641C179.357 32.5188 179.684 32.3614 179.926 32.192C180.193 32.0225 180.459 31.8409 180.726 31.6473L180.871 31.5746H180.834C181.125 31.4294 181.379 31.2841 181.597 31.1388C181.839 30.9936 181.961 30.921 181.961 30.921C182.057 30.921 182.154 30.8604 182.251 30.7394C182.445 30.6425 182.687 30.6789 182.978 30.8483C183.292 31.0178 183.45 31.2357 183.45 31.502C183.426 31.623 183.317 31.8167 183.123 32.083C182.929 32.3251 182.711 32.5551 182.469 32.773C182.251 32.9909 182.069 33.112 181.924 33.1362C181.9 33.1604 181.815 33.2088 181.67 33.2814C181.525 33.3298 181.428 33.3783 181.379 33.4267H181.416C181.198 33.7172 180.98 33.8625 180.762 33.8625H180.471C180.374 34.0319 180.06 34.2256 179.527 34.4435C178.994 34.6372 178.473 34.734 177.965 34.734ZM179.599 26.7448C180.035 26.7448 180.411 26.6237 180.726 26.3816C181.065 26.1153 181.355 25.8248 181.597 25.5101C182.082 24.8564 182.36 24.2269 182.433 23.6217C182.53 22.9922 182.457 22.5564 182.215 22.3143C182.069 22.2417 181.936 22.2054 181.815 22.2054C181.718 22.1812 181.513 22.2175 181.198 22.3143C180.98 22.3628 180.677 22.5443 180.29 22.8591C179.902 23.1738 179.515 23.5248 179.127 23.9122C178.764 24.2996 178.486 24.6264 178.292 24.8927L177.82 25.6553C178.013 25.5827 178.195 25.5464 178.365 25.5464C178.558 25.5222 178.667 25.5343 178.691 25.5827C178.691 25.8006 178.728 26.0064 178.8 26.2C178.897 26.3695 179.006 26.5027 179.127 26.5995C179.273 26.6963 179.43 26.7448 179.599 26.7448Z" fill="#7346F3"/>
<path d="M186.908 32.8456C186.641 32.6762 186.399 32.4583 186.181 32.192C185.963 31.9015 185.854 31.5383 185.854 31.1025C185.854 30.8604 185.903 30.4489 186 29.8678C186.096 29.2868 186.23 28.6331 186.399 27.9068C186.569 27.1805 186.738 26.5027 186.908 25.8732C187.15 25.4374 187.356 25.0016 187.525 24.5659C187.695 24.1301 187.779 23.8638 187.779 23.7669C187.828 23.4764 187.888 23.1375 187.961 22.7501C188.058 22.3628 188.155 22.0117 188.252 21.697C188.348 21.3823 188.421 21.2007 188.47 21.1523C188.591 21.0312 188.736 20.9586 188.905 20.9344C189.075 20.886 189.244 20.9102 189.414 21.007C189.608 21.0796 189.753 21.237 189.85 21.4791C190.116 21.7696 190.249 22.1207 190.249 22.5322C190.249 22.9196 190.116 23.5006 189.85 24.2753C189.632 24.7595 189.414 25.3285 189.196 25.9821C188.978 26.6358 188.784 27.2411 188.615 27.7979C188.47 28.3305 188.385 28.6937 188.361 28.8873L187.634 29.1052C188.046 28.7179 188.433 28.3184 188.796 27.9068C189.16 27.4711 189.426 27.1321 189.596 26.89C190.007 26.3332 190.358 25.8732 190.649 25.5101C190.964 25.1227 191.363 24.6627 191.848 24.1301C192.332 23.5733 192.804 23.2343 193.264 23.1133C193.748 22.968 194.124 22.8954 194.39 22.8954C194.923 22.9922 195.347 23.2706 195.662 23.7306C196.001 24.1664 196.218 24.8201 196.315 25.6916C196.315 26.0306 196.279 26.43 196.206 26.89C196.158 27.35 196.134 27.58 196.134 27.58C196.134 27.58 196.327 27.3258 196.715 26.8174C197.127 26.309 197.671 25.7522 198.349 25.1469C198.81 24.808 199.258 24.6143 199.693 24.5659C200.129 24.4932 200.517 24.6385 200.856 25.0016C201.485 25.3406 201.897 25.8611 202.091 26.5632C202.285 27.2411 202.333 28.1126 202.236 29.1778C202.163 29.8073 202.151 30.2794 202.2 30.5941C202.248 30.8846 202.321 31.1752 202.418 31.4657C202.611 31.5625 202.648 31.7683 202.527 32.083C202.406 32.3736 202.26 32.5188 202.091 32.5188C201.849 32.5188 201.57 32.4704 201.255 32.3736C200.965 32.2767 200.698 32.1193 200.456 31.9015C200.238 31.6594 200.129 31.3325 200.129 30.921V28.6694C200.129 28.1368 200.105 27.701 200.057 27.3621C200.032 27.0232 199.972 26.8174 199.875 26.7448C199.609 26.5995 199.221 26.7569 198.713 27.2168C198.204 27.6768 197.659 28.2942 197.078 29.0689C196.497 29.8436 195.952 30.6425 195.444 31.4657C194.984 32.2162 194.693 32.652 194.572 32.773C194.475 32.8699 194.293 32.8335 194.027 32.6641C193.494 32.4946 193.155 32.2646 193.01 31.9741C192.889 31.6594 192.877 31.3083 192.974 30.921C193.095 30.5094 193.24 29.9526 193.409 29.2505C193.603 28.5484 193.785 27.8705 193.954 27.2168C194.124 26.539 194.233 26.0548 194.281 25.7643C194.184 25.5706 194.015 25.5101 193.773 25.5827C193.555 25.6311 193.325 25.74 193.083 25.9095C192.792 26.1032 192.441 26.4663 192.029 26.999C191.618 27.5316 191.194 28.1489 190.758 28.851C190.467 29.311 190.165 29.771 189.85 30.231C189.535 30.6668 189.244 31.0541 188.978 31.393C188.712 31.732 188.482 31.9862 188.288 32.1557C187.949 32.6883 187.719 32.9788 187.598 33.0272C187.477 33.0756 187.247 33.0151 186.908 32.8456Z" fill="#7346F3"/>
<path d="M203.673 41.8517C203.092 42.0212 202.451 42.0454 201.748 41.9243C201.07 41.8275 200.477 41.6217 199.968 41.307C199.436 40.9923 199.133 40.6412 199.06 40.2539C199.036 40.1086 199.085 39.9512 199.206 39.7818C199.302 39.6123 199.436 39.4913 199.605 39.4186C199.75 39.3702 199.884 39.4186 200.005 39.5639C200.198 39.6849 200.55 39.8302 201.058 39.9997C201.567 40.1933 202.136 40.2297 202.765 40.1086C203.322 39.9876 203.867 39.6607 204.4 39.1281C204.957 38.5955 205.405 38.0992 205.744 37.6392C205.938 37.3487 206.264 36.8282 206.725 36.0777C207.185 35.3272 207.657 34.504 208.141 33.6083C208.65 32.6883 209.073 31.8409 209.413 31.0662C209.485 30.8725 209.57 30.6425 209.667 30.3762C209.764 30.1099 209.885 29.892 210.03 29.7226C210.175 29.4321 210.296 29.1657 210.393 28.9236C210.514 28.6573 210.587 28.4758 210.611 28.3789C210.635 28.2579 210.744 28.0158 210.938 27.6526C211.132 27.2895 211.313 26.9263 211.483 26.5632C211.604 26.2 211.786 25.6674 212.028 24.9653C212.27 24.2632 212.512 23.6943 212.754 23.2585C213.045 22.7017 213.275 22.2538 213.444 21.9149C213.638 21.5517 213.844 21.3338 214.062 21.2612C214.28 21.0918 214.425 21.007 214.498 21.007C214.595 21.007 214.776 21.0796 215.043 21.2249C215.333 21.5154 215.515 21.8059 215.587 22.0965C215.66 22.3628 215.624 22.7017 215.479 23.1133C215.357 23.5006 215.115 24.0332 214.752 24.7111C214.558 25.2922 214.34 25.8248 214.098 26.309C213.88 26.769 213.711 27.0716 213.59 27.2168C213.469 27.5074 213.323 27.8342 213.154 28.1973C213.009 28.5363 212.875 28.851 212.754 29.1415C212.318 30.1099 211.943 30.8967 211.628 31.502C211.313 32.1072 211.035 32.6641 210.793 33.1725C210.551 33.6809 210.296 34.274 210.03 34.9519C209.473 35.8477 208.928 36.695 208.395 37.4939C207.887 38.3171 207.342 39.0797 206.761 39.7818C206.519 39.9997 206.216 40.2539 205.853 40.5444C205.49 40.8349 205.114 41.1012 204.727 41.3433C204.364 41.5854 204.012 41.7549 203.673 41.8517ZM208.577 33.1362C208.214 33.0877 207.851 32.8699 207.487 32.4825C207.148 32.0951 206.882 31.6836 206.688 31.2478C206.495 30.812 206.422 30.4973 206.47 30.3036C206.47 30.1826 206.47 30.0857 206.47 30.0131C206.47 29.9405 206.47 29.9041 206.47 29.9041C206.325 29.9041 206.192 29.7226 206.071 29.3594C205.974 28.9963 205.901 28.5242 205.853 27.9431C205.804 27.3621 205.768 26.7448 205.744 26.0911C205.744 25.4374 205.768 24.8201 205.816 24.239C205.913 23.8275 205.962 23.3796 205.962 22.8954C205.962 22.387 205.974 21.9875 205.998 21.697C205.974 21.3096 206.01 21.0554 206.107 20.9344C206.204 20.7891 206.301 20.6802 206.398 20.6076C207.076 20.317 207.524 20.4986 207.742 21.1523C207.984 21.7817 208.044 22.968 207.923 24.7111C207.875 25.6795 207.875 26.6479 207.923 27.6163C207.972 28.5847 208.105 29.4321 208.323 30.1583C208.565 30.8846 208.892 31.3809 209.304 31.6473C209.473 31.7441 209.558 31.8772 209.558 32.0467C209.558 32.2162 209.509 32.3978 209.413 32.5914C209.316 32.7609 209.182 32.9062 209.013 33.0272C208.868 33.1241 208.722 33.1604 208.577 33.1362Z" fill="#7346F3"/>
</g>
<g filter="url(#filter1_d_1166_29155)">
<path fill-rule="evenodd" clip-rule="evenodd" d="M21 31.0152H47.1905V15.3906H21V31.0152Z" fill="#5721F2"/>
</g>
<g clip-path="url(#clip0_1166_29155)">
<path fill-rule="evenodd" clip-rule="evenodd" d="M34.1663 36.0338C34.0409 35.9105 33.9785 35.7513 33.9785 35.5523V10.9601C33.9785 10.7629 34.0409 10.6031 34.1663 10.4787C34.2913 10.3555 34.4539 10.2939 34.6542 10.2939H39.533C39.7328 10.2939 39.8948 10.3555 40.0208 10.4787C40.1456 10.6031 40.208 10.7629 40.208 10.9601V35.5523C40.208 35.7513 40.1456 35.9105 40.0208 36.0338C39.8948 36.1581 39.7328 36.2191 39.533 36.2191H34.6542C34.4539 36.2191 34.2913 36.1581 34.1663 36.0338Z" fill="#EEEFF5"/>
<path fill-rule="evenodd" clip-rule="evenodd" d="M44.1461 36.0338C44.0207 35.9105 43.959 35.7513 43.959 35.5523V10.9601C43.959 10.7629 44.0207 10.6031 44.1461 10.4787C44.2716 10.3555 44.4337 10.2939 44.634 10.2939H49.2499C49.6003 10.2939 49.8627 10.4419 50.0385 10.7381L58.2943 24.516C58.3441 24.6147 58.4065 24.6514 58.4816 24.6266C58.556 24.6024 58.595 24.5283 58.595 24.4045L58.556 10.9601C58.556 10.7629 58.619 10.6031 58.7439 10.4787C58.8699 10.3555 59.0325 10.2939 59.2317 10.2939H64.0348C64.2364 10.2939 64.3991 10.3555 64.5227 10.4787C64.6486 10.6031 64.7105 10.7629 64.7105 10.9601V35.5523C64.7105 35.7513 64.6486 35.9105 64.5227 36.0338C64.3991 36.1581 64.2364 36.2191 64.0348 36.2191H59.4196C59.0942 36.2191 58.832 36.0711 58.6317 35.775L50.3756 21.8117C50.3252 21.6886 50.2571 21.6394 50.1696 21.6637C50.0813 21.6886 50.0385 21.7627 50.0385 21.8864L50.1133 35.5523C50.1133 35.7513 50.0503 35.9105 49.9255 36.0338C49.8001 36.1581 49.6375 36.2191 49.4377 36.2191H44.634C44.4337 36.2191 44.2716 36.1581 44.1461 36.0338Z" fill="#EEEFF5"/>
<path fill-rule="evenodd" clip-rule="evenodd" d="M75.0713 35.6631L67.6033 11.0347C67.5779 10.9601 67.5654 10.8744 67.5654 10.7754C67.5654 10.4544 67.7659 10.2939 68.1656 10.2939H73.4576C73.8572 10.2939 74.1069 10.4916 74.2078 10.8862L78.4486 27.3309C78.4978 27.4292 78.554 27.4789 78.6169 27.4789C78.6788 27.4789 78.7234 27.4292 78.7486 27.3309L82.9138 10.8862C83.0134 10.4916 83.2642 10.2939 83.6641 10.2939H88.8427C89.0935 10.2939 89.2688 10.3555 89.3684 10.4787C89.468 10.6031 89.4805 10.7878 89.4061 11.0347L81.8637 35.6631C81.7628 36.0338 81.5006 36.2191 81.0746 36.2191H75.8214C75.4206 36.2191 75.1709 36.0338 75.0713 35.6631Z" fill="#EEEFF5"/>
<mask id="mask0_1166_29155" style="mask-type:alpha" maskUnits="userSpaceOnUse" x="90" y="10" width="21" height="27">
<path d="M90.4189 10H110.872V36.6282H90.4189V10Z" fill="white"/>
</mask>
<g mask="url(#mask0_1166_29155)">
<path fill-rule="evenodd" clip-rule="evenodd" d="M103.535 30.222C104.273 29.4557 104.642 28.4316 104.642 27.1477V19.4812C104.642 18.2221 104.273 17.2031 103.535 16.4255C102.797 15.6479 101.828 15.259 100.626 15.259C99.4502 15.259 98.4928 15.6479 97.7552 16.4255C97.0178 17.2031 96.649 18.2221 96.649 19.4812V27.1477C96.649 28.4316 97.0178 29.4557 97.7552 30.222C98.4928 30.9871 99.4502 31.3703 100.626 31.3703C101.828 31.3703 102.797 30.9871 103.535 30.222ZM95.2793 35.4257C93.7401 34.6232 92.5456 33.4928 91.6948 32.036C90.8438 30.5792 90.4189 28.8883 90.4189 26.9623V19.5553C90.4189 17.679 90.8438 16.0181 91.6948 14.5736C92.5456 13.1291 93.7401 12.0063 95.2793 11.2032C96.8173 10.4012 98.6005 10 100.626 10C102.653 10 104.441 10.4012 105.993 11.2032C107.544 12.0063 108.745 13.1291 109.596 14.5736C110.446 16.0181 110.872 17.679 110.872 19.5553V26.9623C110.872 28.8883 110.446 30.5792 109.596 32.036C108.745 33.4928 107.544 34.6232 105.993 35.4257C104.441 36.2271 102.653 36.6282 100.626 36.6282C98.6005 36.6282 96.8173 36.2271 95.2793 35.4257Z" fill="#EEEFF5"/>
</g>
</g>
<defs>
<filter id="filter0_d_1166_29155" x="97.2897" y="0.784001" width="124.478" height="56.576" filterUnits="userSpaceOnUse" color-interpolation-filters="sRGB">
<feFlood flood-opacity="0" result="BackgroundImageFix"/>
<feColorMatrix in="SourceAlpha" type="matrix" values="0 0 0 0 0 0 0 0 0 0 0 0 0 0 0 0 0 0 127 0" result="hardAlpha"/>
<feOffset dx="-6.144" dy="3.072"/>
<feGaussianBlur stdDeviation="6.144"/>
<feComposite in2="hardAlpha" operator="out"/>
<feColorMatrix type="matrix" values="0 0 0 0 0.341176 0 0 0 0 0.129412 0 0 0 0 0.94902 0 0 0 1 0"/>
<feBlend mode="normal" in2="BackgroundImageFix" result="effect1_dropShadow_1166_29155"/>
<feBlend mode="normal" in="SourceGraphic" in2="effect1_dropShadow_1166_29155" result="shape"/>
</filter>
<filter id="filter1_d_1166_29155" x="0.519466" y="2.59029" width="56.9112" height="46.3453" filterUnits="userSpaceOnUse" color-interpolation-filters="sRGB">
<feFlood flood-opacity="0" result="BackgroundImageFix"/>
<feColorMatrix in="SourceAlpha" type="matrix" values="0 0 0 0 0 0 0 0 0 0 0 0 0 0 0 0 0 0 127 0" result="hardAlpha"/>
<feOffset dx="-5.12013" dy="2.56007"/>
<feGaussianBlur stdDeviation="7.6802"/>
<feComposite in2="hardAlpha" operator="out"/>
<feColorMatrix type="matrix" values="0 0 0 0 0.341176 0 0 0 0 0.129412 0 0 0 0 0.94902 0 0 0 0.55 0"/>
<feBlend mode="normal" in2="BackgroundImageFix" result="effect1_dropShadow_1166_29155"/>
<feBlend mode="normal" in="SourceGraphic" in2="effect1_dropShadow_1166_29155" result="shape"/>
</filter>
<clipPath id="clip0_1166_29155">
<rect width="90.0036" height="26.7762" fill="white" transform="translate(21 10)"/>
</clipPath>
</defs>
</svg>
