<svg width="35" height="32" viewBox="0 0 35 32" fill="none" xmlns="http://www.w3.org/2000/svg">
<path d="M33.1825 16.5976C33.0354 16.5977 32.8898 16.5658 32.7553 16.504L23.7954 12.3525C23.6117 12.267 23.4558 12.1285 23.3463 11.9535C23.2369 11.7785 23.1787 11.5745 23.1787 11.3661C23.1787 11.1576 23.2369 10.9537 23.3463 10.7787C23.4558 10.6037 23.6117 10.4651 23.7954 10.3797L32.7553 6.24255C33.0082 6.12638 33.2953 6.11858 33.5538 6.22086C33.8122 6.32313 34.021 6.52716 34.1345 6.78831C34.2467 7.05018 34.254 7.34738 34.1549 7.61484C34.0558 7.8823 33.8583 8.09823 33.6056 8.21535L26.7793 11.3675L33.607 14.5312C33.8253 14.6319 34.0036 14.8071 34.1121 15.0275C34.2206 15.2479 34.2526 15.5002 34.2029 15.7421C34.1533 15.9841 34.0248 16.201 33.8391 16.3567C33.6533 16.5124 33.4216 16.5975 33.1825 16.5976Z" fill="#67BECE"/>
<path d="M20.972 31.6578C11.1215 31.6578 2.50956 24.7775 0.033702 14.925C-0.0360589 14.6479 0.00341487 14.3535 0.14344 14.1066C0.283464 13.8596 0.51257 13.6803 0.780356 13.6081C1.04814 13.5359 1.33267 13.5768 1.57135 13.7217C1.81003 13.8665 1.98332 14.1036 2.05308 14.3807C3.14528 18.7114 5.5951 22.5449 9.01873 25.2806C12.4424 28.0162 16.6463 29.4994 20.972 29.4978C21.2488 29.4978 21.5143 29.6116 21.7101 29.8141C21.9058 30.0167 22.0158 30.2914 22.0158 30.5778C22.0158 30.8642 21.9058 31.1389 21.7101 31.3415C21.5143 31.544 21.2488 31.6578 20.972 31.6578Z" fill="#3F54A3"/>
<path d="M17.3778 22.6901C17.1009 22.6901 16.8354 22.5763 16.6397 22.3738C16.444 22.1712 16.334 21.8965 16.334 21.6101V1.08C16.334 0.793566 16.444 0.518864 16.6397 0.316325C16.8354 0.113785 17.1009 0 17.3778 0C17.6546 0 17.9201 0.113785 18.1158 0.316325C18.3116 0.518864 18.4216 0.793566 18.4216 1.08V21.6101C18.4216 21.8965 18.3116 22.1712 18.1158 22.3738C17.9201 22.5763 17.6546 22.6901 17.3778 22.6901Z" fill="#67BECE"/>
</svg>
