<svg width="92" height="43" viewBox="0 0 92 43" fill="none" xmlns="http://www.w3.org/2000/svg">
<g filter="url(#filter0_d_1177_39579)">
<path d="M56.4282 29.3324C56.0681 29.1324 55.8681 28.9124 55.828 28.6724C55.808 28.4324 55.9481 28.0125 56.2481 27.4125C56.5482 26.8125 57.0183 25.8825 57.6584 24.6225C58.1385 23.7226 58.4986 23.0226 58.7387 22.5226C58.9987 22.0026 59.1687 21.6326 59.2488 21.4126C59.3488 21.1926 59.3988 21.0526 59.3988 20.9926C59.3588 20.8127 59.3788 20.6727 59.4588 20.5727C59.5388 20.4527 59.6689 20.3527 59.8489 20.2727C59.9489 20.1727 60.1089 19.9927 60.329 19.7327C60.569 19.4727 60.7891 19.1627 60.9891 18.8027C61.1692 18.3827 61.3792 17.9527 61.6193 17.5127C61.8593 17.0728 62.1794 16.5228 62.5795 15.8628C62.9795 15.1828 63.4997 14.3028 64.1398 13.2229C64.5399 12.5229 64.98 11.8129 65.4601 11.0929C65.9402 10.3529 66.4503 9.62296 66.9904 8.90298C67.2104 8.62298 67.4105 8.40299 67.5905 8.24299C67.7705 8.063 67.9506 7.983 68.1306 8.003C68.3707 8.003 68.6407 8.083 68.9408 8.24299C69.2609 8.40299 69.5509 8.61298 69.811 8.87298C70.071 9.13297 70.2611 9.41296 70.3811 9.71295C70.4811 9.87295 70.5211 10.2129 70.5011 10.7329C70.4811 11.2529 70.4411 11.8829 70.3811 12.6229C70.3211 13.3629 70.2511 14.1528 70.1711 14.9928C70.111 15.8128 70.021 16.7828 69.901 17.9027C69.781 19.0227 69.6609 20.1927 69.5409 21.4126C69.4409 22.6326 69.3609 23.8126 69.3009 24.9525C69.2409 26.0725 69.2409 27.0525 69.3009 27.8925C69.3209 28.0725 69.3209 28.2425 69.3009 28.4024C69.2809 28.5624 69.2709 28.6924 69.2709 28.7924C69.1508 28.9124 68.9508 28.9624 68.6707 28.9424C68.4107 28.9424 68.1506 28.8824 67.8906 28.7624C67.6505 28.6424 67.5105 28.4924 67.4705 28.3125C67.4105 28.2525 67.3705 28.1725 67.3505 28.0725C67.3505 27.9525 67.3605 27.7125 67.3805 27.3525C67.4005 26.9925 67.4205 26.4225 67.4405 25.6425L67.5905 20.7827L67.2004 20.8127C67.0204 20.8127 66.6803 20.8327 66.1802 20.8727C65.6801 20.9127 65.14 20.9726 64.5599 21.0526C63.9798 21.1126 63.4396 21.1826 62.9395 21.2626C62.4594 21.3226 62.1294 21.3826 61.9493 21.4426C61.7693 21.4426 61.5492 21.5626 61.2892 21.8026C61.0491 22.0426 60.8191 22.3526 60.599 22.7326C60.519 23.0126 60.369 23.3126 60.149 23.6326C59.9489 23.9326 59.8489 24.1326 59.8489 24.2326C59.7089 24.3326 59.5888 24.4526 59.4888 24.5926C59.4088 24.7325 59.3688 24.8025 59.3688 24.8025C59.3688 24.9225 59.2688 25.2225 59.0687 25.7025C58.8887 26.1625 58.6586 26.6825 58.3786 27.2625C58.0985 27.8225 57.8185 28.3125 57.5384 28.7324L56.9083 29.6924L56.4282 29.3324ZM62.6395 19.6727C62.6395 19.6727 62.7395 19.6527 62.9395 19.6127C63.1596 19.5727 63.4096 19.5327 63.6897 19.4927C63.9898 19.4327 64.2598 19.4027 64.4999 19.4027C65.34 19.2027 65.9502 19.0727 66.3302 19.0127C66.7103 18.9327 66.9704 18.8927 67.1104 18.8927C67.2704 18.8927 67.4105 18.9227 67.5305 18.9827C67.6105 19.0827 67.6805 19.1427 67.7405 19.1627C67.8206 19.1827 67.8606 19.1927 67.8606 19.1927C67.8806 19.1527 67.9106 18.9227 67.9506 18.5027C67.9906 18.0827 68.0406 17.5627 68.1006 16.9428C68.1806 16.3228 68.2506 15.6828 68.3107 15.0228C68.3907 14.3428 68.4507 13.7228 68.4907 13.1629C68.5307 12.5829 68.5607 12.1429 68.5807 11.8429C68.6007 11.4629 68.6207 11.1229 68.6407 10.8229C68.6607 10.5029 68.6707 10.3429 68.6707 10.3429C68.5507 10.3429 68.2907 10.5629 67.8906 11.0029C67.5105 11.4429 67.0804 12.0229 66.6003 12.7429C66.1202 13.4629 65.6701 14.2328 65.25 15.0528C65.05 15.4328 64.8599 15.7728 64.6799 16.0728C64.4999 16.3728 64.3598 16.5228 64.2598 16.5228C64.2198 16.5628 64.0998 16.7428 63.8997 17.0628C63.7197 17.3627 63.5197 17.7127 63.2996 18.1127C63.0796 18.4927 62.8995 18.8427 62.7595 19.1627C62.6195 19.4627 62.5795 19.6327 62.6395 19.6727Z" fill="#7346F3"/>
</g>
<g filter="url(#filter1_d_1177_39579)">
<path fill-rule="evenodd" clip-rule="evenodd" d="M17 25.3604H38.6356V12.4531H17V25.3604Z" fill="#5721F2"/>
</g>
<path fill-rule="evenodd" clip-rule="evenodd" d="M27.8763 29.506C27.7727 29.4042 27.7212 29.2726 27.7212 29.1083V8.79301C27.7212 8.6301 27.7727 8.49804 27.8763 8.39526C27.9795 8.29354 28.1139 8.24268 28.2794 8.24268H32.3097C32.4747 8.24268 32.6085 8.29354 32.7127 8.39526C32.8158 8.49804 32.8673 8.6301 32.8673 8.79301V29.1083C32.8673 29.2726 32.8158 29.4042 32.7127 29.506C32.6085 29.6087 32.4747 29.6591 32.3097 29.6591H28.2794C28.1139 29.6591 27.9795 29.6087 27.8763 29.506Z" fill="#EEEFF5"/>
<path fill-rule="evenodd" clip-rule="evenodd" d="M36.1209 29.506C36.0173 29.4042 35.9663 29.2726 35.9663 29.1083V8.79301C35.9663 8.6301 36.0173 8.49804 36.1209 8.39526C36.2245 8.29354 36.3585 8.24268 36.5239 8.24268H40.337C40.6265 8.24268 40.8433 8.36493 40.9885 8.60957L47.8085 19.9913C47.8497 20.0729 47.9012 20.1032 47.9632 20.0827C48.0247 20.0627 48.0569 20.0015 48.0569 19.8992L48.0247 8.79301C48.0247 8.6301 48.0768 8.49804 48.18 8.39526C48.284 8.29354 48.4183 8.24268 48.5829 8.24268H52.5507C52.7173 8.24268 52.8516 8.29354 52.9537 8.39526C53.0577 8.49804 53.1089 8.6301 53.1089 8.79301V29.1083C53.1089 29.2726 53.0577 29.4042 52.9537 29.506C52.8516 29.6087 52.7173 29.6591 52.5507 29.6591H48.7381C48.4693 29.6591 48.2527 29.5369 48.0872 29.2922L41.267 17.7574C41.2254 17.6556 41.1691 17.615 41.0968 17.6351C41.0239 17.6556 40.9885 17.7168 40.9885 17.8191L41.0503 29.1083C41.0503 29.2726 40.9983 29.4042 40.8952 29.506C40.7916 29.6087 40.6573 29.6591 40.4922 29.6591H36.5239C36.3585 29.6591 36.2245 29.6087 36.1209 29.506Z" fill="#EEEFF5"/>
<defs>
<filter id="filter0_d_1177_39579" x="40.5997" y="0.386784" width="34.9821" height="41.9943" filterUnits="userSpaceOnUse" color-interpolation-filters="sRGB">
<feFlood flood-opacity="0" result="BackgroundImageFix"/>
<feColorMatrix in="SourceAlpha" type="matrix" values="0 0 0 0 0 0 0 0 0 0 0 0 0 0 0 0 0 0 127 0" result="hardAlpha"/>
<feOffset dx="-5.07548" dy="2.53774"/>
<feGaussianBlur stdDeviation="5.07548"/>
<feComposite in2="hardAlpha" operator="out"/>
<feColorMatrix type="matrix" values="0 0 0 0 0.341176 0 0 0 0 0.129412 0 0 0 0 0.94902 0 0 0 1 0"/>
<feBlend mode="normal" in2="BackgroundImageFix" result="effect1_dropShadow_1177_39579"/>
<feBlend mode="normal" in="SourceGraphic" in2="effect1_dropShadow_1177_39579" result="shape"/>
</filter>
<filter id="filter1_d_1177_39579" x="0.0812988" y="1.87894" width="47.0138" height="38.2853" filterUnits="userSpaceOnUse" color-interpolation-filters="sRGB">
<feFlood flood-opacity="0" result="BackgroundImageFix"/>
<feColorMatrix in="SourceAlpha" type="matrix" values="0 0 0 0 0 0 0 0 0 0 0 0 0 0 0 0 0 0 127 0" result="hardAlpha"/>
<feOffset dx="-4.22968" dy="2.11484"/>
<feGaussianBlur stdDeviation="6.34451"/>
<feComposite in2="hardAlpha" operator="out"/>
<feColorMatrix type="matrix" values="0 0 0 0 0.341176 0 0 0 0 0.129412 0 0 0 0 0.94902 0 0 0 0.55 0"/>
<feBlend mode="normal" in2="BackgroundImageFix" result="effect1_dropShadow_1177_39579"/>
<feBlend mode="normal" in="SourceGraphic" in2="effect1_dropShadow_1177_39579" result="shape"/>
</filter>
</defs>
</svg>
