<svg width="243" height="36" viewBox="0 0 243 36" fill="none" xmlns="http://www.w3.org/2000/svg">
<g clip-path="url(#clip0_1166_29101)">
<path d="M59.7174 5.11305C59.6793 5.14978 59.6343 5.17816 59.5853 5.19647C59.5363 5.21478 59.4842 5.22265 59.4321 5.21961H50.4486C50.3623 5.21961 50.3178 5.26425 50.3178 5.35353V11.043C50.3178 11.1323 50.361 11.1769 50.4486 11.1769H56.5666C56.6863 11.1769 56.7809 11.2129 56.8491 11.2835C56.9187 11.3555 56.9521 11.4534 56.9521 11.5772V12.9927C56.9552 13.0464 56.9476 13.1001 56.9299 13.1506C56.9122 13.2011 56.8847 13.2474 56.8491 13.2865C56.8116 13.3234 56.7672 13.3518 56.7186 13.3702C56.67 13.3885 56.6182 13.3963 56.5666 13.3931H50.4486C50.3623 13.3931 50.3178 13.4377 50.3178 13.527V21.3001C50.321 21.3538 50.3136 21.4075 50.2959 21.4581C50.2781 21.5086 50.2506 21.5548 50.2148 21.5939C50.1773 21.6307 50.1329 21.6592 50.0843 21.6775C50.0357 21.6959 49.9839 21.7036 49.9323 21.7004H48.2275C48.1754 21.7036 48.1233 21.6958 48.0742 21.6775C48.0252 21.6592 47.9802 21.6307 47.9422 21.5939C47.9069 21.5546 47.8797 21.5083 47.8622 21.4578C47.8448 21.4073 47.8374 21.3536 47.8406 21.3001V3.40089C47.8406 3.27705 47.874 3.17913 47.9422 3.10713C47.9804 3.07054 48.0254 3.04226 48.0744 3.02395C48.1234 3.00565 48.1754 2.9977 48.2275 3.00057H59.4321C59.5532 3.00057 59.6465 3.03657 59.7174 3.10713C59.7526 3.14654 59.7799 3.19283 59.7976 3.24327C59.8152 3.29371 59.823 3.3473 59.8204 3.40089V4.81641C59.8234 4.87048 59.8158 4.92461 59.7981 4.97558C59.7804 5.02654 59.753 5.0733 59.7174 5.11305ZM69.4511 8.26521C69.639 8.37177 69.7099 8.54169 69.657 8.77353L69.2952 10.5102C69.2757 10.6887 69.1922 10.778 69.0363 10.778C68.9667 10.7806 68.8971 10.7714 68.8304 10.7507C68.5465 10.6574 68.25 10.6122 67.9522 10.6167C67.8222 10.6139 67.6923 10.623 67.5639 10.6441C66.7553 10.6801 66.0873 10.9695 65.5626 11.5139C65.038 12.0567 64.7763 12.7652 64.7763 13.6379V21.3044C64.7795 21.3581 64.7721 21.4118 64.7544 21.4624C64.7366 21.5129 64.7091 21.5591 64.6733 21.5982C64.6355 21.6349 64.5908 21.6633 64.542 21.6817C64.4932 21.7 64.4412 21.7078 64.3894 21.7047H62.6846C62.6329 21.708 62.5812 21.7002 62.5326 21.6818C62.484 21.6635 62.4396 21.635 62.4021 21.5982C62.3311 21.5276 62.2991 21.4297 62.2991 21.3044V8.50569C62.2991 8.38185 62.3311 8.28393 62.4021 8.21337C62.4396 8.17651 62.484 8.14803 62.5326 8.1297C62.5812 8.11137 62.6329 8.10358 62.6846 8.10681H64.3894C64.5091 8.10681 64.6037 8.14137 64.6733 8.21337C64.7429 8.28393 64.7763 8.38185 64.7763 8.50569V9.73545C64.7763 9.80745 64.7888 9.84777 64.8153 9.85641C64.8403 9.86505 64.8696 9.84201 64.9044 9.78873C65.6795 8.57769 66.7289 7.97289 68.0552 7.97289C68.5729 7.97289 69.0377 8.06937 69.4511 8.26521ZM74.368 20.9156C73.43 20.2475 72.7717 19.3172 72.3932 18.1235C72.0828 17.163 71.9283 16.0758 71.9283 14.8647C71.9283 13.6004 72.0731 12.5319 72.3667 11.6579C72.7439 10.4828 73.4077 9.56121 74.3541 8.89305C75.3018 8.22489 76.4277 7.89225 77.7373 7.89225C78.9773 7.89225 80.0573 8.22489 80.9786 8.89305C81.8972 9.56121 82.5568 10.4742 82.9521 11.6305C83.2624 12.5391 83.4169 13.6076 83.4169 14.8374C83.4169 16.083 83.2624 17.1788 82.9521 18.122C82.5749 19.3158 81.9194 20.2475 80.9912 20.9142C80.0615 21.5823 78.9676 21.915 77.7123 21.915C76.4208 21.9164 75.306 21.5838 74.368 20.9156ZM79.5187 19.0983C80.035 18.698 80.4052 18.1321 80.6293 17.4006C80.8186 16.7238 80.9132 15.8871 80.9132 14.8907C80.9132 13.8942 80.8269 13.0647 80.6544 12.4052C80.4303 11.6751 80.0601 11.1107 79.5438 10.7089C79.0274 10.3071 78.3984 10.107 77.6594 10.107C76.9524 10.107 76.3442 10.3086 75.8279 10.7089C75.3116 11.1092 74.94 11.6751 74.7159 12.4052C74.5266 13.0287 74.4334 13.8567 74.4334 14.8907C74.4334 15.9231 74.5266 16.7612 74.7159 17.4006C74.9219 18.1321 75.2893 18.6966 75.814 19.0983C76.3387 19.5001 76.9719 19.6988 77.7109 19.6988C78.3613 19.7124 78.9975 19.5011 79.5187 19.0983ZM96.5074 9.18681C97.334 10.0335 97.7474 11.1769 97.7474 12.6198V21.3015C97.7503 21.3552 97.7427 21.4088 97.725 21.4593C97.7073 21.5098 97.6798 21.5561 97.6444 21.5953C97.6063 21.6322 97.5614 21.6606 97.5123 21.6789C97.4633 21.6973 97.4111 21.7051 97.3591 21.7019H95.6556C95.6038 21.7052 95.5518 21.6975 95.503 21.6791C95.4541 21.6608 95.4094 21.6323 95.3717 21.5953C95.336 21.5563 95.3084 21.51 95.2907 21.4595C95.273 21.409 95.2655 21.3552 95.2687 21.3015V13.1281C95.2687 12.2382 95.0182 11.5167 94.52 10.9638C94.0218 10.4123 93.3579 10.1358 92.5312 10.1358C91.7922 10.1358 91.1674 10.3633 90.6594 10.8183C90.1514 11.2719 89.8536 11.8825 89.7687 12.6486V21.3044C89.7716 21.358 89.764 21.4117 89.7463 21.4622C89.7286 21.5127 89.7012 21.5589 89.6657 21.5982C89.6276 21.635 89.5827 21.6635 89.5336 21.6818C89.4846 21.7001 89.4324 21.7079 89.3804 21.7047H87.6755C87.6239 21.708 87.5722 21.7002 87.5236 21.6818C87.475 21.6635 87.4305 21.635 87.393 21.5982C87.3573 21.5591 87.3297 21.5129 87.312 21.4624C87.2943 21.4118 87.2868 21.3581 87.29 21.3044V8.50569C87.29 8.38185 87.3234 8.28393 87.393 8.21337C87.4305 8.17651 87.475 8.14803 87.5236 8.1297C87.5722 8.11137 87.6239 8.10358 87.6755 8.10681H89.3804C89.5015 8.10681 89.5961 8.14137 89.6657 8.21337C89.701 8.25238 89.7284 8.29839 89.7461 8.34863C89.7638 8.39887 89.7715 8.4523 89.7687 8.50569V9.25449C89.7687 9.30777 89.7854 9.34377 89.8202 9.36105C89.8522 9.37977 89.88 9.37113 89.8967 9.33369C90.6204 8.39049 91.7046 7.91961 93.1505 7.91961C94.5617 7.91961 95.6821 8.34153 96.5074 9.18681ZM108.306 10.1084C108.268 10.1452 108.224 10.1736 108.175 10.1919C108.126 10.2102 108.074 10.2181 108.022 10.215H105.388C105.302 10.215 105.26 10.2596 105.26 10.3489V17.3214C105.26 18.0875 105.417 18.6303 105.737 18.9515C106.056 19.2726 106.568 19.4324 107.274 19.4324H107.893C108.014 19.4324 108.109 19.4684 108.177 19.539C108.212 19.5784 108.239 19.6247 108.257 19.6751C108.275 19.7256 108.282 19.7791 108.28 19.8327V21.2223C108.28 21.4729 108.15 21.614 107.893 21.65L106.834 21.6774C105.509 21.6774 104.518 21.4369 103.865 20.9559C103.21 20.475 102.884 19.5764 102.884 18.2574V10.3489C102.884 10.2596 102.841 10.215 102.753 10.215H101.334C101.282 10.2182 101.23 10.2103 101.181 10.192C101.132 10.1737 101.088 10.1452 101.05 10.1084C101.014 10.0694 100.987 10.0232 100.969 9.97262C100.951 9.92208 100.944 9.86831 100.947 9.81465V8.50569C100.947 8.38185 100.98 8.28393 101.05 8.21337C101.088 8.17654 101.132 8.1481 101.181 8.12977C101.23 8.11145 101.282 8.10364 101.334 8.10681H102.753C102.84 8.10681 102.884 8.06217 102.884 7.97289V4.98057C102.884 4.85529 102.918 4.75881 102.987 4.68681C103.025 4.64995 103.069 4.62147 103.118 4.60314C103.166 4.58481 103.218 4.57702 103.27 4.58025H104.87C104.991 4.58025 105.084 4.61481 105.155 4.68681C105.224 4.75881 105.258 4.85529 105.258 4.98057V7.97289C105.258 8.06217 105.3 8.10681 105.386 8.10681H108.021C108.141 8.10681 108.235 8.14137 108.305 8.21337C108.374 8.28393 108.408 8.38185 108.408 8.50569V9.81465C108.412 9.86824 108.405 9.92205 108.387 9.97263C108.37 10.0232 108.342 10.0695 108.306 10.1084ZM120.313 18.0428C120.399 17.883 120.494 17.8023 120.597 17.8023C120.683 17.8023 120.759 17.8297 120.828 17.883L121.888 18.5511C122.026 18.6404 122.094 18.7571 122.094 18.8982L122.042 19.1113C121.585 19.9765 120.9 20.69 120.066 21.1691C119.216 21.6687 118.221 21.9179 117.084 21.9179C115.862 21.9179 114.829 21.6385 113.984 21.0769C113.142 20.5153 112.505 19.7103 112.075 18.6577C111.644 17.5719 111.429 16.2975 111.429 14.8388C111.429 13.5385 111.524 12.5507 111.713 11.8724C112.024 10.6427 112.641 9.67353 113.571 8.96073C114.501 8.24937 115.629 7.89369 116.954 7.89369C118.59 7.89369 119.837 8.33433 120.698 9.21561C121.558 10.0969 122.118 11.3756 122.375 13.0489C122.461 13.7084 122.521 14.5105 122.557 15.4537C122.557 15.7215 122.427 15.854 122.169 15.854H114.012C113.926 15.854 113.881 15.8972 113.881 15.9879C113.916 16.6647 113.976 17.1457 114.064 17.4294C114.252 18.1422 114.632 18.7038 115.199 19.1127C115.767 19.5231 116.471 19.7276 117.316 19.7276C118.711 19.7089 119.71 19.1473 120.313 18.0428ZM115.11 10.67C114.636 11.0444 114.314 11.5614 114.142 12.2195C114.006 12.7066 113.929 13.209 113.911 13.7156C113.911 13.8049 113.952 13.8495 114.039 13.8495H119.901C119.987 13.8495 120.03 13.8049 120.03 13.7156C119.995 13.1281 119.944 12.6918 119.876 12.4067C119.725 11.7484 119.367 11.161 118.857 10.7377C118.349 10.3187 117.716 10.1084 116.959 10.1084C116.201 10.1084 115.582 10.2956 115.11 10.67ZM135.543 9.18681C136.37 10.0335 136.784 11.1769 136.784 12.6198V21.3015C136.787 21.3552 136.779 21.409 136.762 21.4595C136.744 21.51 136.716 21.5563 136.681 21.5953C136.643 21.6322 136.599 21.6606 136.55 21.679C136.501 21.6973 136.45 21.7051 136.398 21.7019H134.693C134.641 21.705 134.589 21.6972 134.541 21.6789C134.492 21.6606 134.447 21.6321 134.409 21.5953C134.374 21.5563 134.346 21.51 134.328 21.4595C134.311 21.409 134.303 21.3552 134.306 21.3015V13.1281C134.306 12.2382 134.056 11.5167 133.558 10.9638C133.058 10.4123 132.395 10.1358 131.569 10.1358C130.828 10.1358 130.206 10.3633 129.697 10.8183C129.188 11.2734 128.893 11.8825 128.805 12.6486V21.3044C128.808 21.3581 128.801 21.4118 128.783 21.4624C128.765 21.5129 128.738 21.5591 128.702 21.5982C128.664 21.635 128.62 21.6635 128.571 21.6818C128.523 21.7002 128.471 21.708 128.419 21.7047H126.714C126.663 21.7081 126.611 21.7004 126.562 21.682C126.513 21.6637 126.468 21.6351 126.431 21.5982C126.395 21.5591 126.367 21.5129 126.35 21.4624C126.332 21.4118 126.324 21.3581 126.328 21.3044V8.50569C126.328 8.38185 126.361 8.28393 126.431 8.21337C126.468 8.1764 126.513 8.14786 126.562 8.12953C126.611 8.1112 126.663 8.10346 126.714 8.10681H128.419C128.539 8.10681 128.634 8.14137 128.702 8.21337C128.771 8.28393 128.805 8.38185 128.805 8.50569V9.25449C128.805 9.30777 128.823 9.34377 128.856 9.36105C128.891 9.37977 128.916 9.37113 128.936 9.33369C129.659 8.39049 130.743 7.91961 132.188 7.91961C133.601 7.91961 134.718 8.34153 135.543 9.18681ZM149.075 3.11001C149.113 3.07343 149.157 3.04514 149.206 3.02682C149.254 3.00851 149.306 3.00056 149.358 3.00345H151.062C151.114 3.00077 151.166 3.00882 151.215 3.02712C151.264 3.04542 151.308 3.0736 151.346 3.11001C151.416 3.18201 151.449 3.27993 151.449 3.40377V21.303C151.453 21.3566 151.445 21.4104 151.427 21.4609C151.41 21.5115 151.382 21.5577 151.346 21.5967C151.309 21.6335 151.264 21.6619 151.215 21.6802C151.166 21.6985 151.114 21.7064 151.062 21.7033H149.358C149.306 21.7065 149.254 21.6987 149.206 21.6804C149.157 21.6621 149.113 21.6336 149.075 21.5967C149.004 21.5262 148.972 21.4283 148.972 21.303V20.6089C148.972 20.5556 148.953 20.5196 148.921 20.5023C148.886 20.4851 148.85 20.4937 148.818 20.5297C148.438 20.9761 147.994 21.3188 147.487 21.5593C146.981 21.7983 146.424 21.9193 145.823 21.9193C144.583 21.9193 143.554 21.6025 142.737 20.9718C141.919 20.3396 141.321 19.4439 140.943 18.2862C140.633 17.3963 140.479 16.2572 140.479 14.8676C140.479 13.5673 140.607 12.4902 140.864 11.6348C141.226 10.4598 141.823 9.54249 142.658 8.88297C143.493 8.22489 144.546 7.89513 145.821 7.89513C146.424 7.89513 146.979 8.01033 147.486 8.24217C147.992 8.47257 148.436 8.81241 148.816 9.25593C148.848 9.29193 148.884 9.30489 148.919 9.29625C148.951 9.28761 148.971 9.25593 148.971 9.20265V3.40665C148.972 3.27993 149.004 3.18057 149.075 3.11001ZM148.944 14.8907C148.944 13.4291 148.722 12.29 148.273 11.4707C147.775 10.562 147.043 10.1084 146.08 10.1084C145.081 10.1084 144.315 10.5361 143.782 11.3915C143.231 12.2828 142.956 13.4579 142.956 14.918C142.956 16.2889 143.171 17.3934 143.602 18.23C144.1 19.2107 144.926 19.7003 146.08 19.7003C147.061 19.7003 147.809 19.2193 148.325 18.2574C148.738 17.4726 148.944 16.3508 148.944 14.8907ZM161.983 21.5967C161.948 21.5577 161.92 21.5115 161.902 21.4609C161.885 21.4104 161.877 21.3566 161.88 21.303V3.40377C161.88 3.27993 161.914 3.18201 161.983 3.11001C162.021 3.07343 162.065 3.04514 162.114 3.02682C162.163 3.00851 162.214 3.00056 162.266 3.00345H163.997C164.203 3.00345 164.359 3.09273 164.462 3.27129L168.798 10.431C168.85 10.5375 168.901 10.5375 168.953 10.431L173.317 3.27129C173.363 3.18666 173.431 3.11685 173.513 3.06959C173.595 3.02232 173.688 2.99943 173.782 3.00345H175.511C175.562 3.00077 175.614 3.00882 175.663 3.02712C175.712 3.04542 175.757 3.0736 175.795 3.11001C175.864 3.18201 175.898 3.27993 175.898 3.40377V21.303C175.901 21.3566 175.893 21.4104 175.876 21.4609C175.858 21.5115 175.83 21.5577 175.795 21.5967C175.757 21.6335 175.712 21.6619 175.663 21.6802C175.614 21.6985 175.563 21.7064 175.511 21.7033H173.806C173.754 21.7065 173.702 21.6987 173.654 21.6804C173.605 21.6621 173.561 21.6336 173.523 21.5967C173.452 21.5262 173.42 21.4283 173.42 21.303V7.73241C173.42 7.66041 173.401 7.62153 173.369 7.61145C173.334 7.60281 173.298 7.62585 173.266 7.67913L169.755 13.6091C169.709 13.6938 169.641 13.7637 169.559 13.811C169.477 13.8583 169.384 13.8811 169.29 13.8769H168.463C168.369 13.8811 168.276 13.8583 168.194 13.811C168.112 13.7637 168.044 13.6938 167.998 13.6091L164.513 7.67913C164.479 7.62585 164.442 7.60281 164.41 7.61145C164.376 7.62153 164.359 7.66041 164.359 7.73241V21.303C164.362 21.3566 164.354 21.4103 164.336 21.4608C164.319 21.5113 164.291 21.5575 164.256 21.5967C164.218 21.6335 164.173 21.6618 164.124 21.6801C164.075 21.6985 164.023 21.7063 163.971 21.7033H162.266C162.214 21.7062 162.163 21.6982 162.114 21.6799C162.065 21.6616 162.021 21.6333 161.983 21.5967ZM188.989 18.0428C189.076 17.883 189.172 17.8023 189.275 17.8023C189.358 17.8019 189.44 17.8303 189.506 17.883L190.565 18.5511C190.703 18.6404 190.771 18.7571 190.771 18.8982L190.719 19.1113C190.262 19.9762 189.577 20.6895 188.744 21.1691C187.893 21.6687 186.899 21.9179 185.762 21.9179C184.539 21.9179 183.506 21.6385 182.663 21.0769C181.819 20.5153 181.182 19.7103 180.752 18.6577C180.322 17.5719 180.108 16.2975 180.108 14.8388C180.108 13.5385 180.201 12.5507 180.39 11.8724C180.7 10.6427 181.32 9.67353 182.249 8.96073C183.179 8.24937 184.308 7.89369 185.631 7.89369C187.268 7.89369 188.515 8.33433 189.376 9.21561C190.235 10.0969 190.796 11.3756 191.053 13.0489C191.15 13.8471 191.21 14.6496 191.234 15.4537C191.234 15.7215 191.105 15.854 190.847 15.854H182.689C182.603 15.854 182.56 15.8972 182.56 15.9879C182.595 16.6647 182.654 17.1457 182.741 17.4294C182.93 18.1422 183.308 18.7038 183.876 19.1127C184.444 19.5231 185.15 19.7276 185.993 19.7276C187.388 19.7089 188.387 19.1473 188.989 18.0428ZM183.786 10.67C183.313 11.0444 182.99 11.5614 182.819 12.2195C182.683 12.7065 182.604 13.209 182.586 13.7156C182.586 13.8049 182.628 13.8495 182.716 13.8495H188.576C188.662 13.8495 188.707 13.8049 188.707 13.7156C188.672 13.1281 188.621 12.6918 188.552 12.4067C188.401 11.7485 188.042 11.1613 187.532 10.7377C187.026 10.3187 186.392 10.1084 185.634 10.1084C184.876 10.1084 184.259 10.2956 183.786 10.67ZM204.222 9.18681C205.048 10.0335 205.462 11.1769 205.462 12.6198V21.3015C205.465 21.3552 205.458 21.409 205.44 21.4595C205.422 21.51 205.394 21.5563 205.359 21.5953C205.321 21.6322 205.277 21.6606 205.228 21.679C205.18 21.6973 205.128 21.7051 205.076 21.7019H203.371C203.32 21.705 203.268 21.6972 203.219 21.6789C203.17 21.6606 203.125 21.6321 203.087 21.5953C203.052 21.5563 203.024 21.51 203.006 21.4595C202.989 21.409 202.981 21.3552 202.984 21.3015V13.1281C202.984 12.2382 202.734 11.5167 202.236 10.9638C201.736 10.4123 201.074 10.1358 200.247 10.1358C199.507 10.1358 198.884 10.3633 198.375 10.8183C197.866 11.2734 197.571 11.8825 197.483 12.6486V21.3044C197.486 21.3581 197.479 21.4118 197.461 21.4624C197.443 21.5129 197.416 21.5591 197.38 21.5982C197.343 21.635 197.298 21.6635 197.25 21.6818C197.201 21.7002 197.149 21.708 197.098 21.7047H195.393C195.341 21.7081 195.289 21.7004 195.24 21.682C195.191 21.6637 195.146 21.6351 195.109 21.5982C195.073 21.5591 195.045 21.5129 195.028 21.4624C195.01 21.4118 195.003 21.3581 195.006 21.3044V8.50569C195.006 8.38185 195.039 8.28393 195.109 8.21337C195.146 8.1764 195.191 8.14786 195.24 8.12953C195.289 8.1112 195.341 8.10346 195.393 8.10681H197.098C197.217 8.10681 197.312 8.14137 197.38 8.21337C197.45 8.28393 197.483 8.38185 197.483 8.50569V9.25449C197.483 9.30777 197.501 9.34377 197.535 9.36105C197.569 9.37977 197.594 9.37113 197.614 9.33369C198.338 8.39049 199.422 7.91961 200.866 7.91961C202.278 7.91961 203.396 8.34153 204.222 9.18681ZM216.021 10.1084C215.983 10.1454 215.938 10.1739 215.889 10.1923C215.841 10.2106 215.789 10.2183 215.737 10.215H213.104C213.017 10.215 212.973 10.2596 212.973 10.3489V17.3214C212.973 18.0875 213.133 18.6303 213.452 18.9515C213.77 19.2726 214.281 19.4324 214.988 19.4324H215.607C215.659 19.4297 215.711 19.4378 215.76 19.4561C215.808 19.4744 215.853 19.5026 215.891 19.539C215.961 19.611 215.994 19.7089 215.994 19.8327V21.2223C215.994 21.4729 215.865 21.614 215.607 21.65L214.548 21.6774C213.223 21.6774 212.234 21.4369 211.578 20.9559C210.924 20.475 210.597 19.5764 210.597 18.2574V10.3489C210.597 10.2596 210.555 10.215 210.469 10.215H209.048C208.996 10.2183 208.944 10.2106 208.896 10.1923C208.847 10.1739 208.802 10.1454 208.764 10.1084C208.729 10.0694 208.701 10.0232 208.683 9.97262C208.666 9.92208 208.658 9.86831 208.661 9.81465V8.50569C208.661 8.38185 208.695 8.28393 208.764 8.21337C208.802 8.1764 208.847 8.14786 208.896 8.12953C208.944 8.1112 208.996 8.10346 209.048 8.10681H210.469C210.555 8.10681 210.597 8.06217 210.597 7.97289V4.98057C210.597 4.85529 210.632 4.75881 210.7 4.68681C210.738 4.64994 210.783 4.62148 210.832 4.60316C210.881 4.58484 210.933 4.57705 210.985 4.58025H212.586C212.706 4.58025 212.8 4.61481 212.868 4.68681C212.938 4.75881 212.971 4.85529 212.971 4.98057V7.97289C212.971 8.06217 213.015 8.10681 213.102 8.10681H215.735C215.856 8.10681 215.951 8.14137 216.019 8.21337C216.055 8.25238 216.082 8.29839 216.1 8.34863C216.117 8.39887 216.125 8.4523 216.122 8.50569V9.81465C216.126 9.86824 216.119 9.92205 216.101 9.97263C216.084 10.0232 216.056 10.0695 216.021 10.1084ZM221.558 20.9156C220.62 20.2475 219.963 19.3172 219.585 18.1235C219.274 17.163 219.12 16.0758 219.12 14.8647C219.12 13.6004 219.265 12.5319 219.557 11.6579C219.934 10.4828 220.598 9.56121 221.546 8.89305C222.494 8.22489 223.619 7.89225 224.929 7.89225C226.169 7.89225 227.248 8.22489 228.169 8.89305C229.089 9.56121 229.749 10.4742 230.144 11.6305C230.454 12.5391 230.609 13.6076 230.609 14.8374C230.609 16.083 230.454 17.1788 230.144 18.122C229.765 19.3158 229.111 20.2475 228.183 20.9142C227.253 21.5823 226.159 21.915 224.903 21.915C223.611 21.9164 222.496 21.5838 221.558 20.9156ZM226.709 19.0983C227.225 18.698 227.596 18.1321 227.821 17.4006C228.009 16.7238 228.104 15.8871 228.104 14.8907C228.104 13.8942 228.017 13.0647 227.845 12.4052C227.622 11.6751 227.252 11.1107 226.735 10.7089C226.219 10.3071 225.59 10.107 224.85 10.107C224.144 10.107 223.535 10.3086 223.018 10.7089C222.502 11.1092 222.132 11.6751 221.908 12.4052C221.718 13.0287 221.624 13.8567 221.624 14.8907C221.624 15.9231 221.718 16.7612 221.908 17.4006C222.114 18.1321 222.48 18.6966 223.004 19.0983C223.529 19.5001 224.162 19.6988 224.901 19.6988C225.552 19.7124 226.188 19.5011 226.709 19.0983ZM241.634 8.26521C241.823 8.37177 241.893 8.54169 241.84 8.77353L241.478 10.5102C241.46 10.6887 241.375 10.778 241.219 10.778C241.149 10.7806 241.08 10.7714 241.013 10.7507C240.729 10.6574 240.433 10.6122 240.135 10.6167C239.962 10.6167 239.834 10.6268 239.748 10.6441C238.938 10.6801 238.271 10.9695 237.747 11.5139C237.222 12.0567 236.959 12.7652 236.959 13.6379V21.3044C236.962 21.3581 236.955 21.4118 236.937 21.4624C236.919 21.5129 236.892 21.5591 236.856 21.5982C236.818 21.635 236.774 21.6635 236.725 21.6818C236.677 21.7002 236.625 21.708 236.573 21.7047H234.869C234.817 21.7081 234.765 21.7004 234.716 21.682C234.667 21.6637 234.622 21.6351 234.585 21.5982C234.549 21.5591 234.521 21.5129 234.504 21.4624C234.486 21.4118 234.478 21.3581 234.482 21.3044V8.50569C234.482 8.38185 234.515 8.28393 234.585 8.21337C234.622 8.1764 234.667 8.14786 234.716 8.12953C234.765 8.1112 234.817 8.10346 234.869 8.10681H236.573C236.693 8.10681 236.788 8.14137 236.856 8.21337C236.926 8.28393 236.959 8.38185 236.959 8.50569V9.73545C236.959 9.80745 236.973 9.84777 236.998 9.85641C237.023 9.86505 237.054 9.84201 237.088 9.78873C237.864 8.57769 238.913 7.97289 240.238 7.97289C240.756 7.97289 241.22 8.06937 241.634 8.26521Z" fill="white"/>
<path d="M34.4618 17.8749C34.3147 17.875 34.1691 17.8431 34.0346 17.7813L25.0747 13.6298C24.891 13.5444 24.735 13.4058 24.6256 13.2308C24.5162 13.0558 24.458 12.8518 24.458 12.6434C24.458 12.435 24.5162 12.231 24.6256 12.056C24.735 11.881 24.891 11.7425 25.0747 11.657L34.0346 7.5199C34.2875 7.40373 34.5746 7.39593 34.8331 7.4982C35.0915 7.60048 35.3003 7.80451 35.4138 8.06566C35.526 8.32753 35.5333 8.62473 35.4342 8.89218C35.3351 9.15964 35.1376 9.37557 34.8849 9.4927L28.0586 12.6449L34.8863 15.8085C35.1046 15.9093 35.2829 16.0845 35.3914 16.3049C35.4999 16.5253 35.5319 16.7775 35.4822 17.0195C35.4325 17.2614 35.3041 17.4784 35.1184 17.6341C34.9326 17.7898 34.7009 17.8748 34.4618 17.8749Z" fill="#67BECE"/>
<path d="M22.2513 32.9351C12.4008 32.9351 3.78886 26.0548 1.313 16.2023C1.24324 15.9253 1.28271 15.6309 1.42274 15.3839C1.56276 15.1369 1.79187 14.9576 2.05965 14.8855C2.32744 14.8133 2.61197 14.8541 2.85065 14.999C3.08933 15.1439 3.26261 15.3809 3.33237 15.658C4.42457 19.9888 6.8744 23.8223 10.298 26.5579C13.7217 29.2935 17.9256 30.7767 22.2513 30.7751C22.5281 30.7751 22.7936 30.8889 22.9894 31.0915C23.1851 31.294 23.2951 31.5687 23.2951 31.8551C23.2951 32.1416 23.1851 32.4163 22.9894 32.6188C22.7936 32.8214 22.5281 32.9351 22.2513 32.9351Z" fill="#3F54A3"/>
<path d="M18.6571 23.9674C18.3802 23.9674 18.1147 23.8536 17.919 23.6511C17.7233 23.4486 17.6133 23.1739 17.6133 22.8874V2.35734C17.6133 2.07091 17.7233 1.79621 17.919 1.59367C18.1147 1.39113 18.3802 1.27734 18.6571 1.27734C18.9339 1.27734 19.1994 1.39113 19.3951 1.59367C19.5909 1.79621 19.7009 2.07091 19.7009 2.35734V22.8874C19.7009 23.1739 19.5909 23.4486 19.3951 23.6511C19.1994 23.8536 18.9339 23.9674 18.6571 23.9674Z" fill="#67BECE"/>
<path d="M58.0491 36.0641C57.912 36.0645 57.7762 36.0366 57.6496 35.9823C57.523 35.9279 57.4081 35.848 57.3115 35.7473L52.7564 31.0328L48.2014 35.7459C48.1044 35.8462 47.9893 35.9258 47.8626 35.9801C47.736 36.0344 47.6002 36.0623 47.4631 36.0623C47.3259 36.0623 47.1902 36.0344 47.0635 35.9801C46.9368 35.9258 46.8217 35.8462 46.7248 35.7459C46.6278 35.6456 46.5509 35.5265 46.4984 35.3954C46.446 35.2643 46.4189 35.1238 46.4189 34.982C46.4189 34.8401 46.446 34.6996 46.4984 34.5685C46.5509 34.4374 46.6278 34.3184 46.7248 34.218L52.0188 28.7403C52.1156 28.64 52.2306 28.5604 52.3572 28.5061C52.4838 28.4518 52.6194 28.4238 52.7564 28.4238C52.8935 28.4238 53.0291 28.4518 53.1557 28.5061C53.2823 28.5604 53.3972 28.64 53.4941 28.7403L58.7881 34.2195C58.9345 34.3705 59.0342 34.5631 59.0746 34.7729C59.115 34.9826 59.0944 35.2001 59.0152 35.3977C58.9361 35.5953 58.802 35.7641 58.63 35.8827C58.458 36.0014 58.2558 36.0645 58.0491 36.0641Z" fill="#F9C7C5"/>
<path d="M68.6347 36.0629C68.4976 36.0631 68.3618 36.0352 68.2352 35.9808C68.1086 35.9264 67.9937 35.8467 67.897 35.7461L63.342 31.0315L58.7883 35.7447C58.6913 35.845 58.5762 35.9246 58.4495 35.9788C58.3229 36.0331 58.1871 36.0611 58.05 36.0611C57.9129 36.0611 57.7771 36.0331 57.6504 35.9788C57.5237 35.9246 57.4086 35.845 57.3117 35.7447C57.2147 35.6443 57.1378 35.5252 57.0853 35.3942C57.0329 35.2631 57.0059 35.1226 57.0059 34.9807C57.0059 34.8389 57.0329 34.6984 57.0853 34.5673C57.1378 34.4362 57.2147 34.3171 57.3117 34.2168L62.6044 28.7391C62.804 28.5441 63.0682 28.4355 63.3427 28.4355C63.6172 28.4355 63.8813 28.5441 64.081 28.7391L69.375 34.2183C69.5215 34.3694 69.6212 34.5621 69.6616 34.772C69.702 34.9819 69.6812 35.1995 69.6019 35.3971C69.5225 35.5948 69.3883 35.7636 69.216 35.8821C69.0438 36.0006 68.8415 36.0636 68.6347 36.0629Z" fill="#F9C7C5"/>
<path d="M79.223 36.0635C79.0856 36.0639 78.9496 36.0361 78.8228 35.9817C78.6959 35.9273 78.5808 35.8475 78.484 35.7467L73.9303 31.0322L69.3752 35.7453C69.2782 35.8456 69.1631 35.9252 69.0365 35.9795C68.9098 36.0338 68.774 36.0617 68.6369 36.0617C68.4998 36.0617 68.364 36.0338 68.2373 35.9795C68.1106 35.9252 67.9955 35.8456 67.8986 35.7453C67.8016 35.645 67.7247 35.5259 67.6722 35.3948C67.6198 35.2637 67.5928 35.1232 67.5928 34.9814C67.5928 34.8395 67.6198 34.699 67.6722 34.5679C67.7247 34.4369 67.8016 34.3178 67.8986 34.2174L73.1927 28.7397C73.3884 28.5374 73.6537 28.4238 73.9303 28.4238C74.2069 28.4238 74.4722 28.5374 74.6679 28.7397L79.9606 34.2189C80.1068 34.3698 80.2065 34.5623 80.247 34.7719C80.2875 34.9816 80.2669 35.1989 80.1879 35.3964C80.1089 35.5939 79.9751 35.7628 79.8033 35.8815C79.6315 36.0003 79.4295 36.0636 79.223 36.0635Z" fill="#F9C7C5"/>
<path d="M89.8075 36.0629C89.6706 36.0631 89.5351 36.0351 89.4087 35.9808C89.2824 35.9264 89.1677 35.8466 89.0713 35.7461L84.5162 31.0315L79.9611 35.7447C79.8642 35.845 79.7491 35.9246 79.6224 35.9789C79.4957 36.0331 79.3599 36.0611 79.2228 36.0611C79.0857 36.0611 78.9499 36.0331 78.8233 35.9789C78.6966 35.9246 78.5815 35.845 78.4845 35.7447C78.3876 35.6443 78.3107 35.5252 78.2582 35.3942C78.2057 35.2631 78.1787 35.1226 78.1787 34.9807C78.1787 34.8389 78.2057 34.6984 78.2582 34.5673C78.3107 34.4362 78.3876 34.3171 78.4845 34.2168L83.7772 28.7391C83.9769 28.5441 84.241 28.4355 84.5155 28.4355C84.79 28.4355 85.0542 28.5441 85.2538 28.7391L90.5493 34.2183C90.6958 34.3695 90.7956 34.5624 90.8359 34.7724C90.8763 34.9824 90.8554 35.2001 90.7759 35.3978C90.6964 35.5955 90.5618 35.7643 90.3894 35.8827C90.217 36.0011 90.0144 36.0639 89.8075 36.0629Z" fill="#F9C7C5"/>
<path d="M100.394 36.0629C100.257 36.0631 100.122 36.0352 99.995 35.9808C99.8684 35.9264 99.7535 35.8467 99.6568 35.7461L95.1003 31.0315L90.548 35.7447C90.4511 35.845 90.336 35.9246 90.2093 35.9788C90.0826 36.0331 89.9469 36.0611 89.8097 36.0611C89.6726 36.0611 89.5368 36.0331 89.4102 35.9788C89.2835 35.9246 89.1684 35.845 89.0714 35.7447C88.9745 35.6443 88.8976 35.5252 88.8451 35.3942C88.7926 35.2631 88.7656 35.1226 88.7656 34.9807C88.7656 34.8389 88.7926 34.6984 88.8451 34.5673C88.8976 34.4362 88.9745 34.3171 89.0714 34.2168L94.3641 28.7391C94.5638 28.5441 94.8279 28.4355 95.1024 28.4355C95.3769 28.4355 95.6411 28.5441 95.8407 28.7391L101.135 34.2183C101.281 34.3694 101.381 34.5621 101.421 34.772C101.462 34.9819 101.441 35.1995 101.362 35.3971C101.282 35.5948 101.148 35.7636 100.976 35.8821C100.804 36.0006 100.601 36.0636 100.394 36.0629Z" fill="#F9C7C5"/>
<path d="M110.98 36.0629C110.843 36.0633 110.707 36.0354 110.581 35.981C110.454 35.9267 110.339 35.8468 110.243 35.7461L105.688 31.0315L101.134 35.7447C101.037 35.845 100.922 35.9246 100.795 35.9788C100.669 36.0331 100.533 36.0611 100.396 36.0611C100.259 36.0611 100.123 36.0331 99.9961 35.9788C99.8694 35.9246 99.7543 35.845 99.6574 35.7447C99.5604 35.6443 99.4835 35.5252 99.431 35.3942C99.3786 35.2631 99.3516 35.1226 99.3516 34.9807C99.3516 34.8389 99.3786 34.6984 99.431 34.5673C99.4835 34.4362 99.5604 34.3171 99.6574 34.2168L104.95 28.7391C105.15 28.5441 105.414 28.4355 105.688 28.4355C105.963 28.4355 106.227 28.5441 106.427 28.7391L111.721 34.2183C111.867 34.3694 111.967 34.5621 112.007 34.772C112.048 34.9819 112.027 35.1995 111.948 35.3971C111.868 35.5948 111.734 35.7636 111.562 35.8821C111.39 36.0006 111.187 36.0636 110.98 36.0629Z" fill="#F9C7C5"/>
<path d="M121.566 36.0629C121.429 36.0631 121.293 36.0352 121.167 35.9808C121.04 35.9264 120.925 35.8467 120.829 35.7461L116.274 31.0315L111.72 35.7447C111.623 35.845 111.508 35.9246 111.381 35.9788C111.254 36.0331 111.119 36.0611 110.982 36.0611C110.844 36.0611 110.709 36.0331 110.582 35.9788C110.455 35.9246 110.34 35.845 110.243 35.7447C110.146 35.6443 110.069 35.5252 110.017 35.3942C109.965 35.2631 109.937 35.1226 109.938 34.9807C109.938 34.8389 109.965 34.6984 110.017 34.5673C110.069 34.4362 110.146 34.3171 110.243 34.2168L115.536 28.7391C115.736 28.5441 116 28.4355 116.274 28.4355C116.549 28.4355 116.813 28.5441 117.013 28.7391L122.307 34.2183C122.453 34.3694 122.553 34.5621 122.593 34.772C122.634 34.9819 122.613 35.1995 122.534 35.3971C122.454 35.5948 122.32 35.7636 122.148 35.8821C121.975 36.0006 121.773 36.0636 121.566 36.0629Z" fill="#F9C7C5"/>
<path d="M132.156 36.0635C132.018 36.0639 131.882 36.0361 131.755 35.9817C131.629 35.9273 131.513 35.8475 131.417 35.7467L126.863 31.0322L122.308 35.7453C122.211 35.8456 122.096 35.9252 121.969 35.9795C121.842 36.0338 121.707 36.0617 121.57 36.0617C121.432 36.0617 121.297 36.0338 121.17 35.9795C121.043 35.9252 120.928 35.8456 120.831 35.7453C120.734 35.645 120.657 35.5259 120.605 35.3948C120.552 35.2637 120.525 35.1232 120.525 34.9814C120.525 34.8395 120.552 34.699 120.605 34.5679C120.657 34.4369 120.734 34.3178 120.831 34.2174L126.125 28.7397C126.321 28.5374 126.586 28.4238 126.863 28.4238C127.139 28.4238 127.405 28.5374 127.6 28.7397L132.893 34.2189C133.039 34.3698 133.139 34.5623 133.18 34.7719C133.22 34.9816 133.2 35.1989 133.121 35.3964C133.042 35.5939 132.908 35.7628 132.736 35.8815C132.564 36.0003 132.362 36.0636 132.156 36.0635Z" fill="#F9C7C5"/>
<path d="M142.737 36.0641C142.6 36.0643 142.465 36.0364 142.338 35.982C142.212 35.9276 142.097 35.8478 142.001 35.7473L137.446 31.0328L132.891 35.7459C132.794 35.8462 132.679 35.9258 132.552 35.9801C132.425 36.0344 132.29 36.0623 132.153 36.0623C132.015 36.0623 131.88 36.0344 131.753 35.9801C131.626 35.9258 131.511 35.8462 131.414 35.7459C131.317 35.6456 131.24 35.5265 131.188 35.3954C131.135 35.2643 131.108 35.1238 131.108 34.982C131.108 34.8401 131.135 34.6996 131.188 34.5685C131.24 34.4374 131.317 34.3184 131.414 34.218L136.708 28.7403C136.805 28.64 136.92 28.5604 137.047 28.5061C137.173 28.4518 137.309 28.4238 137.446 28.4238C137.583 28.4238 137.719 28.4518 137.845 28.5061C137.972 28.5604 138.087 28.64 138.184 28.7403L143.478 34.2195C143.624 34.3706 143.724 34.5633 143.764 34.7732C143.805 34.9831 143.784 35.2007 143.704 35.3983C143.625 35.596 143.491 35.7648 143.319 35.8833C143.146 36.0019 142.944 36.0648 142.737 36.0641Z" fill="#F9C7C5"/>
<path d="M153.327 36.0635C153.19 36.0637 153.054 36.0358 152.928 35.9814C152.801 35.9271 152.686 35.8473 152.589 35.7467L148.034 31.0322L143.481 35.7453C143.285 35.9479 143.019 36.0617 142.742 36.0617C142.465 36.0617 142.2 35.9479 142.004 35.7453C141.808 35.5427 141.698 35.2679 141.698 34.9814C141.698 34.6948 141.808 34.42 142.004 34.2174L147.297 28.7397C147.492 28.5374 147.758 28.4238 148.034 28.4238C148.311 28.4238 148.576 28.5374 148.772 28.7397L154.066 34.2189C154.212 34.3699 154.312 34.5625 154.353 34.7723C154.393 34.982 154.372 35.1995 154.293 35.3971C154.214 35.5947 154.08 35.7635 153.908 35.8821C153.736 36.0008 153.534 36.0639 153.327 36.0635Z" fill="#F9C7C5"/>
</g>
<defs>
<clipPath id="clip0_1166_29101">
<rect width="242.1" height="36" fill="white"/>
</clipPath>
</defs>
</svg>
