<svg width="64" height="64" viewBox="0 0 64 64" fill="none" xmlns="http://www.w3.org/2000/svg">
<g filter="url(#filter0_b_4197_86403)">
<rect width="64" height="64" rx="16" fill="url(#paint0_linear_4197_86403)"/>
</g>
<path d="M22.5596 43.0398L24.9196 44.8664C25.2262 45.1731 25.9062 45.3198 26.3729 45.3198H29.2662C30.1862 45.3198 31.1729 44.6398 31.3996 43.7198L33.2262 38.1598C33.6129 37.0931 32.9196 36.1731 31.7729 36.1731H28.7196C28.6055 36.1732 28.4929 36.1481 28.3897 36.0995C28.2865 36.051 28.1953 35.9802 28.1227 35.8923C28.05 35.8044 27.9977 35.7015 27.9695 35.591C27.9413 35.4805 27.9379 35.3651 27.9596 35.2531L28.3462 32.8131C28.4929 32.1331 28.0396 31.3598 27.3596 31.1331C26.7462 30.9064 25.9862 31.2131 25.6796 31.6664L22.5596 36.3198" stroke="#2FB8A4" stroke-width="2" stroke-miterlimit="10"/>
<path d="M18.667 43.0401V35.5735C18.667 34.5068 19.1203 34.1201 20.187 34.1201H20.947C22.0137 34.1201 22.467 34.5068 22.467 35.5735V43.0401C22.467 44.1068 22.0137 44.4935 20.947 44.4935H20.187C19.1203 44.4935 18.667 44.1201 18.667 43.0401Z" stroke="#2FB8A4" stroke-width="2" stroke-linecap="round" stroke-linejoin="round"/>
<path d="M41.4404 20.9597L39.0804 19.133C38.7738 18.8264 38.0938 18.6797 37.6271 18.6797H34.7338C33.8138 18.6797 32.8271 19.3597 32.6004 20.2797L30.7738 25.8397C30.3871 26.9064 31.0804 27.8264 32.2271 27.8264H35.2804C35.7338 27.8264 36.1204 28.213 36.0404 28.7464L35.6538 31.1864C35.5071 31.8664 35.9604 32.6397 36.6404 32.8664C37.2538 33.093 38.0138 32.7864 38.3204 32.333L41.4404 27.6797" stroke="#2FB8A4" stroke-width="2" stroke-miterlimit="10"/>
<path d="M45.3332 20.9602V28.4268C45.3332 29.4935 44.8799 29.8802 43.8132 29.8802H43.0532C41.9865 29.8802 41.5332 29.4935 41.5332 28.4268V20.9602C41.5332 19.8935 41.9865 19.5068 43.0532 19.5068H43.8132C44.8799 19.5068 45.3332 19.8802 45.3332 20.9602Z" stroke="#2FB8A4" stroke-width="2" stroke-linecap="round" stroke-linejoin="round"/>
<defs>
<filter id="filter0_b_4197_86403" x="-4" y="-4" width="72" height="72" filterUnits="userSpaceOnUse" color-interpolation-filters="sRGB">
<feFlood flood-opacity="0" result="BackgroundImageFix"/>
<feGaussianBlur in="BackgroundImageFix" stdDeviation="2"/>
<feComposite in2="SourceAlpha" operator="in" result="effect1_backgroundBlur_4197_86403"/>
<feBlend mode="normal" in="SourceGraphic" in2="effect1_backgroundBlur_4197_86403" result="shape"/>
</filter>
<linearGradient id="paint0_linear_4197_86403" x1="0" y1="0" x2="64" y2="64" gradientUnits="userSpaceOnUse">
<stop stop-color="#F0F2F8"/>
<stop offset="1" stop-color="#BFC5D5"/>
</linearGradient>
</defs>
</svg>
