<svg width="64" height="64" viewBox="0 0 64 64" fill="none" xmlns="http://www.w3.org/2000/svg">
<rect width="64" height="64" rx="16" fill="url(#paint0_linear_3358_48348)"/>
<path d="M21.6797 31.6933V38.3199C21.6797 40.7466 21.6797 40.7466 23.973 42.2933L30.2797 45.9333C31.2264 46.4799 32.773 46.4799 33.7197 45.9333L40.0264 42.2933C42.3197 40.7466 42.3197 40.7466 42.3197 38.3199V31.6933C42.3197 29.2666 42.3197 29.2666 40.0264 27.7199L33.7197 24.0799C32.773 23.5333 31.2264 23.5333 30.2797 24.0799L23.973 27.7199C21.6797 29.2666 21.6797 29.2666 21.6797 31.6933Z" stroke="#EEEFF5" stroke-width="2" stroke-linecap="round" stroke-linejoin="round"/>
<path d="M39.3327 27.1737V23.667C39.3327 21.0003 37.9993 19.667 35.3327 19.667H28.666C25.9993 19.667 24.666 21.0003 24.666 23.667V27.0803" stroke="#EEEFF5" stroke-width="2" stroke-linecap="round" stroke-linejoin="round"/>
<path d="M32.8404 31.6533L33.6004 32.8399C33.7204 33.0266 33.987 33.2133 34.187 33.2666L35.547 33.6133C36.387 33.8266 36.6137 34.5466 36.067 35.2133L35.1737 36.2933C35.0404 36.4666 34.9337 36.7733 34.947 36.9866L35.027 38.3866C35.0804 39.2533 34.467 39.6933 33.667 39.3733L32.3604 38.8533C32.1604 38.7733 31.827 38.7733 31.627 38.8533L30.3204 39.3733C29.5204 39.6933 28.907 39.2399 28.9604 38.3866L29.0404 36.9866C29.0537 36.7733 28.947 36.4533 28.8137 36.2933L27.9204 35.2133C27.3737 34.5466 27.6004 33.8266 28.4404 33.6133L29.8004 33.2666C30.0137 33.2133 30.2804 33.0133 30.387 32.8399L31.147 31.6533C31.627 30.9333 32.3737 30.9333 32.8404 31.6533Z" stroke="#EEEFF5" stroke-width="2" stroke-linecap="round" stroke-linejoin="round"/>
<defs>
<linearGradient id="paint0_linear_3358_48348" x1="0" y1="0" x2="64" y2="64" gradientUnits="userSpaceOnUse">
<stop stop-color="#292A2E"/>
<stop offset="1" stop-color="#41444A"/>
</linearGradient>
</defs>
</svg>
