<svg width="64" height="64" viewBox="0 0 64 64" fill="none" xmlns="http://www.w3.org/2000/svg">
<rect width="64" height="64" rx="16" fill="url(#paint0_linear_5199_81892)"/>
<path d="M29.3327 24.0003H34.666C37.3327 24.0003 37.3327 22.667 37.3327 21.3337C37.3327 18.667 35.9993 18.667 34.666 18.667H29.3327C27.9993 18.667 26.666 18.667 26.666 21.3337C26.666 24.0003 27.9993 24.0003 29.3327 24.0003Z" stroke="#EEEFF5" stroke-width="2" stroke-miterlimit="10" stroke-linecap="round" stroke-linejoin="round"/>
<path d="M34.6667 45.3337H28C21.3333 45.3337 20 42.667 20 37.3337V29.3337C20 23.2537 22.2267 21.6004 26.6667 21.3604M37.3333 21.3604C41.7733 21.6004 44 23.2404 44 29.3337V36.0004M36 41.3337V37.3337H40M44 45.3337L36.0533 37.387" stroke="#EEEFF5" stroke-width="2" stroke-miterlimit="10" stroke-linecap="round" stroke-linejoin="round"/>
<defs>
<linearGradient id="paint0_linear_5199_81892" x1="0" y1="0" x2="64" y2="64" gradientUnits="userSpaceOnUse">
<stop stop-color="#292A2E"/>
<stop offset="1" stop-color="#41444A"/>
</linearGradient>
</defs>
</svg>
