<svg width="38" height="38" viewBox="0 0 38 38" fill="none" xmlns="http://www.w3.org/2000/svg">
<rect width="38" height="38" rx="10" fill="url(#paint0_linear_3358_50085)"/>
<path d="M23.0007 15.772C22.9607 15.7654 22.914 15.7654 22.874 15.772C21.954 15.7387 21.2207 14.9854 21.2207 14.052C21.2207 13.0987 21.9874 12.332 22.9407 12.332C23.894 12.332 24.6607 13.1054 24.6607 14.052C24.654 14.9854 23.9207 15.7387 23.0007 15.772Z" stroke="#EEEFF5" stroke-width="1.25" stroke-linecap="round" stroke-linejoin="round"/>
<path d="M22.313 20.6255C23.2263 20.7788 24.233 20.6188 24.9396 20.1455C25.8796 19.5188 25.8796 18.4921 24.9396 17.8655C24.2263 17.3921 23.2063 17.2321 22.293 17.3921" stroke="#EEEFF5" stroke-width="1.25" stroke-linecap="round" stroke-linejoin="round"/>
<path d="M14.9784 15.772C15.0184 15.7654 15.065 15.7654 15.105 15.772C16.025 15.7387 16.7584 14.9854 16.7584 14.052C16.7584 13.0987 15.9917 12.332 15.0384 12.332C14.085 12.332 13.3184 13.1054 13.3184 14.052C13.325 14.9854 14.0584 15.7387 14.9784 15.772Z" stroke="#EEEFF5" stroke-width="1.25" stroke-linecap="round" stroke-linejoin="round"/>
<path d="M15.6656 20.6255C14.7523 20.7788 13.7457 20.6188 13.039 20.1455C12.099 19.5188 12.099 18.4921 13.039 17.8655C13.7523 17.3921 14.7723 17.2321 15.6856 17.3921" stroke="#EEEFF5" stroke-width="1.25" stroke-linecap="round" stroke-linejoin="round"/>
<path d="M19.0007 20.7525C18.9607 20.7458 18.914 20.7458 18.874 20.7525C17.954 20.7192 17.2207 19.9658 17.2207 19.0325C17.2207 18.0792 17.9874 17.3125 18.9407 17.3125C19.894 17.3125 20.6607 18.0858 20.6607 19.0325C20.654 19.9658 19.9207 20.7258 19.0007 20.7525Z" stroke="#EEEFF5" stroke-width="1.25" stroke-linecap="round" stroke-linejoin="round"/>
<path d="M17.0605 22.8523C16.1205 23.4789 16.1205 24.5056 17.0605 25.1323C18.1271 25.8456 19.8738 25.8456 20.9405 25.1323C21.8805 24.5056 21.8805 23.4789 20.9405 22.8523C19.8805 22.1456 18.1271 22.1456 17.0605 22.8523Z" stroke="#EEEFF5" stroke-width="1.25" stroke-linecap="round" stroke-linejoin="round"/>
<defs>
<linearGradient id="paint0_linear_3358_50085" x1="0" y1="0" x2="38" y2="38" gradientUnits="userSpaceOnUse">
<stop stop-color="#292A2E"/>
<stop offset="1" stop-color="#41444A"/>
</linearGradient>
</defs>
</svg>
