<svg width="16" height="16" viewBox="0 0 16 16" fill="none" xmlns="http://www.w3.org/2000/svg">
<path d="M6.10768 7.24732C6.04102 7.24065 5.96102 7.24065 5.88768 7.24732C4.30102 7.19398 3.04102 5.89398 3.04102 4.29398C3.04102 2.66065 4.36102 1.33398 6.00102 1.33398C7.63435 1.33398 8.96102 2.66065 8.96102 4.29398C8.95435 5.89398 7.69435 7.19398 6.10768 7.24732Z" stroke="#F27E21" stroke-width="1.25" stroke-linecap="round" stroke-linejoin="round"/>
<path d="M10.9402 2.66602C12.2335 2.66602 13.2735 3.71268 13.2735 4.99935C13.2735 6.25935 12.2735 7.28602 11.0268 7.33268C10.9735 7.32602 10.9135 7.32602 10.8535 7.33268" stroke="#F27E21" stroke-width="1.25" stroke-linecap="round" stroke-linejoin="round"/>
<path d="M2.77445 9.70602C1.16112 10.786 1.16112 12.546 2.77445 13.6193C4.60779 14.846 7.61445 14.846 9.44779 13.6193C11.0611 12.5393 11.0611 10.7793 9.44779 9.70602C7.62112 8.48602 4.61445 8.48602 2.77445 9.70602Z" stroke="#F27E21" stroke-width="1.25" stroke-linecap="round" stroke-linejoin="round"/>
<path d="M12.2266 13.334C12.7066 13.234 13.1599 13.0407 13.5332 12.754C14.5732 11.974 14.5732 10.6873 13.5332 9.90732C13.1666 9.62732 12.7199 9.44065 12.2466 9.33398" stroke="#F27E21" stroke-width="1.25" stroke-linecap="round" stroke-linejoin="round"/>
</svg>
