<svg width="64" height="64" viewBox="0 0 64 64" fill="none" xmlns="http://www.w3.org/2000/svg">
<rect width="64" height="64" rx="16" fill="url(#paint0_linear_3358_48387)"/>
<path d="M45.3327 32.0003V28.0003C45.3327 21.3337 42.666 18.667 35.9993 18.667H27.9993C21.3327 18.667 18.666 21.3337 18.666 28.0003V36.0003C18.666 42.667 21.3327 45.3337 27.9993 45.3337H31.9993" stroke="#EEEFF5" stroke-width="2" stroke-linecap="round" stroke-linejoin="round"/>
<path d="M43.9475 39.787L41.7742 40.5203C41.1742 40.7203 40.6942 41.187 40.4942 41.8003L39.7609 43.9737C39.1342 45.8537 36.4942 45.8137 35.9075 43.9337L33.4409 36.0003C32.9609 34.427 34.4142 32.9603 35.9742 33.4536L43.9209 35.9203C45.7875 36.507 45.8142 39.1603 43.9475 39.787Z" stroke="#EEEFF5" stroke-width="2" stroke-linecap="round" stroke-linejoin="round"/>
<defs>
<linearGradient id="paint0_linear_3358_48387" x1="0" y1="0" x2="64" y2="64" gradientUnits="userSpaceOnUse">
<stop stop-color="#292A2E"/>
<stop offset="1" stop-color="#41444A"/>
</linearGradient>
</defs>
</svg>
