<svg width="64" height="64" viewBox="0 0 64 64" fill="none" xmlns="http://www.w3.org/2000/svg">
<rect width="64" height="64" rx="16" fill="#436AF4"/>
<path d="M36.9993 32.0003C36.9993 31.2931 37.2803 30.6148 37.7804 30.1147C38.2805 29.6146 38.9588 29.3337 39.666 29.3337C40.3733 29.3337 41.0515 29.6146 41.5516 30.1147C42.0517 30.6148 42.3327 31.2931 42.3327 32.0003C42.3327 32.7076 42.0517 33.3858 41.5516 33.8859C41.0515 34.386 40.3733 34.667 39.666 34.667C38.9588 34.667 38.2805 34.386 37.7804 33.8859C37.2803 33.3858 36.9993 32.7076 36.9993 32.0003ZM36.9993 32.0003H20.9993M20.9993 32.0003C20.9993 32.7076 20.7184 33.3858 20.2183 33.8859C19.7182 34.386 19.0399 34.667 18.3327 34.667C17.6254 34.667 16.9472 34.386 16.4471 33.8859C15.947 33.3858 15.666 32.7076 15.666 32.0003C15.666 31.2931 15.947 30.6148 16.4471 30.1147C16.9472 29.6146 17.6254 29.3337 18.3327 29.3337C19.0399 29.3337 19.7182 29.6146 20.2183 30.1147C20.7184 30.6148 20.9993 31.2931 20.9993 32.0003ZM39.666 24.0003C40.3733 24.0003 41.0515 23.7194 41.5516 23.2193C42.0517 22.7192 42.3327 22.0409 42.3327 21.3337C42.3327 20.6264 42.0517 19.9481 41.5516 19.448C41.0515 18.9479 40.3733 18.667 39.666 18.667C38.9588 18.667 38.2805 18.9479 37.7804 19.448C37.2803 19.9481 36.9993 20.6264 36.9993 21.3337C36.9993 22.0409 37.2803 22.7192 37.7804 23.2193C38.2805 23.7194 38.9588 24.0003 39.666 24.0003ZM39.666 45.3337C40.3733 45.3337 41.0515 45.0527 41.5516 44.5526C42.0517 44.0525 42.3327 43.3742 42.3327 42.667C42.3327 41.9597 42.0517 41.2815 41.5516 40.7814C41.0515 40.2813 40.3733 40.0003 39.666 40.0003C38.9588 40.0003 38.2805 40.2813 37.7804 40.7814C37.2803 41.2815 36.9993 41.9597 36.9993 42.667C36.9993 43.3742 37.2803 44.0525 37.7804 44.5526C38.2805 45.0527 38.9588 45.3337 39.666 45.3337Z" stroke="#EEEFF5" stroke-width="2" stroke-linecap="round" stroke-linejoin="round"/>
<path d="M36.9993 21.333H31.666C28.9993 21.333 27.666 22.6663 27.666 25.333V38.6663C27.666 41.333 28.9993 42.6663 31.666 42.6663H36.9993" stroke="#EEEFF5" stroke-width="2" stroke-linecap="round" stroke-linejoin="round"/>
</svg>
