<svg width="64" height="64" viewBox="0 0 64 64" fill="none" xmlns="http://www.w3.org/2000/svg">
<rect width="64" height="64" rx="16" fill="#2FBF95"/>
<path d="M18.666 45.333H45.3327" stroke="#EEEFF5" stroke-width="2" stroke-miterlimit="10" stroke-linecap="round" stroke-linejoin="round"/>
<path d="M29 21.3337V45.3337H35V21.3337C35 19.867 34.4 18.667 32.6 18.667H31.4C29.6 18.667 29 19.867 29 21.3337Z" stroke="#EEEFF5" stroke-width="2" stroke-linecap="round" stroke-linejoin="round"/>
<path d="M20 29.3337V45.3337H25.3333V29.3337C25.3333 27.867 24.8 26.667 23.2 26.667H22.1333C20.5333 26.667 20 27.867 20 29.3337Z" stroke="#EEEFF5" stroke-width="2" stroke-linecap="round" stroke-linejoin="round"/>
<path d="M38.666 35.9997V45.333H43.9993V35.9997C43.9993 34.533 43.466 33.333 41.866 33.333H40.7993C39.1993 33.333 38.666 34.533 38.666 35.9997Z" stroke="#EEEFF5" stroke-width="2" stroke-linecap="round" stroke-linejoin="round"/>
</svg>
