<svg width="111" height="28" viewBox="0 0 111 28" fill="none" xmlns="http://www.w3.org/2000/svg">
<g opacity="0.5" clip-path="url(#clip0_637_19276)">
<path fill-rule="evenodd" clip-rule="evenodd" d="M1.01367 20.5208L4.94513 17.5095C7.03284 20.2351 9.24992 21.4912 11.7204 21.4912C14.1773 21.4912 16.3334 20.2496 18.3276 17.5455L22.3132 20.4847C19.438 24.3835 15.8608 26.4434 11.7204 26.4434C7.59375 26.4434 3.98346 24.398 1.01367 20.5208Z" fill="#EEEFF5"/>
<path fill-rule="evenodd" clip-rule="evenodd" d="M11.7085 7.43333L4.71115 13.4628L1.47852 9.7113L11.7224 0.884277L21.8867 9.71818L18.6381 13.456L11.7085 7.43333Z" fill="#EEEFF5"/>
<path d="M49.1502 5.97449H45.1885V22.4818H49.1502V5.97449Z" fill="#EEEFF5"/>
<path fill-rule="evenodd" clip-rule="evenodd" d="M37.1812 22.5546C34.8458 22.5546 32.8996 21.7977 31.321 20.284C29.7424 18.7487 28.9639 16.7808 28.9639 14.3805C28.9639 11.9585 29.764 9.96908 31.3426 8.41214C32.9428 6.83352 34.889 6.05505 37.2028 6.05505C40.0572 6.05505 42.5874 7.28764 44.0577 9.21224L41.4844 11.9153C40.2518 10.5962 38.9112 9.92585 37.4623 9.92585C36.2297 9.92585 35.2134 10.3367 34.37 11.1801C33.5483 12.0234 33.1374 13.083 33.1374 14.3589C33.1374 15.5915 33.5483 16.6294 34.37 17.4728C35.2134 18.2945 36.2297 18.7054 37.4407 18.7054C39.0193 18.7054 40.4032 18.0134 41.5493 16.6511L44.2309 19.2244C43.4957 20.1975 42.5008 20.9976 41.2681 21.6247C40.0358 22.2518 38.6733 22.5546 37.1812 22.5546Z" fill="#EEEFF5"/>
<path fill-rule="evenodd" clip-rule="evenodd" d="M55.0926 7.29498C55.0926 8.48018 54.1321 9.44095 52.9469 9.44095C51.7616 9.44095 50.8008 8.48018 50.8008 7.29498C50.8008 6.10982 51.7616 5.14905 52.9469 5.14905C54.1321 5.14905 55.0926 6.10982 55.0926 7.29498ZM54.9275 10.4314H50.9658V22.4817H54.9275V10.4314Z" fill="#EEEFF5"/>
<path fill-rule="evenodd" clip-rule="evenodd" d="M62.5851 22.5761C60.7039 22.5761 59.1901 21.9922 58.0009 20.8245C56.8331 19.6568 56.249 18.1647 56.249 16.3266C56.249 14.4885 56.8331 12.9964 58.0223 11.8287C59.2118 10.661 60.747 10.0771 62.65 10.0771C65.1371 10.0771 67.3208 11.2881 68.3372 13.5587L65.2881 15.1589C64.6827 14.1426 63.8396 13.6236 62.7366 13.6236C61.9366 13.6236 61.2876 13.8831 60.7688 14.402C60.2713 14.921 60.0119 15.5697 60.0119 16.3266C60.0119 17.9052 61.1579 19.0729 62.6935 19.0729C63.7961 19.0729 64.8124 18.4674 65.245 17.5376L68.2941 19.3541C67.256 21.3435 65.1153 22.5761 62.5851 22.5761Z" fill="#EEEFF5"/>
<path fill-rule="evenodd" clip-rule="evenodd" d="M73.2507 5.97449H69.2891V22.4817H73.2507V18.2794L73.7148 17.8465L77.3363 22.4817H81.945L76.3809 15.3603L81.6665 10.4314H76.8256L73.2507 13.7653V5.97449Z" fill="#EEEFF5"/>
<path fill-rule="evenodd" clip-rule="evenodd" d="M82.6602 16.244V5.97449H86.7873V16.014C86.7873 17.8089 87.8331 18.6738 89.3458 18.6738C90.8363 18.6738 91.9043 17.7656 91.9043 16.014V5.97449H96.0311V16.244C96.0311 20.9581 92.7214 22.7313 89.3458 22.7313C85.9919 22.7313 82.6602 20.9581 82.6602 16.244Z" fill="#EEEFF5"/>
<path fill-rule="evenodd" clip-rule="evenodd" d="M104.945 22.8118C108.136 22.8118 110.722 20.0034 110.722 16.539C110.722 13.0747 108.136 10.2663 104.945 10.2663C103.644 10.2663 102.444 10.7329 101.478 11.5203V10.4314H97.6816V27.4339H101.478V21.5578C102.444 22.3452 103.644 22.8118 104.945 22.8118ZM101.478 16.5455V16.5326C101.482 14.9857 102.7 13.7328 104.202 13.7328C105.706 13.7328 106.926 14.9892 106.926 16.539C106.926 18.0889 105.706 19.3453 104.202 19.3453C102.7 19.3453 101.482 18.0924 101.478 16.5455Z" fill="#EEEFF5"/>
</g>
<defs>
<clipPath id="clip0_637_19276">
<rect width="110.295" height="26.797" fill="white" transform="translate(0.705078 0.76001)"/>
</clipPath>
</defs>
</svg>
