<svg width="86" height="24" viewBox="0 0 86 24" fill="none" xmlns="http://www.w3.org/2000/svg">
<g opacity="0.5" clip-path="url(#clip0_637_19263)">
<path d="M12.0855 22.2267C10.7988 22.4526 9.48947 22.5204 8.13503 22.7008L4.0038 10.601V23.2201C2.7171 23.3555 1.54326 23.5361 0.324219 23.7167V0.600403H3.75563L8.45102 13.7164V0.600403H12.0855V22.2267ZM19.1965 9.06584C20.5962 9.06584 22.7408 8.9981 24.0275 8.9981V12.6099C22.4246 12.6099 20.551 12.6099 19.1965 12.6777V18.0505C21.3186 17.9151 23.4406 17.7343 25.585 17.6666V21.1429L15.5845 21.9331V0.600403H25.585V4.21233H19.1965V9.06584ZM39.0168 4.21241H35.2695V20.8272C34.0505 20.8272 32.8314 20.8272 31.6578 20.8722V4.21241H27.9104V0.600403H39.017L39.0168 4.21241ZM44.8862 8.81759H49.83V12.4294H44.8862V20.6241H41.3417V0.600403H51.4328V4.21233H44.8862V8.81759ZM57.3021 17.4635C59.3565 17.5086 61.4332 17.6668 63.4424 17.7795V21.3463C60.2143 21.143 56.9861 20.9401 53.6903 20.8722V0.600403H57.3021V17.4635ZM66.4899 21.5947C67.6412 21.6625 68.8603 21.7302 70.0341 21.8655V0.600403H66.4899V21.5947ZM85.859 0.600403L81.2763 11.5942L85.859 23.7167C84.5044 23.5361 83.1499 23.2877 81.7954 23.062L79.1995 16.3801L76.5585 22.5204C75.2489 22.2944 73.9848 22.2267 72.6757 22.0461L77.326 11.4586L73.127 0.600403H77.0096L79.38 6.67295L81.9084 0.600403L85.859 0.600403Z" fill="#EEEFF5"/>
</g>
<defs>
<clipPath id="clip0_637_19263">
<rect width="85.5348" height="23.1163" fill="white" transform="translate(0.324219 0.600403)"/>
</clipPath>
</defs>
</svg>
