<svg width="57" height="18" viewBox="0 0 57 18" fill="none" xmlns="http://www.w3.org/2000/svg">
<g opacity="0.5" clip-path="url(#clip0_637_19265)">
<path d="M47.1277 5.80561C48.2672 5.80561 49.1909 4.88187 49.1909 3.74238C49.1909 2.60288 48.2672 1.67914 47.1277 1.67914C45.9882 1.67914 45.0645 2.60288 45.0645 3.74238C45.0645 4.88187 45.9882 5.80561 47.1277 5.80561Z" fill="#EEEFF5"/>
<path d="M17.7849 12.5115C18.7893 12.5115 19.374 11.7604 19.3306 11.0213C19.3196 10.7417 19.285 10.4634 19.2271 10.1896C18.6112 7.52078 16.4405 5.54785 13.8567 5.54785C10.7949 5.54785 8.31152 8.31899 8.31152 11.7378C8.31152 15.1565 10.7943 17.9271 13.8567 17.9271C15.7752 17.9271 17.1453 17.2285 18.1425 16.1334C18.2572 16.0082 18.3438 15.8599 18.3965 15.6985C18.4493 15.5371 18.467 15.3663 18.4484 15.1975C18.4299 15.0288 18.3755 14.8659 18.2889 14.7198C18.2023 14.5738 18.0855 14.4479 17.9464 14.3506C17.4648 14.0159 16.8552 14.1287 16.4071 14.507C15.9794 14.868 15.1624 15.6069 13.8567 15.6069C12.2971 15.6069 10.9962 14.2777 10.698 12.5119L17.7849 12.5115ZM13.8567 7.8696C15.2603 7.8696 16.4534 8.94627 16.8966 10.4487H10.817C11.2596 8.94569 12.4525 7.8696 13.8567 7.8696Z" fill="#EEEFF5"/>
<path d="M8.4412 6.74746C8.441 6.47308 8.34355 6.20764 8.16616 5.99832C7.98876 5.78899 7.7429 5.64932 7.47227 5.60412C5.78226 5.3493 4.20252 5.98026 3.28359 7.12263V6.9676C3.28368 6.8151 3.25373 6.66408 3.19545 6.52315C3.13717 6.38223 3.05171 6.25416 2.94394 6.14627C2.83617 6.03837 2.7082 5.95276 2.56735 5.89432C2.42649 5.83588 2.2755 5.80575 2.123 5.80566C1.9705 5.80557 1.81948 5.83552 1.67856 5.8938C1.53763 5.95207 1.40957 6.03754 1.30167 6.14531C1.19377 6.25308 1.10816 6.38104 1.04972 6.5219C0.991278 6.66276 0.961153 6.81375 0.961064 6.96624V16.4637C0.956677 16.7648 1.06658 17.0565 1.26862 17.2799C1.47067 17.5032 1.74986 17.6417 2.04995 17.6675C2.2081 17.6773 2.36658 17.6546 2.51563 17.6008C2.66468 17.547 2.80113 17.4632 2.91658 17.3547C3.03203 17.2462 3.12403 17.1152 3.18692 16.9697C3.24981 16.8243 3.28224 16.6675 3.28223 16.509V11.6095C3.28223 9.44147 4.91274 7.66135 7.1502 7.9032C7.22638 7.91164 7.30326 7.91164 7.37944 7.9032C7.66901 7.87854 7.93878 7.74611 8.13539 7.53209C8.332 7.31808 8.44113 7.03808 8.4412 6.74746Z" fill="#EEEFF5"/>
<path d="M48.288 7.99793C48.288 7.69012 48.1657 7.39492 47.948 7.17727C47.7304 6.95962 47.4352 6.83734 47.1274 6.83734C46.8196 6.83734 46.5244 6.95962 46.3067 7.17727C46.0891 7.39492 45.9668 7.69012 45.9668 7.99793V16.5092C45.9668 16.817 46.0891 17.1122 46.3067 17.3298C46.5244 17.5475 46.8196 17.6698 47.1274 17.6698C47.4352 17.6698 47.7304 17.5475 47.948 17.3298C48.1657 17.1122 48.288 16.817 48.288 16.5092V7.99793Z" fill="#EEEFF5"/>
<path d="M31.0072 1.55011C31.0072 1.2423 30.885 0.947105 30.6673 0.729453C30.4497 0.511802 30.1545 0.389526 29.8467 0.389526C29.5388 0.389526 29.2436 0.511802 29.026 0.729453C28.8083 0.947105 28.6861 1.2423 28.6861 1.55011V6.73311C28.2979 6.34473 27.8348 6.03939 27.3249 5.83564C26.8149 5.63189 26.2689 5.53399 25.72 5.54791C22.6582 5.54791 20.1748 8.31905 20.1748 11.7378C20.1748 15.1566 22.6574 17.9271 25.72 17.9271C26.2731 17.939 26.8229 17.8388 27.3363 17.6326C27.8497 17.4263 28.316 17.1183 28.7072 16.727C28.7615 17.0106 28.9197 17.2638 29.1507 17.437C29.3817 17.6103 29.6691 17.6911 29.9565 17.6638C30.244 17.6365 30.511 17.503 30.7053 17.2894C30.8996 17.0758 31.0072 16.7974 31.0072 16.5086V1.55011ZM25.72 15.6066C23.9395 15.6066 22.496 13.8743 22.496 11.7378C22.496 9.60133 23.9395 7.86966 25.72 7.86966C27.5005 7.86966 28.9438 9.60172 28.9438 11.7384C28.9438 13.8751 27.5005 15.6066 25.72 15.6066Z" fill="#EEEFF5"/>
<path d="M43.1311 1.55011C43.1311 1.2423 43.0088 0.947105 42.7911 0.729453C42.5735 0.511802 42.2783 0.389526 41.9705 0.389526C41.6627 0.389526 41.3675 0.511802 41.1498 0.729453C40.9322 0.947105 40.8099 1.2423 40.8099 1.55011V6.73311C40.4217 6.34471 39.9586 6.03934 39.4487 5.83559C38.9388 5.63184 38.3928 5.53396 37.8438 5.54791C34.782 5.54791 32.2988 8.31905 32.2988 11.7378C32.2988 15.1566 34.7814 17.9271 37.8438 17.9271C38.397 17.939 38.9468 17.8388 39.4603 17.6326C39.9737 17.4263 40.44 17.1183 40.8312 16.727C40.8853 17.0108 41.0434 17.2642 41.2744 17.4376C41.5055 17.611 41.793 17.692 42.0806 17.6647C42.3682 17.6374 42.6352 17.5037 42.8295 17.2899C43.0238 17.0761 43.1313 16.7975 43.1311 16.5086V1.55011ZM37.8438 15.6066C36.0633 15.6066 34.62 13.8743 34.62 11.7378C34.62 9.60133 36.0633 7.86966 37.8438 7.86966C39.6243 7.86966 41.0678 9.60172 41.0678 11.7384C41.0678 13.8751 39.6245 15.6066 37.8438 15.6066Z" fill="#EEEFF5"/>
<path d="M54.1852 16.5092V7.86963H55.2169C55.4831 7.87305 55.7408 7.7757 55.9383 7.59712C56.1357 7.41854 56.2583 7.17192 56.2816 6.90671C56.291 6.76575 56.2713 6.62437 56.2239 6.49131C56.1764 6.35826 56.1021 6.23637 56.0056 6.1332C55.9091 6.03003 55.7924 5.94777 55.6628 5.89152C55.5332 5.83527 55.3935 5.80623 55.2522 5.8062H54.1852V4.16832C54.1891 3.86878 54.0796 3.57884 53.8787 3.35666C53.6777 3.13447 53.4002 2.99648 53.1018 2.97034C52.9432 2.95978 52.7842 2.98189 52.6345 3.03531C52.4848 3.08873 52.3477 3.17232 52.2317 3.28089C52.1157 3.38946 52.0232 3.5207 51.9599 3.66649C51.8967 3.81227 51.864 3.96949 51.8641 4.1284V5.80484H50.9031C50.6368 5.80139 50.3791 5.89873 50.1816 6.07736C49.9841 6.25599 49.8614 6.50268 49.8382 6.76796C49.8288 6.90891 49.8485 7.05029 49.896 7.18333C49.9434 7.31637 50.0177 7.43825 50.1142 7.54141C50.2107 7.64456 50.3274 7.7268 50.457 7.78303C50.5866 7.83926 50.7263 7.86827 50.8676 7.86828H51.8641V16.5092C51.8641 16.817 51.9863 17.1122 52.204 17.3298C52.4216 17.5475 52.7168 17.6698 53.0246 17.6698C53.3324 17.6698 53.6276 17.5475 53.8453 17.3298C54.063 17.1122 54.1852 16.817 54.1852 16.5092Z" fill="#EEEFF5"/>
</g>
<defs>
<clipPath id="clip0_637_19265">
<rect width="55.3228" height="17.5382" fill="white" transform="translate(0.960938 0.389404)"/>
</clipPath>
</defs>
</svg>
