<svg width="80" height="19" viewBox="0 0 80 19" fill="none" xmlns="http://www.w3.org/2000/svg">
<g opacity="0.5" clip-path="url(#clip0_673_35388)">
<path d="M0 9.11479V17.9708H3.456V10.7564L4.7808 10.7996L6.1056 10.8428L8.136 14.3996L10.152 17.9564L12.1392 17.9708C13.2192 17.9708 14.112 17.942 14.112 17.8988C14.112 17.8556 13.1904 16.214 12.0816 14.2556C10.9584 12.2972 10.0224 10.6556 9.9936 10.6124C9.9648 10.5548 10.3104 10.3388 10.7712 10.1084C11.8224 9.58999 12.888 8.59639 13.3488 7.70359C13.9824 6.43639 14.0112 4.20439 13.4064 3.02359C12.7728 1.79959 11.304 0.762789 9.6768 0.417189C9.216 0.316389 7.1856 0.258789 4.464 0.258789H0V9.11479ZM9.1728 3.57079C9.9648 3.93079 10.368 4.57879 10.368 5.51479C10.368 6.37879 10.008 7.04119 9.3312 7.41559C8.928 7.63159 8.424 7.68919 6.1632 7.71799L3.456 7.77559V3.28279H6.0192C8.2224 3.28279 8.6544 3.32599 9.1728 3.57079ZM55.008 9.25879V17.9708H58.32V0.546789H55.008V9.25879ZM73.3248 8.71159C73.368 15.422 73.368 15.4508 73.6992 16.1276C74.0736 16.8908 74.9664 17.7548 75.6864 18.0572C76.0032 18.1868 76.7232 18.2588 77.76 18.2588H79.344V15.3788H78.4224C77.7168 15.3788 77.4288 15.3068 77.1264 15.0764L76.752 14.7884V8.03479H79.344V5.29879H76.752V1.98679H73.2816L73.3248 8.71159Z" fill="white"/>
<path d="M18.547 5.28444C17.3806 5.67324 16.5886 6.16284 15.739 7.05564C14.875 7.99164 14.4718 8.71164 14.1838 9.93564C13.4062 13.2188 14.8318 16.3724 17.7118 17.7404C18.6046 18.1724 18.7198 18.1868 20.5198 18.1868C22.1326 18.1868 22.507 18.1436 23.227 17.8412C24.235 17.438 25.5742 16.2572 26.107 15.278L26.4814 14.5724L25.3294 13.8956C24.6958 13.5212 24.1198 13.2188 24.0622 13.2188C24.0046 13.2188 23.7598 13.5068 23.5006 13.8524C22.9246 14.6876 22.147 15.1916 21.1966 15.3788C20.347 15.5372 19.7422 15.4508 19.0078 15.0764C18.1438 14.6444 17.2798 13.5068 17.2798 12.7868C17.2798 12.4988 17.3374 12.4988 22.0318 12.4988H26.7838V11.2892C26.7838 8.52444 25.5022 6.47964 23.1118 5.42844C22.0894 4.96764 19.7134 4.89564 18.547 5.28444ZM22.435 8.09244C22.8094 8.35164 23.1694 8.76924 23.3998 9.24444L23.7742 9.97884L20.5774 10.022C18.8206 10.0364 17.3518 10.022 17.3086 9.97884C17.107 9.77724 18.1438 8.49564 18.8638 8.06364C19.5982 7.61724 19.7278 7.58844 20.7502 7.63164C21.6718 7.67484 21.931 7.73244 22.435 8.09244ZM44.6542 5.22684C42.7966 5.74524 41.083 7.11324 40.3774 8.65404C39.8734 9.77724 39.6574 11.5052 39.8734 12.8156C40.435 16.2284 42.955 18.2588 46.6414 18.2588C48.8014 18.2588 50.2414 17.7404 51.6382 16.4876C52.4446 15.7532 52.9918 14.8316 53.3518 13.5932C53.6542 12.542 53.5822 10.1804 53.2222 9.18684C52.6318 7.55964 51.0622 6.04764 49.291 5.41404C48.1966 5.01084 45.7774 4.92444 44.6542 5.22684ZM48.1678 8.45244C50.1838 9.34524 50.8462 12.038 49.4926 13.8236C48.5278 15.0908 46.4974 15.566 45.1294 14.846C44.3806 14.4428 43.5742 13.55 43.3438 12.8588C43.0558 11.9948 43.2286 10.454 43.675 9.77724C44.6974 8.23644 46.4686 7.71804 48.1678 8.45244ZM26.683 5.50044C26.7262 5.60124 27.8782 8.45244 29.2462 11.8364L31.7374 17.9852L33.307 17.942L34.8766 17.8988L37.3102 11.9228C38.6494 8.63964 39.787 5.80284 39.8302 5.61564L39.9166 5.28444L38.1598 5.32764L36.3886 5.37084L34.8622 9.43164C34.027 11.6636 33.2926 13.4492 33.2494 13.3916C33.1918 13.334 32.4862 11.4908 31.6654 9.28764L30.1678 5.29884H28.3822C26.9422 5.29884 26.6254 5.34204 26.683 5.50044ZM60.0478 9.23004C60.0478 11.4476 60.1198 13.5356 60.2062 14.0108C60.523 15.7676 61.459 16.9772 63.0574 17.7404C63.979 18.1724 64.0798 18.1868 65.9518 18.1868C67.7806 18.1868 67.9534 18.158 68.7598 17.7836C70.3582 17.0348 71.3806 15.7244 71.6974 14.0108C71.7838 13.5356 71.8558 11.4476 71.8558 9.23004V5.29884H68.5582L68.515 9.21564C68.4718 12.974 68.4574 13.1756 68.1406 13.7516C67.6798 14.6156 66.9022 14.99 65.7358 14.918C64.699 14.8604 64.1086 14.5004 63.7054 13.694C63.4606 13.2044 63.4318 12.7148 63.3886 9.21564L63.3454 5.29884H60.0478V9.23004Z" fill="white"/>
</g>
<defs>
<clipPath id="clip0_673_35388">
<rect width="79.344" height="18" fill="white" transform="translate(0 0.258789)"/>
</clipPath>
</defs>
</svg>
