<svg width="88" height="28" viewBox="0 0 88 28" fill="none" xmlns="http://www.w3.org/2000/svg">
<g opacity="0.5" clip-path="url(#clip0_637_19273)">
<path d="M10.7845 0.874355L11.0923 2.11855C9.88133 2.41639 8.72237 2.89571 7.65477 3.54024L6.99622 2.44152C8.17275 1.73114 9.44996 1.20278 10.7845 0.874355ZM17.3519 0.874355L17.0441 2.11855C18.2551 2.41639 19.4141 2.89571 20.4817 3.54024L21.1445 2.44152C19.9666 1.73074 18.688 1.20237 17.3519 0.874355ZM2.35264 7.08493C1.64226 8.26146 1.1139 9.53866 0.785475 10.8732L2.02984 11.181C2.32768 9.97004 2.807 8.81108 3.45153 7.74348L2.35264 7.08493ZM1.66854 14.1569C1.66814 13.5351 1.71461 12.914 1.80754 12.2992L0.539669 12.1067C0.334433 13.4658 0.334433 14.8481 0.539669 16.2072L1.80754 16.0147C1.71461 15.3998 1.66814 14.7788 1.66854 14.1569ZM21.1406 25.8723L20.482 24.7736C19.4157 25.4177 18.2581 25.897 17.0486 26.1951L17.3565 27.4393C18.6896 27.1106 19.9653 26.5823 21.1406 25.8723ZM26.4681 14.1569C26.4685 14.7788 26.422 15.3998 26.3291 16.0147L27.5968 16.2072C27.802 14.8481 27.802 13.4658 27.5968 12.1067L26.3291 12.2992C26.422 12.914 26.4685 13.5351 26.4681 14.1569ZM27.351 17.4407L26.1068 17.1328C25.8089 18.3438 25.3296 19.5028 24.6851 20.5704L25.7838 21.2332C26.4946 20.0553 27.023 18.7767 27.351 17.4407ZM15.9262 26.4197C14.6946 26.605 13.4422 26.605 12.2106 26.4197L12.0181 27.6874C13.3773 27.8926 14.7595 27.8926 16.1187 27.6874L15.9262 26.4197ZM24.05 21.5132C23.3105 22.5149 22.4249 23.3998 21.4227 24.1386L22.1838 25.1712C23.2893 24.3583 24.2665 23.384 25.0827 22.2808L24.05 21.5132ZM21.4227 4.17562C22.425 4.915 23.3107 5.80066 24.05 6.80301L25.0827 6.0334C24.2691 4.93084 23.2948 3.95654 22.1923 3.143L21.4227 4.17562ZM4.08674 6.80301C4.82612 5.80066 5.71178 4.915 6.71413 4.17562L5.94452 3.143C4.84202 3.95655 3.86778 4.93086 3.05429 6.0334L4.08674 6.80301ZM25.7835 7.08527L24.6847 7.74365C25.3288 8.80999 25.8081 9.96755 26.1063 11.1771L27.3506 10.8693C27.0218 9.53622 26.4935 8.26048 25.7835 7.08527ZM12.2103 1.89659C13.4419 1.7113 14.6942 1.7113 15.9258 1.89659L16.1183 0.628889C14.7592 0.423671 13.377 0.423671 12.018 0.628889L12.2103 1.89659ZM4.74478 25.5114L2.09593 26.1294L2.71377 23.4805L1.46515 23.1876L0.84748 25.8364C0.797696 26.0489 0.802966 26.2706 0.862792 26.4805C0.922618 26.6905 1.03502 26.8816 1.18936 27.036C1.3437 27.1903 1.53488 27.3027 1.74479 27.3625C1.9547 27.4224 2.17641 27.4276 2.38892 27.3778L5.03556 26.7707L4.74478 25.5114ZM1.73242 22.044L2.98104 22.3346L3.4086 20.4983C2.78537 19.4508 2.32068 18.3168 2.02967 17.1332L0.785305 17.441C1.0642 18.5746 1.4881 19.6675 2.04653 20.6927L1.73242 22.044ZM7.71848 24.8232L5.88217 25.2508L6.17278 26.4994L7.52395 26.1849C8.54912 26.7434 9.64203 27.1674 10.7756 27.4463L11.0835 26.2021C9.90236 25.9076 8.7713 25.4401 7.727 24.8147L7.71848 24.8232ZM14.0679 3.0413C12.0816 3.04234 10.1319 3.57554 8.4215 4.58544C6.71112 5.59534 5.30256 7.04505 4.34231 8.78379C3.38206 10.5225 2.9052 12.4868 2.96133 14.4723C3.01747 16.4578 3.60454 18.3919 4.66148 20.0737L3.5924 24.6338L8.15252 23.5647C9.61096 24.4834 11.263 25.0503 12.9783 25.2208C14.6935 25.3912 16.4248 25.1605 18.0356 24.5468C19.6463 23.9331 21.0922 22.9533 22.2592 21.6848C23.4262 20.4162 24.2821 18.8937 24.7595 17.2374C25.2369 15.5812 25.3226 13.8366 25.0099 12.1415C24.6972 10.4465 23.9946 8.84736 22.9576 7.4705C21.9207 6.09365 20.5777 4.97679 19.0349 4.20815C17.4921 3.43952 15.7917 3.04016 14.0681 3.04164L14.0679 3.0413Z" fill="#EEEFF5"/>
<path d="M41.0533 11.2244C41.0007 10.6944 40.7729 10.2827 40.37 9.98923C39.9714 9.69578 39.4327 9.54906 38.7538 9.54906C38.0573 9.54906 37.5229 9.69141 37.1507 9.97611C36.7783 10.2608 36.5921 10.62 36.5921 11.0535C36.5834 11.5354 36.7893 11.9011 37.2098 12.1507C37.6346 12.396 38.1383 12.5866 38.7207 12.7224L39.9298 13.0115C40.7094 13.1867 41.4015 13.4407 42.006 13.7736C42.6147 14.1064 43.0921 14.5357 43.4382 15.0614C43.7886 15.5826 43.9638 16.2177 43.9638 16.9667C43.9594 18.1975 43.4973 19.1786 42.5775 19.9101C41.6622 20.6371 40.3832 21.0006 38.7405 21.0006C37.1068 21.0006 35.8037 20.6283 34.8313 19.8837C33.8589 19.1391 33.3553 18.0397 33.3203 16.5855H36.0731C36.1212 17.26 36.3862 17.7681 36.8681 18.1097C37.3542 18.447 37.9675 18.6156 38.7078 18.6156C39.4304 18.6156 40.0063 18.4623 40.4356 18.1557C40.8692 17.8491 41.0882 17.4505 41.0926 16.9599C41.0883 16.5045 40.889 16.1542 40.4947 15.9089C40.1004 15.6636 39.5376 15.4533 38.8062 15.2781L37.3411 14.9101C36.2066 14.6386 35.3109 14.2072 34.6539 13.6159C33.9969 13.0245 33.6705 12.2339 33.675 11.244C33.6705 10.4293 33.8873 9.71753 34.3253 9.10872C34.7678 8.49548 35.3744 8.02022 36.1453 7.68294C36.9163 7.34134 37.7923 7.17055 38.7734 7.17055C39.772 7.17055 40.6437 7.34134 41.3883 7.68294C42.1374 8.02465 42.72 8.49991 43.136 9.10872C43.5521 9.71753 43.7668 10.4227 43.7799 11.2242L41.0533 11.2244ZM45.8162 20.8102V10.7185H48.6152V20.8102H45.8162ZM47.2223 9.41755C46.8105 9.41755 46.4557 9.27958 46.158 9.00362C45.8601 8.72335 45.7111 8.38828 45.7111 7.99842C45.7111 7.60856 45.8601 7.27565 46.158 6.99969C46.4557 6.72373 46.8105 6.58575 47.2223 6.58575C47.6384 6.58575 47.9953 6.72373 48.2932 6.99969C48.591 7.27565 48.7399 7.60856 48.7399 7.99842C48.7399 8.38828 48.591 8.72335 48.2932 9.00362C47.9953 9.27958 47.6384 9.41755 47.2223 9.41755ZM55.3964 24.8049C54.0385 24.8049 52.972 24.5333 52.1968 23.9901C51.4215 23.4514 50.9506 22.7856 50.7842 21.9929L53.3727 21.6447C53.4866 21.9513 53.7078 22.2185 54.0364 22.4463C54.3692 22.6784 54.8445 22.7945 55.4621 22.7945C56.0708 22.7945 56.5723 22.6456 56.9666 22.3477C57.3652 22.0542 57.5645 21.5615 57.5645 20.8694V19.0233H57.4463C57.2623 19.4394 56.9382 19.8182 56.4738 20.1598C56.0096 20.4971 55.3745 20.6657 54.5685 20.6657C53.8108 20.6657 53.121 20.4883 52.499 20.1336C51.8815 19.7788 51.3887 19.2379 51.0208 18.5109C50.6573 17.7837 50.4755 16.8617 50.4755 15.7448C50.4755 14.5973 50.6616 13.6424 51.0339 12.8803C51.4106 12.1181 51.9077 11.5465 52.5252 11.1655C53.1472 10.7799 53.8262 10.5871 54.5621 10.5871C55.1271 10.5871 55.6002 10.6836 55.9812 10.8764C56.3623 11.0647 56.6711 11.2989 56.9077 11.5792C57.1442 11.8596 57.3238 12.1378 57.4463 12.4137H57.5516V10.7186H60.3308V20.9086C60.3308 21.7672 60.1183 22.4856 59.6933 23.0638C59.2729 23.642 58.6926 24.0756 57.9524 24.3647C57.2121 24.6582 56.3601 24.8049 55.3964 24.8049ZM55.4555 18.5633C56.1301 18.5633 56.6513 18.3137 57.0193 17.8143C57.3915 17.315 57.5776 16.6207 57.5776 15.7315C57.5776 14.8468 57.3937 14.1394 57.0257 13.6094C56.6578 13.0794 56.1344 12.8144 55.4555 12.8144C54.7635 12.8144 54.2357 13.086 53.8722 13.6291C53.513 14.1722 53.3334 14.873 53.3334 15.7315C53.3334 16.6031 53.5152 17.293 53.8788 17.801C54.2422 18.3091 54.7678 18.5632 55.4555 18.5632V18.5633ZM65.3632 14.9761V20.8103H62.5643V10.7186H65.2317V12.4991H65.3499C65.5777 11.9122 65.9523 11.4479 66.4735 11.1062C66.9991 10.7601 67.6364 10.5871 68.3855 10.5871C69.4366 10.5871 70.2798 10.9266 70.9149 11.6055C71.55 12.28 71.8675 13.2065 71.8675 14.3848V20.8102H69.0687V14.8839C69.073 14.2663 68.9153 13.7846 68.5955 13.4385C68.2758 13.0882 67.8357 12.913 67.275 12.913C66.7099 12.913 66.25 13.0947 65.8952 13.4581C65.5449 13.8174 65.3675 14.3233 65.3631 14.9759L65.3632 14.9761ZM76.9449 21.0008C75.9813 21.0008 75.182 20.7489 74.5468 20.2451C73.9117 19.7415 73.5941 18.9903 73.5941 17.9917C73.5941 17.2383 73.7715 16.647 74.1264 16.2177C74.4812 15.7884 74.9454 15.4753 75.5191 15.2782C76.0974 15.0768 76.7194 14.9454 77.3851 14.8841C78.2611 14.7964 78.8875 14.7044 79.2642 14.6081C79.6408 14.5117 79.8292 14.3014 79.8292 13.9773V13.938C79.8292 13.5219 79.6978 13.1999 79.435 12.9721C79.1767 12.7443 78.8087 12.6304 78.3312 12.6304C77.8275 12.6304 77.4268 12.7399 77.1289 12.959C76.8311 13.178 76.634 13.4561 76.5376 13.7934L73.9491 13.5831C74.1418 12.6633 74.6192 11.934 75.3813 11.3952C76.1479 10.8565 77.1356 10.5871 78.3445 10.5871C79.0935 10.5871 79.7943 10.7054 80.4469 10.942C81.0995 11.1785 81.6251 11.5486 82.0237 12.0523C82.4266 12.5516 82.6281 13.202 82.6281 14.0036V20.8102H79.9738V19.4108H79.8949C79.6496 19.8795 79.2817 20.2627 78.7911 20.5606C78.3051 20.8541 77.6897 21.0008 76.9451 21.0008H76.9449ZM77.7464 19.0692C78.3596 19.0692 78.8633 18.8919 79.2575 18.5371C79.6518 18.1779 79.8489 17.7333 79.8489 17.2033V16.1323C79.7395 16.2068 79.5686 16.2726 79.3364 16.3296C79.1087 16.3865 78.8634 16.4369 78.6005 16.4807C78.3421 16.5201 78.11 16.5551 77.9041 16.5858C77.4135 16.6559 77.0172 16.7938 76.7151 16.9997C76.4171 17.2056 76.2681 17.5057 76.2681 17.8998C76.2681 18.2853 76.4061 18.5766 76.6821 18.7737C76.9625 18.9707 77.3171 19.0692 77.7464 19.0692ZM87.6016 7.35469V20.8102H84.8027V7.35469H87.6016Z" fill="#EEEFF5"/>
</g>
<defs>
<clipPath id="clip0_637_19273">
<rect width="87.2162" height="27.3675" fill="white" transform="translate(0.386719 0.474792)"/>
</clipPath>
</defs>
</svg>
