<svg width="95" height="29" viewBox="0 0 95 29" fill="none" xmlns="http://www.w3.org/2000/svg">
<g opacity="0.5" clip-path="url(#clip0_637_19261)">
<path d="M14.1591 0.0466919C6.3637 0.0466919 0.0439453 6.36628 0.0439453 14.1617C0.0439453 21.9575 6.3637 28.2766 14.1591 28.2766C21.9554 28.2766 28.2745 21.9575 28.2745 14.1617C28.2745 6.36678 21.9554 0.0473661 14.159 0.0473661L14.1591 0.0466919ZM20.6323 20.4046C20.3795 20.8193 19.8367 20.9507 19.4221 20.6962C16.108 18.6719 11.9359 18.2134 7.02258 19.336C6.54911 19.4439 6.07716 19.1472 5.96929 18.6736C5.86091 18.1999 6.15638 17.728 6.63103 17.6201C12.0079 16.3917 16.62 16.9206 20.3407 19.1944C20.7553 19.4489 20.8868 19.99 20.6323 20.4046ZM22.36 16.5613C22.0414 17.0791 21.3638 17.2425 20.8463 16.924C17.0522 14.5919 11.2686 13.9165 6.78087 15.2787C6.19885 15.4545 5.58414 15.1265 5.4075 14.5455C5.2322 13.9635 5.56037 13.35 6.14138 13.173C11.2676 11.6176 17.6405 12.371 21.9976 15.0485C22.515 15.3671 22.6785 16.0445 22.36 16.5613ZM22.5083 12.5591C17.959 9.85703 10.4533 9.60858 6.10986 10.9268C5.41238 11.1384 4.67479 10.7446 4.46343 10.0472C4.25206 9.34934 4.64546 8.61226 5.34344 8.40022C10.3294 6.8866 18.6181 7.17905 23.8557 10.2884C24.4844 10.6607 24.69 11.4709 24.3175 12.0974C23.9467 12.7248 23.1343 12.9316 22.509 12.5591H22.5083ZM38.4467 13.0769C36.0094 12.4957 35.5763 12.0878 35.5763 11.2307C35.5763 10.421 36.3381 9.87607 37.4725 9.87607C38.5715 9.87607 39.6603 10.2899 40.8031 11.1417C40.8368 11.1675 40.8806 11.1778 40.9228 11.1711C40.9666 11.1647 41.0037 11.1412 41.029 11.106L42.219 9.42856C42.2678 9.35946 42.2544 9.26422 42.1886 9.21147C40.8284 8.12042 39.2979 7.58998 37.5079 7.58998C34.8768 7.58998 33.0378 9.16916 33.0378 11.4286C33.0378 13.8516 34.6239 14.7095 37.3646 15.3718C39.6957 15.909 40.0901 16.359 40.0901 17.1633C40.0901 18.055 39.2946 18.6095 38.0135 18.6095C36.591 18.6095 35.4296 18.1291 34.1318 17.0066C34.0997 16.9779 34.0559 16.9661 34.0154 16.9678C33.9716 16.9712 33.9329 16.9914 33.9059 17.0234L32.5709 18.6112C32.5153 18.6786 32.5221 18.7764 32.5861 18.8337C34.0964 20.1821 35.9538 20.8934 37.9596 20.8934C40.7947 20.8934 42.6269 19.3444 42.6269 16.9459C42.6319 14.9221 41.42 13.8012 38.4518 13.0791L38.4467 13.0769ZM49.042 10.6733C47.8133 10.6733 46.8053 11.1574 45.9727 12.1494V11.0329C45.9727 10.9447 45.9019 10.8729 45.8142 10.8729H43.6314C43.5438 10.8729 43.473 10.9447 43.473 11.0329V23.4386C43.473 23.5262 43.5438 23.5987 43.6314 23.5987H45.8142C45.9019 23.5987 45.9727 23.5262 45.9727 23.4386V19.5231C46.8053 20.4552 47.8133 20.912 49.042 20.912C51.3259 20.912 53.6385 19.1539 53.6385 15.7932C53.6419 12.4317 51.3293 10.6732 49.0437 10.6732L49.042 10.6733ZM51.1001 15.7932C51.1001 17.5038 50.0466 18.6989 48.5364 18.6989C47.0447 18.6989 45.9187 17.4499 45.9187 15.7932C45.9187 14.1363 47.0447 12.8876 48.5364 12.8876C50.0213 12.8875 51.1001 14.1093 51.1001 15.7932ZM59.5631 10.6733C56.6219 10.6733 54.3178 12.938 54.3178 15.8297C54.3178 18.6904 56.6067 20.9305 59.5278 20.9305C62.4791 20.9305 64.79 18.6736 64.79 15.7932C64.79 12.9225 62.4943 10.6737 59.5631 10.6737V10.6733ZM59.5631 18.7157C57.999 18.7157 56.8191 17.4583 56.8191 15.7923C56.8191 14.1187 57.9585 12.9043 59.5278 12.9043C61.102 12.9043 62.2887 14.1612 62.2887 15.8289C62.2887 17.5021 61.1425 18.7157 59.5631 18.7157ZM71.0703 10.8729H68.6684V8.41775C68.6684 8.32976 68.5976 8.25796 68.51 8.25796H66.3272C66.2396 8.25796 66.1671 8.32976 66.1671 8.41775V10.8729H65.1187C65.031 10.8729 64.9602 10.9447 64.9602 11.0329V12.9084C64.9602 12.9963 65.031 13.0683 65.1187 13.0683H66.1671V17.9218C66.1671 19.8821 67.143 20.8766 69.0696 20.8766C69.8517 20.8766 70.5006 20.7148 71.1125 20.3675C71.163 20.3406 71.1934 20.2866 71.1934 20.2293V18.4427C71.1934 18.3887 71.1647 18.3365 71.1175 18.3078C71.0703 18.2775 71.0113 18.2758 70.9624 18.3011C70.5427 18.5118 70.1365 18.6095 69.6814 18.6095C68.9819 18.6095 68.6684 18.291 68.6684 17.5797V13.0692H71.0703C71.158 13.0692 71.2288 12.9974 71.2288 12.9092V11.0339C71.2321 10.9457 71.1613 10.8739 71.072 10.8739L71.0703 10.8729ZM79.4373 10.8825V10.581C79.4373 9.69387 79.7778 9.29827 80.5397 9.29827C80.9948 9.29827 81.3605 9.38862 81.7701 9.52515C81.8207 9.54099 81.8729 9.53307 81.9134 9.5029C81.9555 9.47272 81.9791 9.42435 81.9791 9.37311V7.53419C81.9791 7.4639 81.9353 7.4017 81.8662 7.38097C81.4347 7.25237 80.8818 7.12039 80.0525 7.12039C78.0383 7.12039 76.9714 8.25543 76.9714 10.4016V10.8635H75.923C75.8353 10.8635 75.7629 10.9353 75.7629 11.0233V12.9084C75.7629 12.9963 75.8353 13.0683 75.923 13.0683H76.9714V20.5529C76.9714 20.6423 77.0439 20.7131 77.1315 20.7131H79.3126C79.4019 20.7131 79.4727 20.6423 79.4727 20.5529V13.0688H81.5105L84.6321 20.5529C84.2782 21.3384 83.9293 21.4952 83.454 21.4952C83.0697 21.4952 82.6634 21.3805 82.2505 21.153C82.2117 21.1328 82.1645 21.1294 82.1241 21.1412C82.0819 21.1564 82.0465 21.1867 82.0297 21.2272L81.2897 22.8503C81.2543 22.9279 81.2847 23.0172 81.3588 23.0577C82.1308 23.4757 82.8269 23.6543 83.6882 23.6543C85.2996 23.6543 86.1913 22.9026 86.975 20.8833L90.7608 11.101C90.781 11.0517 90.7742 10.9961 90.7439 10.9525C90.7153 10.9091 90.6664 10.883 90.6141 10.883H88.342C88.2729 10.883 88.2122 10.9263 88.1903 10.9902L85.8626 17.637L83.3141 10.9858C83.2905 10.924 83.2315 10.883 83.1657 10.883H79.4373V10.8825ZM74.5863 10.8729H72.4036C72.3159 10.8729 72.2434 10.9447 72.2434 11.0329V20.5529C72.2434 20.6423 72.3159 20.7131 72.4036 20.7131H74.5863C74.674 20.7131 74.7465 20.6423 74.7465 20.5529V11.0335C74.7465 10.9454 74.6757 10.8736 74.5863 10.8736V10.8729ZM73.5076 6.53787C72.6429 6.53787 71.9417 7.2377 71.9417 8.10221C71.9417 8.96723 72.6429 9.66791 73.5076 9.66791C74.3723 9.66791 75.0718 8.96723 75.0718 8.10221C75.0718 7.23787 74.3706 6.53787 73.5076 6.53787ZM92.625 13.934C91.762 13.934 91.0894 13.2404 91.0894 12.3981C91.0894 11.5559 91.7704 10.8544 92.6334 10.8544C93.4964 10.8544 94.1689 11.5478 94.1689 12.3894C94.1689 13.2316 93.488 13.934 92.625 13.934ZM92.6334 11.0071C91.8463 11.0071 91.2513 11.6324 91.2513 12.3981C91.2513 13.1635 91.8429 13.7805 92.625 13.7805C93.4121 13.7805 94.0071 13.1556 94.0071 12.3894C94.0071 11.624 93.4155 11.0071 92.6334 11.0071ZM92.9739 12.5473L93.4087 13.1555H93.0413L92.6503 12.5975H92.3148V13.1555H92.0081V11.5434H92.7261C93.102 11.5434 93.3481 11.7351 93.3481 12.0577C93.3498 12.322 93.1964 12.4834 92.9756 12.5473H92.9739ZM92.7143 11.82H92.3148V12.3299H92.7143C92.9132 12.3299 93.0329 12.2323 93.0329 12.0747C93.0329 11.9088 92.9132 11.82 92.7143 11.82Z" fill="#EEEFF5"/>
</g>
<defs>
<clipPath id="clip0_637_19261">
<rect width="94.2216" height="28.317" fill="white"/>
</clipPath>
</defs>
</svg>
