<svg width="87" height="27" viewBox="0 0 87 27" fill="none" xmlns="http://www.w3.org/2000/svg">
<g opacity="0.5" clip-path="url(#clip0_673_35372)">
<path d="M8.15043 18.7575L8.23478 18.9956C8.2214 18.9683 8.19055 18.885 8.15043 18.7575ZM4.23352 17.0639C4.38164 15.7848 4.88462 15.0684 5.83248 14.334C7.18869 13.3393 8.88279 13.902 8.88279 13.902V10.5636C9.29466 10.5531 9.70665 10.5787 10.114 10.6403V14.9352C10.114 14.9352 8.42044 14.3725 7.06423 15.3672C6.11689 16.1016 5.61287 16.8186 5.46527 18.0976C5.46064 18.793 5.58561 19.7012 6.16112 20.4865C6.01883 20.4104 5.87379 20.3237 5.72602 20.2263C4.45827 19.3381 4.22735 18.0061 4.23352 17.0639ZM17.109 4.39202C16.1761 3.32536 15.8233 2.24842 15.6957 1.49188H16.8694C16.8694 1.49188 16.6354 3.47554 18.3408 5.42628L18.3644 5.45251C17.9048 5.15085 17.4833 4.79477 17.109 4.39202Z" fill="#EE1D52"/>
<path d="M22.763 7.41692V11.6254C22.763 11.6254 21.2654 11.5648 20.1571 11.2701C18.6095 10.8586 17.6149 10.2281 17.6149 10.2281C17.6149 10.2281 16.9278 9.77756 16.8722 9.7467V18.441C16.8722 18.9244 16.7452 20.133 16.3579 21.1415C15.8524 22.4602 15.0722 23.3258 14.9287 23.5022C14.9287 23.5022 13.9798 24.6727 12.3058 25.4606C10.7968 26.1714 9.47197 26.1534 9.07595 26.1714C9.07595 26.1714 6.78577 26.266 4.72497 24.8682C4.27915 24.5606 3.86315 24.2119 3.48242 23.8267L3.49271 23.8339C5.55402 25.2318 7.84369 25.1371 7.84369 25.1371C8.24022 25.1191 9.56505 25.1371 11.0735 24.4264C12.7465 23.6385 13.6964 22.4679 13.6964 22.4679C13.8384 22.2915 14.6222 21.426 15.1257 20.1068C15.5119 19.0987 15.64 17.8901 15.64 17.4062V8.71245C15.6955 8.74382 16.3826 9.19435 16.3826 9.19435C16.3826 9.19435 17.3773 9.82591 18.9248 10.2363C20.0336 10.5305 21.5308 10.5917 21.5308 10.5917V7.29401C22.043 7.41384 22.4797 7.44675 22.763 7.41692Z" fill="#EE1D52"/>
<path d="M21.531 7.29338V10.5906C21.531 10.5906 20.0339 10.5294 18.9251 10.2352C17.3775 9.82373 16.3829 9.1932 16.3829 9.1932C16.3829 9.1932 15.6958 8.74267 15.6402 8.7113V17.4035C15.6402 17.8875 15.5132 19.0961 15.1259 20.1041C14.6204 21.4233 13.8402 22.2888 13.6967 22.4652C13.6967 22.4652 12.7478 23.6358 11.0737 24.4237C9.5653 25.1345 8.24046 25.1165 7.84394 25.1345C7.84394 25.1345 5.55427 25.2291 3.49295 23.8312L3.48267 23.824C3.26516 23.604 3.06031 23.3719 2.86911 23.1287C2.21132 22.2914 1.8081 21.3024 1.70679 21.0201C1.70648 21.0189 1.70648 21.0176 1.70679 21.0165C1.54324 20.5253 1.20071 19.3476 1.24752 18.2063C1.33032 16.1923 2.0092 14.957 2.18869 14.6468C2.66427 13.8027 3.28272 13.0475 4.01651 12.4148C4.66367 11.8683 5.39755 11.4337 6.18789 11.129C6.6807 10.9242 7.19421 10.7734 7.71947 10.679C8.10367 10.6103 8.49262 10.5716 8.88282 10.5633V13.8996C8.88282 13.8996 7.18872 13.3369 5.83251 14.3316C4.88465 15.066 4.38166 15.7824 4.23355 17.0615C4.22737 18.0037 4.45829 19.3357 5.72502 20.2249C5.87245 20.3227 6.01748 20.4094 6.16011 20.4852C6.38158 20.7843 6.65072 21.0449 6.95677 21.2566C8.19417 22.0739 9.231 22.1309 10.5569 21.6002C11.442 21.2499 12.1049 20.4502 12.4192 19.5636C12.613 19.0102 12.6105 18.4527 12.6105 17.8772V1.49207H15.6963C15.8238 2.2486 16.1766 3.32555 17.1096 4.39221C17.4838 4.79496 17.9053 5.15103 18.365 5.45269C18.5008 5.59927 19.1951 6.3234 20.0863 6.76879C20.5461 6.9986 21.0309 7.17463 21.531 7.29338Z" fill="white"/>
<path d="M0.478516 19.9955V19.9986L0.554632 20.2151C0.546403 20.1899 0.517602 20.1133 0.478516 19.9955Z" fill="#69C9D0"/>
<path d="M6.1878 11.1293C5.39746 11.434 4.66358 11.8685 4.01642 12.415C3.28257 13.0492 2.66446 13.806 2.18962 14.6517C2.01013 14.9603 1.33126 16.1972 1.24845 18.2112C1.20165 19.3524 1.54418 20.5302 1.70772 21.0213C1.70742 21.0225 1.70742 21.0238 1.70772 21.0249C1.81058 21.3047 2.21225 22.2937 2.87004 23.1336C3.06125 23.3768 3.2661 23.6089 3.4836 23.8289C2.78631 23.3466 2.16444 22.7636 1.63829 22.0988C0.986162 21.2692 0.583978 20.29 0.479061 20.001L0.476489 19.9948V19.9907C0.312942 19.5011 -0.0306108 18.3223 0.0172192 17.1795C0.100022 15.1655 0.778898 13.9302 0.958389 13.62C1.43308 12.7742 2.05122 12.0174 2.78518 11.3833C3.4322 10.8367 4.16613 10.4021 4.95656 10.0976C5.44937 9.8928 5.96289 9.74192 6.48815 9.64758C7.27961 9.50915 8.08803 9.49717 8.88325 9.61209V10.5636C8.49314 10.5707 8.10419 10.6082 7.7199 10.6757C7.19432 10.7711 6.68063 10.9232 6.1878 11.1293Z" fill="#69C9D0"/>
<path d="M15.6961 1.49262H12.6103V17.8788C12.6103 18.4543 12.6129 19.0102 12.419 19.5651C12.1073 20.4508 11.4444 21.2505 10.5608 21.6054C9.23444 22.1382 8.19761 22.079 6.96071 21.2618C6.65467 21.0501 6.38553 20.7895 6.16406 20.4904C7.21786 21.0525 8.16109 21.0427 9.32958 20.5737C10.208 20.2162 10.8766 19.4165 11.1852 18.5304C11.3796 17.977 11.377 17.4195 11.377 16.8445V0.457336H15.638C15.638 0.457336 15.5896 0.865176 15.6961 1.49262ZM21.5314 6.38259V7.29393C21.0311 7.17522 20.5461 6.9992 20.0862 6.76935C19.1949 6.32396 18.5006 5.59983 18.3648 5.45325C18.5223 5.55671 18.6858 5.65065 18.8544 5.73457C19.9381 6.27562 21.0027 6.43762 21.5314 6.38259Z" fill="#69C9D0"/>
<path d="M67.1269 14.9277C67.1268 15.1621 67.1615 15.3952 67.2298 15.6194C67.2336 15.6353 67.2384 15.6509 67.2442 15.6662C67.4088 16.1966 67.7388 16.6604 68.1859 16.9898C68.6331 17.3191 69.1739 17.4967 69.7293 17.4966V20.1298C68.4481 20.1298 67.5301 20.1746 66.1338 19.3486C64.5395 18.4064 63.6436 16.6835 63.6436 14.8943C63.6436 13.05 64.6454 11.2011 66.3441 10.3108C67.5754 9.66485 68.5124 9.66022 69.7293 9.66022V12.2919C69.0391 12.292 68.3773 12.5663 67.8893 13.0543C67.4013 13.5423 67.127 14.2041 67.1269 14.8943V14.9277Z" fill="#69C9D0"/>
<path d="M72.3514 14.9277C72.3518 15.1622 72.3171 15.3953 72.2485 15.6195C72.2449 15.6354 72.2401 15.6511 72.2341 15.6663C72.0697 16.1968 71.7397 16.6607 71.2925 16.9901C70.8453 17.3194 70.3044 17.497 69.749 17.4967V20.1299C71.0307 20.1299 71.9482 20.1746 73.3445 19.3487C74.9388 18.4065 75.8353 16.6836 75.8353 14.8943C75.8353 13.05 74.8329 11.2011 73.1347 10.3109C71.9034 9.66491 70.9659 9.66028 69.749 9.66028V12.292C70.4393 12.292 71.1012 12.5661 71.5894 13.0541C72.0775 13.5422 72.3518 14.2041 72.3519 14.8943L72.3514 14.9277Z" fill="#EE1D52"/>
<path d="M29.4463 7.27155H39.0848L38.194 9.92379H35.674V20.073H32.5691V9.92379H29.4463V7.27155ZM54.9916 7.27155V9.92379H58.1144V20.073H61.2172V9.92379H63.7373L64.6301 7.27155H54.9916ZM41.1816 10.2941C41.4785 10.2941 41.7688 10.206 42.0156 10.0411C42.2625 9.87613 42.4549 9.64166 42.5686 9.36735C42.6822 9.09303 42.7119 8.79118 42.654 8.49997C42.5961 8.20876 42.4531 7.94126 42.2431 7.73131C42.0332 7.52135 41.7657 7.37837 41.4745 7.32045C41.1833 7.26252 40.8814 7.29225 40.6071 7.40588C40.3328 7.5195 40.0983 7.71192 39.9334 7.9588C39.7684 8.20568 39.6804 8.49593 39.6804 8.79285C39.6804 9.191 39.8385 9.57285 40.1201 9.85439C40.4016 10.1359 40.7834 10.2941 41.1816 10.2941ZM39.6778 20.073H42.7209V11.3551H39.6778V20.073ZM53.6668 10.219H50.1088L47.0421 13.2889V7.28132H44.0195L44.0092 20.073H47.0621V16.7398L48.0131 15.8794L50.9754 20.073H54.2387L49.9473 13.94L53.6668 10.219ZM82.8554 13.94L86.5763 10.219H83.0184L79.9516 13.2889V7.28132H76.9286L76.9188 20.073H79.9717V16.7398L80.9247 15.8794L83.8876 20.073H87.1477L82.8554 13.94ZM75.0329 14.8935C75.0329 17.7844 72.6578 20.128 69.7279 20.128C66.7979 20.128 64.4234 17.7844 64.4234 14.8935C64.4234 12.0026 66.7984 9.65893 69.7279 9.65893C72.6573 9.65893 75.0339 12.0031 75.0339 14.8935H75.0329ZM72.3302 14.8935C72.3302 14.3788 72.1776 13.8756 71.8916 13.4477C71.6057 13.0197 71.1993 12.6862 70.7237 12.4892C70.2482 12.2922 69.725 12.2407 69.2202 12.3411C68.7153 12.4415 68.2516 12.6894 67.8877 13.0533C67.5238 13.4173 67.2759 13.881 67.1755 14.3858C67.0751 14.8906 67.1266 15.4138 67.3236 15.8894C67.5206 16.3649 67.8541 16.7713 68.2821 17.0573C68.71 17.3432 69.2132 17.4958 69.7279 17.4958C70.0697 17.496 70.4082 17.4289 70.7241 17.2982C71.04 17.1675 71.327 16.9758 71.5688 16.7341C71.8106 16.4925 72.0024 16.2055 72.1332 15.8897C72.264 15.5738 72.3313 15.2353 72.3312 14.8935H72.3302Z" fill="white"/>
</g>
<defs>
<clipPath id="clip0_673_35372">
<rect width="87" height="25.6142" fill="white" transform="translate(0 0.451721)"/>
</clipPath>
</defs>
</svg>
