<svg width="86" height="29" viewBox="0 0 86 29" fill="none" xmlns="http://www.w3.org/2000/svg">
<g opacity="0.5" clip-path="url(#clip0_673_35369)">
<path d="M1.14949 1.01024L8.27969 1.30326L12.6751 5.30793L34.7494 5.40558L34.6518 0.912598L49.4982 1.01024L49.4006 5.21024L53.9913 5.40558L54.0889 8.72652L57.9959 5.40558L67.2749 5.30793V1.20558L75.1865 1.01028L75.2842 5.21028L80.8516 5.30793L85.1493 9.21491L85.247 23.0846L4.95879 23.28L0.758789 18.8847L1.14949 1.01024Z" fill="white"/>
<path d="M8.11765 26.3145L4.45098 24.1161L2.22549 21.8931L0 19.6702V0.00323486H9.35204L11.569 2.21892L13.7859 4.43461H23.8131C33.6866 4.43461 33.8409 4.43343 33.8809 4.35876C33.9075 4.30912 33.9215 3.54312 33.9215 2.14308V0.00323486H50.6268L50.6369 2.20912L50.647 4.415L52.8431 4.43461L55.0392 4.45422L55.0496 5.62088C55.0553 6.26257 55.0725 6.78755 55.0879 6.78755C55.1033 6.78755 55.6464 6.25814 56.2947 5.61108L57.4735 4.43461H62.4102L64.6271 2.21892L66.8441 0.00323486H76.1569V2.14308C76.1569 3.54312 76.1709 4.30912 76.1975 4.35876C76.237 4.43261 76.3085 4.43461 78.9133 4.43461H81.5885L83.7942 6.64061L86 8.84665V23.596L82.3235 26.0552L78.6471 28.5145L76.1879 28.5137L73.7288 28.513L73.7173 27.3397C73.7111 26.6945 73.6933 26.154 73.678 26.1387C73.6628 26.1234 72.8931 26.6514 71.9678 27.3119L70.2854 28.513H65.8431V27.3366C65.8431 26.4184 65.8323 26.1601 65.7939 26.1601C65.7668 26.1601 65.2155 26.6895 64.5686 27.3366L63.3927 28.513H55.5093L54.3146 27.3178C53.6575 26.6604 53.1061 26.1363 53.0893 26.1531C53.0726 26.1699 52.9621 26.668 52.8438 27.2601C52.7256 27.8521 52.6193 28.3763 52.6078 28.4248L52.5868 28.513H45.7054L44.5294 27.3365C43.8826 26.6895 43.3313 26.1601 43.3042 26.1601C43.2657 26.1601 43.2549 26.4184 43.2549 27.3365V28.513H39.8039C37.9059 28.513 36.3529 28.5078 36.3529 28.5014C36.3529 28.4396 35.8777 26.1423 35.8616 26.1263C35.8498 26.1144 35.298 26.6466 34.6355 27.3089L33.4309 28.513H20.628L19.451 28.0425C18.8036 27.7836 18.2564 27.5719 18.235 27.5719C18.2114 27.5719 18.1961 27.7571 18.1961 28.0425V28.513H11.7843L8.11765 26.3145ZM11.7843 19.415V16.7287L9.58824 16.7091L7.39216 16.6895V11.8268L9.58824 11.8072L11.7843 11.7875V6.415L9.58824 6.39539L7.39216 6.37578L7.37255 4.17971L7.35294 1.98363H1.98039L1.97051 10.3354L1.96059 18.6872L3.676 20.4043L5.39141 22.1214L8.58788 22.1113L11.7843 22.1013V19.415ZM32.2066 20.404L33.9218 18.6872L33.9119 12.5511L33.902 6.415L31.206 6.40492L28.5101 6.39484L28.5002 11.5422L28.4902 16.6895H26.5686L26.549 11.5523L26.5294 6.415L23.8335 6.40492L21.1375 6.39484L21.1276 11.5422L21.1176 16.6895H19.1961L19.1765 11.5523L19.1569 6.415L16.4608 6.40492L13.7647 6.39484V22.1209H30.4914L32.2066 20.404ZM41.2745 14.2581V6.415L38.5784 6.40492L35.8824 6.39484V22.1214L38.5784 22.1114L41.2745 22.1013V14.2581ZM53.0588 19.4153V16.7098L50.8726 16.6996L48.6863 16.6895V11.8268L50.8726 11.8166L53.0588 11.8065V6.39606L50.8726 6.3859L48.6863 6.37578L48.6667 4.17971L48.6471 1.98363H43.2745L43.2646 10.3363L43.2547 18.689L44.9703 20.405L46.6859 22.1209H53.0588V19.4153ZM66.8235 19.4149V16.709H63.6513C60.7948 16.709 60.4766 16.7029 60.4552 16.647C60.4241 16.566 60.4241 11.9502 60.4552 11.8691C60.4766 11.8133 60.7948 11.8071 63.6513 11.8071H66.8235V6.39531H58.452L56.7554 8.0919L55.0588 9.78849V18.7277L56.7554 20.4243L58.452 22.1208H66.8235V19.4149ZM74.2057 16.9737L74.2157 11.8267H78.6078L78.6275 16.9639L78.6471 22.1012H84.0196L84.0295 15.9651L84.0395 9.82904L82.3243 8.11218L80.6091 6.39531H77.4466C74.8487 6.39531 74.2763 6.3859 74.2404 6.34269C74.2098 6.30575 74.1938 5.64759 74.1866 4.1368L74.1765 1.98355H68.8039L68.7939 12.0032C68.7884 17.5139 68.7922 22.0448 68.8024 22.0718C68.8171 22.1103 69.3946 22.1208 71.5084 22.1208H74.1958L74.2057 16.9737ZM41.2745 3.19923V1.98355H35.902L35.8916 3.15963C35.8858 3.80641 35.8897 4.35802 35.9002 4.38535C35.9155 4.42496 36.4635 4.43304 38.5969 4.425L41.2745 4.41492V3.19923Z" fill="#242021"/>
</g>
<defs>
<clipPath id="clip0_673_35369">
<rect width="86" height="28.5176" fill="white"/>
</clipPath>
</defs>
</svg>
