<svg width="86" height="20" viewBox="0 0 86 20" fill="none" xmlns="http://www.w3.org/2000/svg">
<g opacity="0.5" clip-path="url(#clip0_673_35362)">
<path opacity="0.2" fill-rule="evenodd" clip-rule="evenodd" d="M26.8559 3.65702C26.5418 2.47888 25.6124 1.54959 24.4299 1.23107C22.292 0.659424 13.7138 0.659424 13.7138 0.659424C13.7138 0.659424 5.13997 0.659424 2.99759 1.23107C1.81957 1.54519 0.890168 2.4746 0.571647 3.65702C-5.37638e-08 5.795 0 10.2586 0 10.2586C0 10.2586 -5.37638e-08 14.7223 0.571647 16.8602C0.88577 18.0384 1.81518 18.9677 2.99759 19.2862C5.13997 19.8578 13.7138 19.8578 13.7138 19.8578C13.7138 19.8578 22.292 19.8578 24.4299 19.2862C25.6081 18.9721 26.5374 18.0427 26.8559 16.8602C27.4275 14.7223 27.4275 10.2587 27.4275 10.2587C27.4275 10.2587 27.4275 5.795 26.8559 3.65702Z" fill="white"/>
<path fill-rule="evenodd" clip-rule="evenodd" d="M10.9736 14.3731L18.0988 10.2585L10.9736 6.14398V14.3731Z" fill="white"/>
<path fill-rule="evenodd" clip-rule="evenodd" d="M39.8105 18.1253C39.2695 17.7589 38.8811 17.1916 38.6543 16.4194C38.4273 15.6471 38.3095 14.6217 38.3095 13.3388V11.5936C38.3095 10.2977 38.4404 9.25929 38.7022 8.47375C38.964 7.68844 39.3742 7.11691 39.9283 6.75904C40.4824 6.40128 41.2111 6.21806 42.1143 6.21806C43.0044 6.21806 43.7157 6.40128 44.2523 6.76783C44.7889 7.13427 45.1817 7.70592 45.4304 8.48255C45.6791 9.25929 45.8013 10.2977 45.8013 11.5892V13.3346C45.8013 14.6173 45.6791 15.6471 45.4391 16.4237C45.1991 17.2003 44.8065 17.772 44.261 18.1297C43.72 18.4875 42.9826 18.6709 42.0532 18.6709C41.102 18.6751 40.3515 18.4919 39.8105 18.1253ZM42.8517 16.2405C43 15.8478 43.0786 15.2063 43.0786 14.3207V10.5726C43.0786 9.7086 43.0044 9.08035 42.8517 8.67896C42.7034 8.28185 42.4372 8.08115 42.0576 8.08115C41.6911 8.08115 41.4336 8.28185 41.2809 8.67896C41.1325 9.07595 41.0541 9.7086 41.0541 10.5726V14.3207C41.0541 15.2107 41.1239 15.8522 41.2678 16.2405C41.4118 16.6332 41.6736 16.8295 42.0533 16.8295C42.4372 16.8295 42.699 16.6332 42.8517 16.2405ZM81.4666 13.3694V13.976C81.4666 14.7482 81.4884 15.3242 81.5365 15.7125C81.58 16.0965 81.676 16.3801 81.82 16.5547C81.964 16.7291 82.1865 16.8208 82.4875 16.8208C82.8934 16.8208 83.1726 16.6637 83.321 16.3495C83.4694 16.0354 83.5521 15.5118 83.5653 14.7788L85.8996 14.9141C85.9128 15.0187 85.9171 15.1627 85.9171 15.3459C85.9171 16.4587 85.6116 17.2876 85.0051 17.8374C84.3986 18.3871 83.5391 18.662 82.4265 18.662C81.0913 18.662 80.1576 18.2432 79.6209 17.4054C79.0842 16.5677 78.8182 15.2761 78.8182 13.5222V11.4234C78.8182 9.61705 79.0973 8.30361 79.6514 7.47038C80.2056 6.64133 81.1567 6.22674 82.5051 6.22674C83.4344 6.22674 84.1456 6.39699 84.643 6.73728C85.1404 7.07756 85.4895 7.60546 85.6946 8.32548C85.8953 9.0454 86 10.0403 86 11.3056V13.3651H81.4666V13.3694ZM81.8112 8.30801C81.6759 8.47826 81.5844 8.75743 81.5364 9.14146C81.4883 9.52538 81.4666 10.1145 81.4666 10.8954V11.7594H83.4475V10.8954C83.4475 10.1231 83.4213 9.53846 83.3689 9.14146C83.3166 8.74435 83.2206 8.46079 83.0853 8.29933C82.95 8.13787 82.7362 8.055 82.4483 8.055C82.1603 8.0506 81.9465 8.13787 81.8112 8.30801ZM33.222 13.1425L30.1416 2.02057H32.8292L33.907 7.06019C34.1819 8.30372 34.3826 9.35964 34.5135 10.2366H34.592C34.6837 9.60825 34.8844 8.55674 35.1986 7.07756L36.3155 2.01617H39.0033L35.8879 13.1425V18.4788H33.222V13.1425ZM54.5409 6.45371V18.4744H52.4247L52.189 17.004H52.1323C51.5564 18.1167 50.6925 18.6708 49.5449 18.6708C48.7465 18.6708 48.1574 18.409 47.7779 17.8854C47.3982 17.3618 47.2106 16.5459 47.2106 15.4333V6.45371H49.9158V15.2805C49.9158 15.8172 49.9726 16.2012 50.0904 16.4281C50.2082 16.655 50.4045 16.7728 50.6794 16.7728C50.915 16.7728 51.1419 16.7029 51.3557 16.559C51.5694 16.415 51.7309 16.2317 51.8356 16.0092V6.4536L54.5409 6.45371ZM68.4248 6.45371V18.4744H66.3086L66.0729 17.004H66.0162C65.4403 18.1167 64.5764 18.6708 63.4288 18.6708C62.6304 18.6708 62.0413 18.409 61.6618 17.8854C61.2821 17.3618 61.0945 16.5459 61.0945 15.4333V6.45371H63.7997V15.2805C63.7997 15.8172 63.8565 16.2012 63.9743 16.4281C64.092 16.655 64.2884 16.7728 64.5633 16.7728C64.7989 16.7728 65.0258 16.7029 65.2396 16.559C65.4534 16.415 65.6148 16.2317 65.7196 16.0092V6.4536L68.4248 6.45371Z" fill="white"/>
<path fill-rule="evenodd" clip-rule="evenodd" d="M61.8971 4.198H59.2093V18.4745H56.5608V4.198H53.873V2.02078H61.8927V4.198H61.8971ZM77.3823 8.3779C77.2165 7.61875 76.9547 7.06898 76.5882 6.72869C76.2217 6.3883 75.72 6.21816 75.0784 6.21816C74.5812 6.21816 74.1186 6.35774 73.6866 6.64142C73.2547 6.9206 72.9231 7.29155 72.6874 7.74965H72.6657V1.41418H70.0564V18.4789H72.2903L72.5652 17.3401H72.622C72.8314 17.7459 73.1455 18.0644 73.5644 18.3C73.9833 18.5356 74.4459 18.6534 74.9563 18.6534C75.8726 18.6534 76.5445 18.2302 76.9766 17.388C77.4084 16.546 77.6223 15.2283 77.6223 13.435V11.5326C77.6267 10.1887 77.5437 9.13705 77.3823 8.3779ZM74.8996 13.2822C74.8996 14.1593 74.8647 14.8443 74.7906 15.3417C74.7207 15.8392 74.5986 16.1925 74.4284 16.402C74.2582 16.6114 74.0313 16.7162 73.7433 16.7162C73.5208 16.7162 73.3158 16.6638 73.1238 16.5591C72.9362 16.4544 72.7791 16.2973 72.6613 16.0878V9.25939C72.7529 8.93207 72.91 8.66598 73.1326 8.4566C73.355 8.24711 73.595 8.14236 73.8568 8.14236C74.1317 8.14236 74.3454 8.25139 74.4938 8.46517C74.6422 8.67906 74.7469 9.0455 74.8079 9.55163C74.8648 10.0622 74.8952 10.7865 74.8952 11.7289V13.2822H74.8996Z" fill="white"/>
</g>
<defs>
<clipPath id="clip0_673_35362">
<rect width="86" height="19.264" fill="white" transform="translate(0 0.62677)"/>
</clipPath>
</defs>
</svg>
