<svg width="24" height="24" viewBox="0 0 24 24" fill="none" xmlns="http://www.w3.org/2000/svg">
<path fill-rule="evenodd" clip-rule="evenodd" d="M16.1818 22.0012L7.80179 22.0012C7.57891 22.0012 7.36153 21.993 7.14983 21.9769C3.91035 21.7262 2.00196 19.6049 2.00195 16.182V7.81196C2.00195 4.17196 4.17195 2.00196 7.81195 2.00195H16.192C16.414 2.00195 16.6306 2.01003 16.8416 2.02602C20.0825 2.27587 21.9918 4.39742 21.9918 7.82117L21.9918 16.1912C21.9918 19.8312 19.8218 22.0012 16.1818 22.0012ZM7.4918 10.9212C7.0818 10.9212 6.7418 11.2612 6.7418 11.6712L6.7418 16.5012C6.7418 16.8906 7.04848 17.2168 7.43055 17.2486C7.4543 17.2509 7.47813 17.252 7.50195 17.252C7.51353 17.252 7.5251 17.2517 7.53666 17.2512H12.3218C12.7318 17.2512 13.0718 16.9112 13.0718 16.5012C13.0718 16.0912 12.7318 15.7512 12.3218 15.7512H9.31273L15.752 9.31195L15.752 12.332C15.752 12.742 16.092 13.082 16.502 13.082C16.912 13.082 17.252 12.742 17.252 12.332L17.252 7.50195C17.252 7.11249 16.9452 6.78618 16.563 6.75448C16.5393 6.75227 16.5156 6.75117 16.4918 6.75117C16.4802 6.75117 16.4687 6.75143 16.4571 6.75195L11.672 6.75195C11.262 6.75195 10.922 7.09195 10.922 7.50195C10.922 7.91195 11.262 8.25195 11.672 8.25195L14.681 8.25195L8.2418 14.6912L8.2418 11.6712C8.2418 11.2612 7.9018 10.9212 7.4918 10.9212Z" fill="#EEEFF5"/>
</svg>
