<svg width="103" height="24" viewBox="0 0 103 24" fill="none" xmlns="http://www.w3.org/2000/svg">
<path fill-rule="evenodd" clip-rule="evenodd" d="M7.81199 2.00195C4.17199 2.00195 2.00199 4.17195 2.00199 7.81195L2.00199 16.192C2.00193 16.2121 2.00194 16.2321 2.00202 16.2522C2.0297 19.857 4.19182 21.9987 7.8034 22.002C7.80618 22.002 7.80897 22.002 7.81175 22.002L16.1818 22.002C16.1818 22.002 16.1819 22.002 16.182 22.002C19.8218 22.0019 21.9918 19.8319 21.9918 16.192L21.9918 7.81195C21.9918 7.79227 21.9918 7.77263 21.9917 7.75303C21.9645 4.14465 19.799 2.00195 16.182 2.00195H7.81199ZM16.5018 13.082C16.9118 13.082 17.2518 12.742 17.2518 12.332L17.2518 7.50195C17.2518 7.09195 16.9118 6.75195 16.5018 6.75195H16.4928C16.4926 6.75195 16.4923 6.75195 16.492 6.75195C16.4917 6.75195 16.4914 6.75195 16.4911 6.75195L11.6718 6.75195C11.2618 6.75195 10.9218 7.09195 10.9218 7.50195C10.9218 7.91195 11.2618 8.25195 11.6718 8.25195L14.682 8.25195L8.24199 14.692L8.24199 11.672C8.24199 11.262 7.90199 10.922 7.49199 10.922C7.08199 10.922 6.74199 11.262 6.74199 11.672L6.74199 16.502C6.74199 16.912 7.08199 17.252 7.49199 17.252H7.49965C7.50035 17.252 7.50105 17.252 7.50175 17.252C7.50246 17.252 7.50316 17.252 7.50386 17.252H12.322C12.732 17.252 13.072 16.912 13.072 16.502C13.072 16.092 12.732 15.752 12.322 15.752H9.31176L15.7518 9.31195L15.7518 12.332C15.7518 12.742 16.0918 13.082 16.5018 13.082Z" fill="#EEEFF5"/>
<path d="M43.518 6.2H37.064V16H38.814V12.08H43.168V10.512H38.814V7.768H43.518V6.2ZM46.1384 15.776C46.5444 16.028 47.0204 16.14 47.5524 16.14C47.9584 16.14 48.3364 16.056 48.6864 15.874C49.0364 15.706 49.3304 15.454 49.5684 15.104H49.6384L49.8204 16H51.1784V8.636H49.5684V12.99C49.5684 13.48 49.4144 13.872 49.1204 14.194C48.8124 14.516 48.4204 14.684 47.9444 14.684C47.4824 14.684 47.1184 14.53 46.8524 14.236C46.5724 13.942 46.4324 13.522 46.4324 12.99V8.636H44.8224V13.158C44.8224 13.76 44.9344 14.292 45.1724 14.74C45.4104 15.202 45.7324 15.538 46.1384 15.776ZM54.5108 16V6.2H52.9008V16H54.5108ZM57.9119 16V6.2H56.3019V16H57.9119ZM60.1089 15.538C60.6409 15.944 61.3409 16.14 62.1949 16.14C63.1749 16.14 63.9449 15.944 64.4909 15.538C65.0369 15.132 65.3029 14.6 65.3029 13.914C65.3029 13.396 65.1769 12.976 64.9109 12.668C64.6449 12.36 64.3369 12.136 63.9869 11.996C63.6229 11.87 63.1609 11.744 62.6009 11.618C62.0549 11.492 61.6489 11.366 61.3969 11.24C61.1309 11.114 61.0049 10.918 61.0049 10.652C61.0049 10.428 61.1029 10.246 61.3129 10.106C61.5229 9.98 61.8169 9.91 62.1949 9.91C62.5729 9.91 62.8669 9.98 63.0769 10.106C63.2869 10.232 63.4129 10.4 63.4829 10.61H65.2049C65.0789 9.924 64.7429 9.406 64.2249 9.042C63.6929 8.678 63.0209 8.496 62.1949 8.496C61.6069 8.496 61.1029 8.594 60.6689 8.776C60.2349 8.972 59.9129 9.238 59.6889 9.56C59.4649 9.882 59.3529 10.246 59.3529 10.652C59.3529 11.184 59.4789 11.604 59.7449 11.912C60.0109 12.234 60.3189 12.458 60.6969 12.598C61.0609 12.738 61.5229 12.864 62.0829 12.99C62.6149 13.102 63.0069 13.214 63.2729 13.34C63.5249 13.466 63.6509 13.648 63.6509 13.914C63.6509 14.152 63.5389 14.334 63.3009 14.488C63.0629 14.642 62.6989 14.726 62.1949 14.726C61.8449 14.726 61.5369 14.642 61.2989 14.488C61.0469 14.334 60.8929 14.124 60.8229 13.858H59.1009C59.2269 14.572 59.5629 15.132 60.1089 15.538ZM67.0675 15.132C67.6975 15.804 68.5655 16.14 69.6435 16.14C70.5115 16.14 71.2255 15.916 71.7715 15.482C72.3175 15.048 72.7095 14.46 72.9195 13.718H71.2815C70.9315 14.362 70.3855 14.684 69.6435 14.684C69.0695 14.684 68.6075 14.474 68.2575 14.068C67.9075 13.662 67.7255 13.074 67.7255 12.318C67.7255 11.562 67.9075 10.974 68.2575 10.568C68.6075 10.162 69.0695 9.952 69.6435 9.952C70.3855 9.952 70.9315 10.274 71.2815 10.918H72.9195C72.7095 10.176 72.3315 9.588 71.7855 9.154C71.2395 8.72 70.5255 8.496 69.6435 8.496C68.5655 8.496 67.6975 8.832 67.0675 9.504C66.4375 10.176 66.1155 11.114 66.1155 12.318C66.1155 13.522 66.4375 14.46 67.0675 15.132ZM74.1185 16H75.7285V11.996C75.7285 11.45 75.9105 11.002 76.2605 10.666C76.6105 10.344 77.0725 10.176 77.6465 10.176H78.4165V8.636H77.5625C76.7225 8.636 76.1065 8.93 75.7285 9.532H75.6585L75.4765 8.636H74.1185V16ZM85.9309 12.836C85.9729 12.598 86.0009 12.36 86.0009 12.094C86.0009 11.436 85.8609 10.834 85.5809 10.288C85.3009 9.742 84.8949 9.308 84.3769 8.986C83.8589 8.664 83.2429 8.496 82.5289 8.496C81.8289 8.496 81.2129 8.65 80.6949 8.944C80.1629 9.238 79.7569 9.672 79.4629 10.246C79.1689 10.82 79.0289 11.52 79.0289 12.318C79.0289 13.522 79.3509 14.46 79.9809 15.132C80.6109 15.804 81.4789 16.14 82.5569 16.14C83.4249 16.14 84.1389 15.93 84.6849 15.51C85.2309 15.09 85.6229 14.544 85.8329 13.858H84.1109C83.9289 14.152 83.7329 14.362 83.4949 14.502C83.2569 14.656 82.9349 14.726 82.5569 14.726C82.0109 14.726 81.5909 14.558 81.2689 14.236C80.9469 13.914 80.7509 13.452 80.6809 12.836H85.9309ZM84.4049 11.604H80.6809C80.7649 11.086 80.9749 10.666 81.2969 10.358C81.6189 10.064 82.0249 9.91 82.5289 9.91C83.0749 9.91 83.5089 10.078 83.8309 10.4C84.1529 10.736 84.3349 11.142 84.4049 11.604ZM93.8436 12.836C93.8856 12.598 93.9136 12.36 93.9136 12.094C93.9136 11.436 93.7736 10.834 93.4936 10.288C93.2136 9.742 92.8076 9.308 92.2896 8.986C91.7716 8.664 91.1556 8.496 90.4416 8.496C89.7416 8.496 89.1256 8.65 88.6076 8.944C88.0756 9.238 87.6696 9.672 87.3756 10.246C87.0816 10.82 86.9416 11.52 86.9416 12.318C86.9416 13.522 87.2636 14.46 87.8936 15.132C88.5236 15.804 89.3916 16.14 90.4696 16.14C91.3376 16.14 92.0516 15.93 92.5976 15.51C93.1436 15.09 93.5356 14.544 93.7456 13.858H92.0236C91.8416 14.152 91.6456 14.362 91.4076 14.502C91.1696 14.656 90.8476 14.726 90.4696 14.726C89.9236 14.726 89.5036 14.558 89.1816 14.236C88.8596 13.914 88.6636 13.452 88.5936 12.836H93.8436ZM92.3176 11.604H88.5936C88.6776 11.086 88.8876 10.666 89.2096 10.358C89.5316 10.064 89.9376 9.91 90.4416 9.91C90.9876 9.91 91.4216 10.078 91.7436 10.4C92.0656 10.736 92.2476 11.142 92.3176 11.604ZM95.2044 16H96.8144V11.646C96.8144 11.156 96.9684 10.75 97.2764 10.428C97.5704 10.106 97.9624 9.952 98.4244 9.952C98.8864 9.952 99.2644 10.106 99.5444 10.4C99.8104 10.694 99.9504 11.114 99.9504 11.646V16H101.56V11.478C101.56 10.876 101.448 10.344 101.21 9.882C100.972 9.434 100.65 9.084 100.244 8.846C99.8384 8.608 99.3624 8.496 98.8304 8.496C98.4244 8.496 98.0464 8.58 97.6964 8.748C97.3464 8.93 97.0524 9.182 96.8144 9.532H96.7444L96.5624 8.636H95.2044V16Z" fill="#EEEFF5"/>
</svg>
