<svg width="98" height="24" viewBox="0 0 98 24" fill="none" xmlns="http://www.w3.org/2000/svg">
<path d="M18 16.75C17.84 16.75 17.69 16.7 17.55 16.6C17.22 16.35 17.15 15.88 17.4 15.55C18.66 13.87 18.93 11.64 18.12 9.70995C17.96 9.32995 18.14 8.88995 18.52 8.72995C18.9 8.56995 19.34 8.74995 19.5 9.12995C20.52 11.55 20.17 14.3599 18.6 16.4599C18.45 16.6499 18.23 16.75 18 16.75Z" fill="#EEEFF5"/>
<path d="M19.83 19.25C19.67 19.25 19.52 19.2 19.38 19.1C19.05 18.85 18.98 18.38 19.23 18.05C21.37 15.2 21.84 11.38 20.46 8.08995C20.3 7.70995 20.48 7.26995 20.86 7.10995C21.24 6.94996 21.68 7.12996 21.84 7.50996C23.43 11.29 22.89 15.67 20.43 18.95C20.29 19.15 20.06 19.25 19.83 19.25Z" fill="#EEEFF5"/>
<path d="M14.04 12.96C14.67 12.33 15.75 12.78 15.75 13.67V16.6C15.75 18.32 15.13 19.61 14.02 20.23C13.57 20.48 13.07 20.6 12.55 20.6C11.75 20.6 10.89 20.33 10.01 19.78L9.36998 19.38C8.82998 19.04 8.73998 18.28 9.18998 17.83L14.04 12.96Z" fill="#EEEFF5"/>
<path d="M21.77 2.23C21.47 1.93 20.98 1.93 20.68 2.23L15.73 7.18C15.67 5.58 15.07 4.38 14.01 3.79C12.89 3.17 11.46 3.33 10 4.24L7.09 6.06C6.89 6.18 6.66 6.25 6.43 6.25H5.5H5C2.58 6.25 1.25 7.58 1.25 10V14C1.25 16.42 2.58 17.75 5 17.75H5.16L2.22 20.69C1.92 20.99 1.92 21.48 2.22 21.78C2.38 21.92 2.57 22 2.77 22C2.97 22 3.16 21.92 3.31 21.77L21.77 3.31C22.08 3.01 22.08 2.53 21.77 2.23Z" fill="#EEEFF5"/>
<path d="M37.652 15.37C38.338 15.888 39.206 16.14 40.256 16.14C41.054 16.14 41.754 16.014 42.328 15.748C42.902 15.482 43.35 15.132 43.644 14.684C43.938 14.25 44.092 13.76 44.092 13.214C44.092 12.584 43.938 12.08 43.63 11.702C43.322 11.324 42.958 11.058 42.524 10.89C42.09 10.722 41.53 10.554 40.83 10.386C40.312 10.26 39.892 10.148 39.598 10.05C39.304 9.952 39.052 9.798 38.856 9.602C38.646 9.42 38.548 9.168 38.548 8.846C38.548 8.482 38.702 8.174 39.01 7.936C39.304 7.698 39.738 7.586 40.298 7.586C40.788 7.586 41.194 7.684 41.516 7.894C41.824 8.104 42.034 8.398 42.132 8.748H43.882C43.742 7.922 43.364 7.278 42.748 6.788C42.132 6.298 41.306 6.06 40.256 6.06C39.57 6.06 38.968 6.172 38.436 6.396C37.904 6.62 37.498 6.942 37.204 7.362C36.91 7.796 36.756 8.286 36.756 8.846C36.756 9.532 36.91 10.064 37.232 10.456C37.554 10.848 37.932 11.128 38.38 11.296C38.814 11.478 39.402 11.646 40.116 11.8C40.62 11.912 41.012 12.01 41.306 12.108C41.586 12.206 41.824 12.332 42.02 12.514C42.202 12.696 42.3 12.92 42.3 13.214C42.3 13.634 42.132 13.97 41.796 14.222C41.46 14.488 40.942 14.614 40.256 14.614C39.71 14.614 39.248 14.488 38.898 14.25C38.534 14.012 38.296 13.662 38.184 13.228H36.434C36.56 14.152 36.966 14.866 37.652 15.37ZM45.9303 15.132C46.5603 15.804 47.4283 16.14 48.5063 16.14C49.5843 16.14 50.4523 15.804 51.0823 15.132C51.7123 14.46 52.0343 13.522 52.0343 12.318C52.0343 11.114 51.7123 10.176 51.0823 9.504C50.4523 8.832 49.5843 8.496 48.5063 8.496C47.4283 8.496 46.5603 8.832 45.9303 9.504C45.3003 10.176 44.9783 11.114 44.9783 12.318C44.9783 13.522 45.3003 14.46 45.9303 15.132ZM49.8923 14.082C49.5423 14.488 49.0803 14.684 48.5063 14.684C47.9463 14.684 47.4843 14.488 47.1343 14.082C46.7703 13.676 46.5883 13.088 46.5883 12.318C46.5883 11.548 46.7703 10.96 47.1343 10.554C47.4843 10.148 47.9463 9.952 48.5063 9.952C49.0803 9.952 49.5423 10.148 49.8923 10.554C50.2423 10.96 50.4243 11.548 50.4243 12.318C50.4243 13.088 50.2423 13.676 49.8923 14.082ZM54.6527 15.776C55.0587 16.028 55.5347 16.14 56.0667 16.14C56.4727 16.14 56.8507 16.056 57.2007 15.874C57.5507 15.706 57.8447 15.454 58.0827 15.104H58.1527L58.3347 16H59.6927V8.636H58.0827V12.99C58.0827 13.48 57.9287 13.872 57.6347 14.194C57.3267 14.516 56.9347 14.684 56.4587 14.684C55.9967 14.684 55.6327 14.53 55.3667 14.236C55.0867 13.942 54.9467 13.522 54.9467 12.99V8.636H53.3367V13.158C53.3367 13.76 53.4487 14.292 53.6867 14.74C53.9247 15.202 54.2467 15.538 54.6527 15.776ZM61.3451 16H62.9551V11.646C62.9551 11.156 63.1091 10.75 63.4171 10.428C63.7111 10.106 64.1031 9.952 64.5651 9.952C65.0271 9.952 65.4051 10.106 65.6851 10.4C65.9511 10.694 66.0911 11.114 66.0911 11.646V16H67.7011V11.478C67.7011 10.876 67.5891 10.344 67.3511 9.882C67.1131 9.434 66.7911 9.084 66.3851 8.846C65.9791 8.608 65.5031 8.496 64.9711 8.496C64.5651 8.496 64.1871 8.58 63.8371 8.748C63.4871 8.93 63.1931 9.182 62.9551 9.532H62.8851L62.7031 8.636H61.3451V16ZM70.4752 15.692C70.9512 15.986 71.4972 16.14 72.1272 16.14C72.6172 16.14 73.0512 16.042 73.4292 15.86C73.7932 15.678 74.1012 15.426 74.3392 15.104H74.4092L74.5912 16H75.9492V6.2H74.3392V9.462H74.2692C74.0592 9.196 73.7652 8.958 73.4152 8.776C73.0512 8.594 72.6172 8.496 72.1272 8.496C71.4972 8.496 70.9512 8.636 70.4752 8.93C69.9852 9.224 69.6072 9.658 69.3412 10.232C69.0752 10.806 68.9352 11.506 68.9352 12.318C68.9352 13.13 69.0752 13.816 69.3412 14.39C69.6072 14.964 69.9852 15.398 70.4752 15.692ZM73.8212 14.082C73.4712 14.488 73.0092 14.684 72.4352 14.684C71.8752 14.684 71.4272 14.488 71.0772 14.082C70.7272 13.676 70.5452 13.088 70.5452 12.318C70.5452 11.548 70.7272 10.96 71.0772 10.554C71.4272 10.148 71.8752 9.952 72.4352 9.952C73.0092 9.952 73.4712 10.148 73.8212 10.554C74.1712 10.96 74.3392 11.548 74.3392 12.318C74.3392 13.088 74.1712 13.676 73.8212 14.082ZM81.283 15.132C81.913 15.804 82.781 16.14 83.859 16.14C84.937 16.14 85.805 15.804 86.435 15.132C87.065 14.46 87.387 13.522 87.387 12.318C87.387 11.114 87.065 10.176 86.435 9.504C85.805 8.832 84.937 8.496 83.859 8.496C82.781 8.496 81.913 8.832 81.283 9.504C80.653 10.176 80.331 11.114 80.331 12.318C80.331 13.522 80.653 14.46 81.283 15.132ZM85.245 14.082C84.895 14.488 84.433 14.684 83.859 14.684C83.299 14.684 82.837 14.488 82.487 14.082C82.123 13.676 81.941 13.088 81.941 12.318C81.941 11.548 82.123 10.96 82.487 10.554C82.837 10.148 83.299 9.952 83.859 9.952C84.433 9.952 84.895 10.148 85.245 10.554C85.595 10.96 85.777 11.548 85.777 12.318C85.777 13.088 85.595 13.676 85.245 14.082ZM91.6294 7.39H92.6794V5.948H91.3914C90.7194 5.948 90.2014 6.13 89.8234 6.48C89.4454 6.844 89.2634 7.348 89.2634 7.978V8.636H88.1014V10.134H89.2634V16H90.8734V10.134H92.6794V8.636H90.8734V8.146C90.8734 7.922 90.9434 7.74 91.0834 7.6C91.2234 7.46 91.4054 7.39 91.6294 7.39ZM96.6574 7.39H97.7074V5.948H96.4194C95.7474 5.948 95.2294 6.13 94.8514 6.48C94.4734 6.844 94.2914 7.348 94.2914 7.978V8.636H93.1294V10.134H94.2914V16H95.9014V10.134H97.7074V8.636H95.9014V8.146C95.9014 7.922 95.9714 7.74 96.1114 7.6C96.2514 7.46 96.4334 7.39 96.6574 7.39Z" fill="#EEEFF5"/>
</svg>
