<svg width="96" height="24" viewBox="0 0 96 24" fill="none" xmlns="http://www.w3.org/2000/svg">
<path d="M18.0002 16.7502C17.8402 16.7502 17.6902 16.7002 17.5502 16.6002C17.2202 16.3502 17.1502 15.8802 17.4002 15.5502C18.9702 13.4602 18.9702 10.5402 17.4002 8.45024C17.1502 8.12024 17.2202 7.65024 17.5502 7.40024C17.8802 7.15024 18.3502 7.22024 18.6002 7.55024C20.5602 10.1702 20.5602 13.8302 18.6002 16.4502C18.4502 16.6502 18.2302 16.7502 18.0002 16.7502Z" fill="#EEEFF5"/>
<path d="M19.8302 19.2502C19.6702 19.2502 19.5202 19.2002 19.3802 19.1002C19.0502 18.8502 18.9802 18.3802 19.2302 18.0502C21.9002 14.4902 21.9002 9.51024 19.2302 5.95024C18.9802 5.62024 19.0502 5.15024 19.3802 4.90024C19.7102 4.65024 20.1802 4.72024 20.4302 5.05024C23.5002 9.14024 23.5002 14.8602 20.4302 18.9502C20.2902 19.1502 20.0602 19.2502 19.8302 19.2502Z" fill="#EEEFF5"/>
<path d="M14.0199 3.77969C12.8999 3.15969 11.4699 3.31969 10.0099 4.22969L7.08988 6.05969C6.88988 6.17969 6.65988 6.24969 6.42988 6.24969H5.49988H4.99988C2.57988 6.24969 1.24988 7.57969 1.24988 9.99969V13.9997C1.24988 16.4197 2.57988 17.7497 4.99988 17.7497H5.49988H6.42988C6.65988 17.7497 6.88988 17.8197 7.08988 17.9397L10.0099 19.7697C10.8899 20.3197 11.7499 20.5897 12.5499 20.5897C13.0699 20.5897 13.5699 20.4697 14.0199 20.2197C15.1299 19.5997 15.7499 18.3097 15.7499 16.5897V7.40969C15.7499 5.68969 15.1299 4.39969 14.0199 3.77969Z" fill="#EEEFF5"/>
<path d="M37.6519 15.37C38.3379 15.888 39.2059 16.14 40.2559 16.14C41.0539 16.14 41.7539 16.014 42.3279 15.748C42.9019 15.482 43.3499 15.132 43.6439 14.684C43.9379 14.25 44.0919 13.76 44.0919 13.214C44.0919 12.584 43.9379 12.08 43.6299 11.702C43.3219 11.324 42.9579 11.058 42.5239 10.89C42.0899 10.722 41.5299 10.554 40.8299 10.386C40.3119 10.26 39.8919 10.148 39.5979 10.05C39.3039 9.95197 39.0519 9.79797 38.8559 9.60197C38.6459 9.41997 38.5479 9.16797 38.5479 8.84597C38.5479 8.48197 38.7019 8.17397 39.0099 7.93597C39.3039 7.69797 39.7379 7.58597 40.2979 7.58597C40.7879 7.58597 41.1939 7.68397 41.5159 7.89397C41.8239 8.10397 42.0339 8.39797 42.1319 8.74797H43.8819C43.7419 7.92197 43.3639 7.27797 42.7479 6.78797C42.1319 6.29797 41.3059 6.05997 40.2559 6.05997C39.5699 6.05997 38.9679 6.17197 38.4359 6.39597C37.9039 6.61997 37.4979 6.94197 37.2039 7.36197C36.9099 7.79597 36.7559 8.28597 36.7559 8.84597C36.7559 9.53197 36.9099 10.064 37.2319 10.456C37.5539 10.848 37.9319 11.128 38.3799 11.296C38.8139 11.478 39.4019 11.646 40.1159 11.8C40.6199 11.912 41.0119 12.01 41.3059 12.108C41.5859 12.206 41.8239 12.332 42.0199 12.514C42.2019 12.696 42.2999 12.92 42.2999 13.214C42.2999 13.634 42.1319 13.97 41.7959 14.222C41.4599 14.488 40.9419 14.614 40.2559 14.614C39.7099 14.614 39.2479 14.488 38.8979 14.25C38.5339 14.012 38.2959 13.662 38.1839 13.228H36.4339C36.5599 14.152 36.9659 14.866 37.6519 15.37ZM45.9301 15.132C46.5601 15.804 47.4281 16.14 48.5061 16.14C49.5841 16.14 50.4521 15.804 51.0821 15.132C51.7121 14.46 52.0341 13.522 52.0341 12.318C52.0341 11.114 51.7121 10.176 51.0821 9.50397C50.4521 8.83197 49.5841 8.49597 48.5061 8.49597C47.4281 8.49597 46.5601 8.83197 45.9301 9.50397C45.3001 10.176 44.9781 11.114 44.9781 12.318C44.9781 13.522 45.3001 14.46 45.9301 15.132ZM49.8921 14.082C49.5421 14.488 49.0801 14.684 48.5061 14.684C47.9461 14.684 47.4841 14.488 47.1341 14.082C46.7701 13.676 46.5881 13.088 46.5881 12.318C46.5881 11.548 46.7701 10.96 47.1341 10.554C47.4841 10.148 47.9461 9.95197 48.5061 9.95197C49.0801 9.95197 49.5421 10.148 49.8921 10.554C50.2421 10.96 50.4241 11.548 50.4241 12.318C50.4241 13.088 50.2421 13.676 49.8921 14.082ZM54.6526 15.776C55.0586 16.028 55.5346 16.14 56.0666 16.14C56.4726 16.14 56.8506 16.056 57.2006 15.874C57.5506 15.706 57.8446 15.454 58.0826 15.104H58.1526L58.3346 16H59.6926V8.63597H58.0826V12.99C58.0826 13.48 57.9286 13.872 57.6346 14.194C57.3266 14.516 56.9346 14.684 56.4586 14.684C55.9966 14.684 55.6326 14.53 55.3666 14.236C55.0866 13.942 54.9466 13.522 54.9466 12.99V8.63597H53.3366V13.158C53.3366 13.76 53.4486 14.292 53.6866 14.74C53.9246 15.202 54.2466 15.538 54.6526 15.776ZM61.345 16H62.955V11.646C62.955 11.156 63.109 10.75 63.417 10.428C63.711 10.106 64.103 9.95197 64.565 9.95197C65.027 9.95197 65.405 10.106 65.685 10.4C65.951 10.694 66.091 11.114 66.091 11.646V16H67.701V11.478C67.701 10.876 67.589 10.344 67.351 9.88197C67.113 9.43397 66.791 9.08397 66.385 8.84597C65.979 8.60797 65.503 8.49597 64.971 8.49597C64.565 8.49597 64.187 8.57997 63.837 8.74797C63.487 8.92997 63.193 9.18197 62.955 9.53197H62.885L62.703 8.63597H61.345V16ZM70.4751 15.692C70.9511 15.986 71.4971 16.14 72.1271 16.14C72.6171 16.14 73.0511 16.042 73.4291 15.86C73.7931 15.678 74.1011 15.426 74.3391 15.104H74.4091L74.5911 16H75.9491V6.19997H74.3391V9.46197H74.2691C74.0591 9.19597 73.7651 8.95797 73.4151 8.77597C73.0511 8.59397 72.6171 8.49597 72.1271 8.49597C71.4971 8.49597 70.9511 8.63597 70.4751 8.92997C69.9851 9.22397 69.6071 9.65797 69.3411 10.232C69.0751 10.806 68.9351 11.506 68.9351 12.318C68.9351 13.13 69.0751 13.816 69.3411 14.39C69.6071 14.964 69.9851 15.398 70.4751 15.692ZM73.8211 14.082C73.4711 14.488 73.0091 14.684 72.4351 14.684C71.8751 14.684 71.4271 14.488 71.0771 14.082C70.7271 13.676 70.5451 13.088 70.5451 12.318C70.5451 11.548 70.7271 10.96 71.0771 10.554C71.4271 10.148 71.8751 9.95197 72.4351 9.95197C73.0091 9.95197 73.4711 10.148 73.8211 10.554C74.1711 10.96 74.3391 11.548 74.3391 12.318C74.3391 13.088 74.1711 13.676 73.8211 14.082ZM81.2829 15.132C81.9129 15.804 82.7809 16.14 83.8589 16.14C84.9369 16.14 85.8049 15.804 86.4349 15.132C87.0649 14.46 87.3869 13.522 87.3869 12.318C87.3869 11.114 87.0649 10.176 86.4349 9.50397C85.8049 8.83197 84.9369 8.49597 83.8589 8.49597C82.7809 8.49597 81.9129 8.83197 81.2829 9.50397C80.6529 10.176 80.3309 11.114 80.3309 12.318C80.3309 13.522 80.6529 14.46 81.2829 15.132ZM85.2449 14.082C84.8949 14.488 84.4329 14.684 83.8589 14.684C83.2989 14.684 82.8369 14.488 82.4869 14.082C82.1229 13.676 81.9409 13.088 81.9409 12.318C81.9409 11.548 82.1229 10.96 82.4869 10.554C82.8369 10.148 83.2989 9.95197 83.8589 9.95197C84.4329 9.95197 84.8949 10.148 85.2449 10.554C85.5949 10.96 85.7769 11.548 85.7769 12.318C85.7769 13.088 85.5949 13.676 85.2449 14.082ZM88.6893 16H90.2993V11.646C90.2993 11.156 90.4533 10.75 90.7613 10.428C91.0553 10.106 91.4473 9.95197 91.9093 9.95197C92.3713 9.95197 92.7493 10.106 93.0293 10.4C93.2953 10.694 93.4353 11.114 93.4353 11.646V16H95.0453V11.478C95.0453 10.876 94.9333 10.344 94.6953 9.88197C94.4573 9.43397 94.1353 9.08397 93.7293 8.84597C93.3233 8.60797 92.8473 8.49597 92.3153 8.49597C91.9093 8.49597 91.5313 8.57997 91.1813 8.74797C90.8313 8.92997 90.5373 9.18197 90.2993 9.53197H90.2293L90.0473 8.63597H88.6893V16Z" fill="#EEEFF5"/>
</svg>
